IBM Plex Mono-Bold.ufo
<glyph name="exclam" format="1">
  <advance width="600"/>
  <unicode hex="0021"/>
  <outline>
    <contour>
      <point x="324" y="243" type="line"/>
      <point x="381" y="495" type="line"/>
      <point x="381" y="698" type="line"/>
      <point x="219" y="698" type="line"/>
      <point x="219" y="495" type="line"/>
      <point x="276" y="243" type="line"/>
    </contour>
    <contour>
      <point x="300" y="-12" type="curve" smooth="yes"/>
      <point x="371" y="-12"/>
      <point x="398" y="23"/>
      <point x="398" y="66" type="curve" smooth="yes" name="hr01"/>
      <point x="398" y="98" type="line" smooth="yes"/>
      <point x="398" y="140"/>
      <point x="371" y="175"/>
      <point x="300" y="175" type="curve" smooth="yes"/>
      <point x="229" y="175"/>
      <point x="202" y="140"/>
      <point x="202" y="98" type="curve" smooth="yes"/>
      <point x="202" y="66" type="line" smooth="yes"/>
      <point x="202" y="23"/>
      <point x="229" y="-12"/>
    </contour>
  </outline>
</glyph>
<glyph name="numbersign" format="1">
  <advance width="600"/>
  <unicode hex="0023"/>
  <outline>
    <contour>
      <point x="83" y="0" type="line" name="hr00"/>
      <point x="200" y="0" type="line"/>
      <point x="323" y="698" type="line"/>
      <point x="206" y="698" type="line"/>
      <point x="172" y="504" type="line"/>
      <point x="47" y="504" type="line"/>
      <point x="47" y="394" type="line"/>
      <point x="152" y="394" type="line"/>
      <point x="137" y="304" type="line"/>
      <point x="9" y="304" type="line"/>
      <point x="9" y="194" type="line"/>
      <point x="117" y="194" type="line"/>
    </contour>
    <contour>
      <point x="277" y="0" type="line"/>
      <point x="394" y="0" type="line"/>
      <point x="428" y="194" type="line"/>
      <point x="553" y="194" type="line"/>
      <point x="553" y="304" type="line"/>
      <point x="448" y="304" type="line"/>
      <point x="463" y="394" type="line"/>
      <point x="591" y="394" type="line"/>
      <point x="591" y="504" type="line"/>
      <point x="483" y="504" type="line"/>
      <point x="517" y="698" type="line"/>
      <point x="400" y="698" type="line"/>
    </contour>
  </outline>
</glyph>
<glyph name="dollar" format="1">
  <advance width="600"/>
  <unicode hex="0024"/>
  <outline>
    <contour>
      <point x="253" y="-113" type="line" name="hr00"/>
      <point x="367" y="-113" type="line"/>
      <point x="367" y="-5" type="line"/>
      <point x="496" y="18"/>
      <point x="568" y="102"/>
      <point x="568" y="212" type="curve" smooth="yes"/>
      <point x="568" y="313"/>
      <point x="507" y="385"/>
      <point x="380" y="409" type="curve" smooth="yes"/>
      <point x="357" y="413" type="line"/>
      <point x="357" y="580" type="line"/>
      <point x="399" y="571"/>
      <point x="435" y="551"/>
      <point x="463" y="520" type="curve"/>
      <point x="549" y="616" type="line"/>
      <point x="509" y="662"/>
      <point x="450" y="696"/>
      <point x="367" y="707" type="curve"/>
      <point x="367" y="811" type="line"/>
      <point x="253" y="811" type="line"/>
      <point x="253" y="706" type="line"/>
      <point x="124" y="689"/>
      <point x="52" y="614"/>
      <point x="52" y="502" type="curve" smooth="yes"/>
      <point x="52" y="400"/>
      <point x="112" y="324"/>
      <point x="240" y="301" type="curve" smooth="yes"/>
      <point x="263" y="297" type="line"/>
      <point x="263" y="113" type="line"/>
      <point x="209" y="121"/>
      <point x="159" y="146"/>
      <point x="117" y="191" type="curve"/>
      <point x="30" y="96" type="line"/>
      <point x="77" y="37"/>
      <point x="154" y="-2"/>
      <point x="253" y="-10" type="curve"/>
    </contour>
    <contour>
      <point x="193" y="507" type="curve" smooth="yes"/>
      <point x="193" y="549"/>
      <point x="214" y="575"/>
      <point x="263" y="583" type="curve"/>
      <point x="263" y="432" type="line"/>
      <point x="214" y="445"/>
      <point x="193" y="465"/>
    </contour>
    <contour>
      <point x="428" y="202" type="curve" smooth="yes"/>
      <point x="428" y="156"/>
      <point x="405" y="125"/>
      <point x="357" y="114" type="curve"/>
      <point x="357" y="279" type="line"/>
      <point x="406" y="267"/>
      <point x="428" y="247"/>
    </contour>
  </outline>
</glyph>
<glyph name="percent" format="1">
  <advance width="600"/>
  <unicode hex="0025"/>
  <outline>
    <contour>
      <point x="165" y="338" type="curve" smooth="yes"/>
      <point x="264" y="338"/>
      <point x="322" y="409"/>
      <point x="322" y="524" type="curve" smooth="yes"/>
      <point x="322" y="639"/>
      <point x="264" y="710"/>
      <point x="165" y="710" type="curve" smooth="yes"/>
      <point x="66" y="710"/>
      <point x="8" y="639"/>
      <point x="8" y="524" type="curve" smooth="yes"/>
      <point x="8" y="409"/>
      <point x="66" y="338"/>
    </contour>
    <contour>
      <point x="165" y="425" type="curve" smooth="yes"/>
      <point x="126" y="425"/>
      <point x="113" y="455"/>
      <point x="113" y="502" type="curve" smooth="yes"/>
      <point x="113" y="546" type="line" smooth="yes"/>
      <point x="113" y="593"/>
      <point x="126" y="623"/>
      <point x="165" y="623" type="curve" smooth="yes"/>
      <point x="204" y="623"/>
      <point x="217" y="593"/>
      <point x="217" y="546" type="curve" smooth="yes"/>
      <point x="217" y="502" type="line" smooth="yes"/>
      <point x="217" y="455"/>
      <point x="204" y="425"/>
    </contour>
    <contour>
      <point x="334" y="398" type="line"/>
      <point x="447" y="398" type="line"/>
      <point x="598" y="698" type="line" name="hr01"/>
      <point x="485" y="698" type="line"/>
    </contour>
    <contour>
      <point x="2" y="0" type="line"/>
      <point x="115" y="0" type="line"/>
      <point x="266" y="300" type="line"/>
      <point x="153" y="300" type="line"/>
    </contour>
    <contour>
      <point x="436" y="-12" type="curve" smooth="yes" name="hr02"/>
      <point x="535" y="-12"/>
      <point x="593" y="59"/>
      <point x="593" y="174" type="curve" smooth="yes"/>
      <point x="593" y="289"/>
      <point x="535" y="360"/>
      <point x="436" y="360" type="curve" smooth="yes"/>
      <point x="337" y="360"/>
      <point x="279" y="289"/>
      <point x="279" y="174" type="curve" smooth="yes"/>
      <point x="279" y="59"/>
      <point x="337" y="-12"/>
    </contour>
    <contour>
      <point x="436" y="75" type="curve" smooth="yes"/>
      <point x="397" y="75"/>
      <point x="384" y="105"/>
      <point x="384" y="152" type="curve" smooth="yes"/>
      <point x="384" y="196" type="line" smooth="yes"/>
      <point x="384" y="243"/>
      <point x="397" y="273"/>
      <point x="436" y="273" type="curve" smooth="yes"/>
      <point x="475" y="273"/>
      <point x="488" y="243"/>
      <point x="488" y="196" type="curve" smooth="yes"/>
      <point x="488" y="152" type="line" smooth="yes"/>
      <point x="488" y="105"/>
      <point x="475" y="75"/>
    </contour>
  </outline>
</glyph>
<glyph name="ampersand" format="1">
  <advance width="600"/>
  <unicode hex="0026"/>
  <outline>
    <contour>
      <point x="207" y="-12" type="curve" smooth="yes"/>
      <point x="289" y="-12"/>
      <point x="345" y="29"/>
      <point x="354" y="97" type="curve"/>
      <point x="361" y="97" type="line"/>
      <point x="441" y="0" type="line" name="hr01"/>
      <point x="599" y="0" type="line"/>
      <point x="469" y="158" type="line"/>
      <point x="490" y="205"/>
      <point x="503" y="250"/>
      <point x="510" y="292" type="curve"/>
      <point x="580" y="292" type="line"/>
      <point x="580" y="402" type="line"/>
      <point x="402" y="402" type="line"/>
      <point x="402" y="358"/>
      <point x="399" y="288"/>
      <point x="391" y="243" type="curve"/>
      <point x="385" y="243" type="line"/>
      <point x="337" y="317" type="line"/>
      <point x="280" y="389" type="line" smooth="yes"/>
      <point x="217" y="469"/>
      <point x="197" y="492"/>
      <point x="197" y="530" type="curve" smooth="yes"/>
      <point x="197" y="535" type="line" smooth="yes"/>
      <point x="197" y="573"/>
      <point x="224" y="600"/>
      <point x="264" y="600" type="curve" smooth="yes"/>
      <point x="304" y="600"/>
      <point x="337" y="574"/>
      <point x="351" y="531" type="curve"/>
      <point x="453" y="586" type="line"/>
      <point x="432" y="650"/>
      <point x="362" y="710"/>
      <point x="262" y="710" type="curve" smooth="yes"/>
      <point x="150" y="710"/>
      <point x="67" y="634"/>
      <point x="67" y="534" type="curve" smooth="yes"/>
      <point x="67" y="483"/>
      <point x="89" y="440"/>
      <point x="132" y="381" type="curve"/>
      <point x="55" y="336"/>
      <point x="14" y="274"/>
      <point x="14" y="190" type="curve" smooth="yes" name="hr02"/>
      <point x="14" y="82"/>
      <point x="82" y="-12"/>
    </contour>
    <contour>
      <point x="244" y="101" type="curve" smooth="yes"/>
      <point x="187" y="101"/>
      <point x="150" y="135"/>
      <point x="150" y="198" type="curve"/>
      <point x="150" y="200" type="line" smooth="yes"/>
      <point x="150" y="238"/>
      <point x="158" y="272"/>
      <point x="192" y="305" type="curve"/>
      <point x="321" y="141" type="line"/>
      <point x="303" y="111"/>
      <point x="274" y="101"/>
    </contour>
  </outline>
</glyph>
<glyph name="quotesingle" format="1">
  <advance width="600"/>
  <unicode hex="0027"/>
  <outline>
    <contour>
      <point x="366" y="414" type="line" name="hr00"/>
      <point x="366" y="740" type="line"/>
      <point x="234" y="740" type="line"/>
      <point x="234" y="414" type="line"/>
    </contour>
  </outline>
</glyph>
<glyph name="parenleft" format="1">
  <advance width="600"/>
  <unicode hex="0028"/>
  <outline>
    <contour>
      <point x="174" y="311" type="curve" smooth="yes" name="hr00"/>
      <point x="174" y="116"/>
      <point x="269" y="-54"/>
      <point x="382" y="-138" type="curve"/>
      <point x="530" y="-138" type="line"/>
      <point x="406" y="-53"/>
      <point x="298" y="93"/>
      <point x="298" y="260" type="curve" smooth="yes"/>
      <point x="298" y="362" type="line" smooth="yes"/>
      <point x="298" y="529"/>
      <point x="406" y="675"/>
      <point x="530" y="760" type="curve"/>
      <point x="382" y="760" type="line"/>
      <point x="269" y="676"/>
      <point x="174" y="506"/>
    </contour>
  </outline>
</glyph>
<glyph name="parenright" format="1">
  <advance width="600"/>
  <unicode hex="0029"/>
  <outline>
    <contour>
      <point x="426" y="311" type="curve" smooth="yes" name="hr00"/>
      <point x="426" y="506"/>
      <point x="331" y="676"/>
      <point x="218" y="760" type="curve"/>
      <point x="70" y="760" type="line"/>
      <point x="194" y="675"/>
      <point x="302" y="529"/>
      <point x="302" y="362" type="curve" smooth="yes"/>
      <point x="302" y="260" type="line" smooth="yes"/>
      <point x="302" y="93"/>
      <point x="194" y="-53"/>
      <point x="70" y="-138" type="curve"/>
      <point x="218" y="-138" type="line"/>
      <point x="331" y="-54"/>
      <point x="426" y="116"/>
    </contour>
  </outline>
</glyph>
<glyph name="asterisk" format="1">
  <advance width="600"/>
  <unicode hex="002A"/>
  <outline>
    <contour>
      <point x="300" y="189" type="line" name="hr00"/>
      <point x="409" y="40" type="line"/>
      <point x="513" y="109" type="line"/>
      <point x="399" y="259" type="line"/>
      <point x="570" y="317" type="line"/>
      <point x="531" y="432" type="line"/>
      <point x="364" y="371" type="line"/>
      <point x="364" y="548" type="line"/>
      <point x="236" y="548" type="line"/>
      <point x="236" y="371" type="line"/>
      <point x="69" y="432" type="line"/>
      <point x="30" y="317" type="line"/>
      <point x="201" y="259" type="line"/>
      <point x="87" y="109" type="line"/>
      <point x="191" y="40" type="line"/>
    </contour>
  </outline>
</glyph>
<glyph name="plus" format="1">
  <advance width="600"/>
  <unicode hex="002B"/>
  <outline>
    <contour>
      <point x="364" y="62" type="line" name="hr00"/>
      <point x="364" y="246" type="line"/>
      <point x="538" y="246" type="line"/>
      <point x="538" y="364" type="line"/>
      <point x="364" y="364" type="line"/>
      <point x="364" y="548" type="line"/>
      <point x="236" y="548" type="line"/>
      <point x="236" y="364" type="line"/>
      <point x="62" y="364" type="line"/>
      <point x="62" y="246" type="line"/>
      <point x="236" y="246" type="line"/>
      <point x="236" y="62" type="line"/>
    </contour>
  </outline>
</glyph>
<glyph name="hyphen" format="1">
  <advance width="600"/>
  <unicode hex="002D"/>
  <outline>
    <contour>
      <point x="460" y="234" type="line" name="hr00"/>
      <point x="460" y="376" type="line"/>
      <point x="140" y="376" type="line"/>
      <point x="140" y="234" type="line"/>
    </contour>
  </outline>
</glyph>
<glyph name="period" format="1">
  <advance width="600"/>
  <unicode hex="002E"/>
  <outline>
    <contour>
      <point x="300" y="-12" type="curve" smooth="yes" name="hr00"/>
      <point x="375" y="-12"/>
      <point x="405" y="26"/>
      <point x="405" y="71" type="curve" smooth="yes"/>
      <point x="405" y="106" type="line"/>
      <point x="405" y="151"/>
      <point x="375" y="189"/>
      <point x="300" y="189" type="curve" smooth="yes"/>
      <point x="225" y="189"/>
      <point x="195" y="151"/>
      <point x="195" y="106" type="curve" smooth="yes"/>
      <point x="195" y="71" type="line" smooth="yes"/>
      <point x="195" y="26"/>
      <point x="225" y="-12"/>
    </contour>
  </outline>
</glyph>
<glyph name="slash" format="1">
  <advance width="600"/>
  <unicode hex="002F"/>
  <outline>
    <contour>
      <point x="206" y="-138" type="line" name="hr00"/>
      <point x="527" y="760" type="line"/>
      <point x="394" y="760" type="line"/>
      <point x="73" y="-138" type="line"/>
    </contour>
  </outline>
</glyph>
<glyph name="zero" format="1">
  <advance width="600"/>
  <unicode hex="0030"/>
  <outline>
    <contour>
      <point x="300" y="-12" type="curve" smooth="yes" name="hr00"/>
      <point x="487" y="-12"/>
      <point x="573" y="121"/>
      <point x="573" y="349" type="curve" smooth="yes"/>
      <point x="573" y="577"/>
      <point x="487" y="710"/>
      <point x="300" y="710" type="curve" smooth="yes"/>
      <point x="113" y="710"/>
      <point x="27" y="577"/>
      <point x="27" y="349" type="curve" smooth="yes"/>
      <point x="27" y="121"/>
      <point x="113" y="-12"/>
    </contour>
    <contour>
      <point x="300" y="106" type="curve" smooth="yes"/>
      <point x="211" y="106"/>
      <point x="180" y="173"/>
      <point x="180" y="284" type="curve" smooth="yes"/>
      <point x="180" y="414" type="line" smooth="yes"/>
      <point x="180" y="525"/>
      <point x="211" y="592"/>
      <point x="300" y="592" type="curve" smooth="yes"/>
      <point x="389" y="592"/>
      <point x="420" y="525"/>
      <point x="420" y="414" type="curve" smooth="yes"/>
      <point x="420" y="284" type="line"/>
      <point x="420" y="173"/>
      <point x="389" y="106"/>
    </contour>
    <contour>
      <point x="300" y="290" type="curve" smooth="yes"/>
      <point x="346" y="290"/>
      <point x="362" y="311"/>
      <point x="362" y="338" type="curve" smooth="yes"/>
      <point x="362" y="360" type="line" smooth="yes"/>
      <point x="362" y="387"/>
      <point x="346" y="408"/>
      <point x="300" y="408" type="curve" smooth="yes"/>
      <point x="254" y="408"/>
      <point x="238" y="387"/>
      <point x="238" y="360" type="curve" smooth="yes"/>
      <point x="238" y="338" type="line"/>
      <point x="238" y="311"/>
      <point x="254" y="290"/>
    </contour>
  </outline>
</glyph>
<glyph name="two" format="1">
  <advance width="600"/>
  <unicode hex="0032"/>
  <outline>
    <contour>
      <point x="555" y="126" type="line" name="hr00"/>
      <point x="219" y="126" type="line"/>
      <point x="352" y="229" type="line" smooth="yes"/>
      <point x="457" y="309"/>
      <point x="540" y="384"/>
      <point x="540" y="500" type="curve" smooth="yes"/>
      <point x="540" y="621"/>
      <point x="452" y="710"/>
      <point x="299" y="710" type="curve" smooth="yes"/>
      <point x="151" y="710"/>
      <point x="69" y="628"/>
      <point x="38" y="532" type="curve"/>
      <point x="169" y="482" type="line"/>
      <point x="184" y="535"/>
      <point x="217" y="580"/>
      <point x="284" y="580" type="curve" smooth="yes"/>
      <point x="342" y="580"/>
      <point x="380" y="549"/>
      <point x="380" y="491" type="curve" smooth="yes"/>
      <point x="380" y="481" type="line" smooth="yes"/>
      <point x="380" y="428"/>
      <point x="349" y="385"/>
      <point x="273" y="320" type="curve" smooth="yes"/>
      <point x="53" y="137" type="line"/>
      <point x="53" y="0" type="line"/>
      <point x="555" y="0" type="line"/>
    </contour>
  </outline>
</glyph>
<glyph name="three" format="1">
  <advance width="600"/>
  <unicode hex="0033"/>
  <outline>
    <contour>
      <point x="207" y="422" type="line"/>
      <point x="207" y="297" type="line"/>
      <point x="272" y="297" type="line" smooth="yes"/>
      <point x="350" y="297"/>
      <point x="397" y="268"/>
      <point x="397" y="211" type="curve" smooth="yes"/>
      <point x="397" y="204" type="line" smooth="yes"/>
      <point x="397" y="146"/>
      <point x="356" y="110"/>
      <point x="285" y="110" type="curve" smooth="yes"/>
      <point x="208" y="110"/>
      <point x="166" y="151"/>
      <point x="135" y="208" type="curve"/>
      <point x="24" y="122" type="line"/>
      <point x="69" y="52"/>
      <point x="142" y="-12"/>
      <point x="282" y="-12" type="curve" smooth="yes"/>
      <point x="447" y="-12"/>
      <point x="555" y="69"/>
      <point x="555" y="194" type="curve" smooth="yes"/>
      <point x="555" y="290"/>
      <point x="491" y="347"/>
      <point x="406" y="362" type="curve"/>
      <point x="406" y="368" type="line"/>
      <point x="480" y="381"/>
      <point x="542" y="436"/>
      <point x="542" y="525" type="curve" smooth="yes" name="hr01"/>
      <point x="542" y="637"/>
      <point x="443" y="710"/>
      <point x="292" y="710" type="curve" smooth="yes"/>
      <point x="170" y="710"/>
      <point x="101" y="662"/>
      <point x="47" y="593" type="curve"/>
      <point x="142" y="505" type="line"/>
      <point x="177" y="558"/>
      <point x="229" y="588"/>
      <point x="286" y="588" type="curve" smooth="yes"/>
      <point x="348" y="588"/>
      <point x="384" y="555"/>
      <point x="384" y="505" type="curve" smooth="yes"/>
      <point x="384" y="498" type="line" smooth="yes"/>
      <point x="384" y="455"/>
      <point x="350" y="422"/>
      <point x="273" y="422" type="curve" smooth="yes"/>
    </contour>
  </outline>
</glyph>
<glyph name="four" format="1">
  <advance width="600"/>
  <unicode hex="0034"/>
  <outline>
    <contour>
      <point x="483" y="0" type="line" name="hr00"/>
      <point x="483" y="134" type="line"/>
      <point x="573" y="134" type="line"/>
      <point x="573" y="250" type="line"/>
      <point x="483" y="250" type="line"/>
      <point x="483" y="698" type="line"/>
      <point x="303" y="698" type="line"/>
      <point x="25" y="262" type="line"/>
      <point x="25" y="134" type="line"/>
      <point x="339" y="134" type="line"/>
      <point x="339" y="0" type="line"/>
    </contour>
    <contour>
      <point x="330" y="543" type="line"/>
      <point x="339" y="543" type="line"/>
      <point x="339" y="250" type="line"/>
      <point x="146" y="250" type="line"/>
    </contour>
  </outline>
</glyph>
<glyph name="five" format="1">
  <advance width="600"/>
  <unicode hex="0035"/>
  <outline>
    <contour>
      <point x="525" y="698" type="line" name="hr00"/>
      <point x="92" y="698" type="line"/>
      <point x="66" y="303" type="line"/>
      <point x="189" y="286" type="line"/>
      <point x="208" y="307"/>
      <point x="244" y="335"/>
      <point x="300" y="335" type="curve" smooth="yes"/>
      <point x="367" y="335"/>
      <point x="409" y="295"/>
      <point x="409" y="230" type="curve" smooth="yes"/>
      <point x="409" y="222" type="line" smooth="yes"/>
      <point x="409" y="154"/>
      <point x="370" y="110"/>
      <point x="296" y="110" type="curve"/>
      <point x="222" y="110"/>
      <point x="182" y="154"/>
      <point x="151" y="208" type="curve"/>
      <point x="42" y="122" type="line"/>
      <point x="85" y="52"/>
      <point x="158" y="-12"/>
      <point x="295" y="-12" type="curve" smooth="yes"/>
      <point x="469" y="-12"/>
      <point x="567" y="93"/>
      <point x="567" y="234" type="curve" smooth="yes"/>
      <point x="567" y="374"/>
      <point x="469" y="456"/>
      <point x="354" y="456" type="curve" smooth="yes"/>
      <point x="268" y="456"/>
      <point x="224" y="411"/>
      <point x="195" y="346" type="curve"/>
      <point x="186" y="346" type="line"/>
      <point x="202" y="567" type="line"/>
      <point x="525" y="567" type="line"/>
    </contour>
  </outline>
</glyph>
<glyph name="six" format="1">
  <advance width="600"/>
  <unicode hex="0036"/>
  <outline>
    <contour>
      <point x="304" y="-12" type="curve" smooth="yes" name="hr00"/>
      <point x="465" y="-12"/>
      <point x="569" y="90"/>
      <point x="569" y="232" type="curve" smooth="yes"/>
      <point x="569" y="365"/>
      <point x="479" y="450"/>
      <point x="362" y="450" type="curve" smooth="yes"/>
      <point x="271" y="450"/>
      <point x="229" y="398"/>
      <point x="204" y="345" type="curve"/>
      <point x="195" y="348" type="line"/>
      <point x="224" y="483"/>
      <point x="327" y="577"/>
      <point x="500" y="698" type="curve"/>
      <point x="293" y="698" type="line"/>
      <point x="172" y="617"/>
      <point x="38" y="461"/>
      <point x="38" y="265" type="curve" smooth="yes"/>
      <point x="38" y="97"/>
      <point x="136" y="-12"/>
    </contour>
    <contour>
      <point x="303" y="105" type="curve"/>
      <point x="232" y="105"/>
      <point x="194" y="145"/>
      <point x="194" y="214" type="curve" smooth="yes"/>
      <point x="194" y="228" type="line" smooth="yes"/>
      <point x="194" y="297"/>
      <point x="235" y="335"/>
      <point x="303" y="335" type="curve" smooth="yes"/>
      <point x="373" y="335"/>
      <point x="413" y="297"/>
      <point x="413" y="228" type="curve" smooth="yes"/>
      <point x="413" y="214" type="line" smooth="yes"/>
      <point x="413" y="145"/>
      <point x="375" y="105"/>
    </contour>
  </outline>
</glyph>
<glyph name="seven" format="1">
  <advance width="600"/>
  <unicode hex="0037"/>
  <outline>
    <contour>
      <point x="322" y="0" type="line" name="hr00"/>
      <point x="553" y="568" type="line"/>
      <point x="553" y="698" type="line"/>
      <point x="51" y="698" type="line"/>
      <point x="51" y="449" type="line"/>
      <point x="178" y="449" type="line"/>
      <point x="178" y="576" type="line"/>
      <point x="404" y="576" type="line"/>
      <point x="164" y="0" type="line"/>
    </contour>
  </outline>
</glyph>
<glyph name="eight" format="1">
  <advance width="600"/>
  <unicode hex="0038"/>
  <outline>
    <contour>
      <point x="300" y="-12" type="curve" smooth="yes"/>
      <point x="468" y="-12"/>
      <point x="564" y="74"/>
      <point x="564" y="192" type="curve" smooth="yes"/>
      <point x="564" y="282"/>
      <point x="506" y="338"/>
      <point x="425" y="360" type="curve"/>
      <point x="425" y="368" type="line"/>
      <point x="494" y="393"/>
      <point x="543" y="445"/>
      <point x="543" y="526" type="curve" smooth="yes" name="hr01"/>
      <point x="543" y="633"/>
      <point x="456" y="710"/>
      <point x="300" y="710" type="curve" smooth="yes"/>
      <point x="144" y="710"/>
      <point x="57" y="633"/>
      <point x="57" y="526" type="curve" smooth="yes"/>
      <point x="57" y="445"/>
      <point x="106" y="393"/>
      <point x="175" y="368" type="curve"/>
      <point x="175" y="360" type="line"/>
      <point x="94" y="338"/>
      <point x="36" y="282"/>
      <point x="36" y="192" type="curve" smooth="yes" name="hr02"/>
      <point x="36" y="74"/>
      <point x="132" y="-12"/>
    </contour>
    <contour>
      <point x="300" y="103" type="curve" smooth="yes"/>
      <point x="231" y="103"/>
      <point x="193" y="138"/>
      <point x="193" y="192" type="curve" smooth="yes"/>
      <point x="193" y="212" type="line" smooth="yes"/>
      <point x="193" y="267"/>
      <point x="230" y="301"/>
      <point x="300" y="301" type="curve" smooth="yes"/>
      <point x="370" y="301"/>
      <point x="407" y="267"/>
      <point x="407" y="212" type="curve" smooth="yes"/>
      <point x="407" y="192" type="line" smooth="yes"/>
      <point x="407" y="138"/>
      <point x="369" y="103"/>
    </contour>
    <contour>
      <point x="300" y="411" type="curve" smooth="yes"/>
      <point x="234" y="411"/>
      <point x="198" y="444"/>
      <point x="198" y="496" type="curve" smooth="yes" name="hr03"/>
      <point x="198" y="511" type="line" smooth="yes"/>
      <point x="198" y="563"/>
      <point x="235" y="595"/>
      <point x="300" y="595" type="curve" smooth="yes"/>
      <point x="365" y="595"/>
      <point x="402" y="563"/>
      <point x="402" y="511" type="curve" smooth="yes"/>
      <point x="402" y="496" type="line" smooth="yes"/>
      <point x="402" y="444"/>
      <point x="366" y="411"/>
    </contour>
  </outline>
</glyph>
<glyph name="nine" format="1">
  <advance width="600"/>
  <unicode hex="0039"/>
  <outline>
    <contour>
      <point x="562" y="433" type="curve" smooth="yes" name="hr00"/>
      <point x="562" y="601"/>
      <point x="464" y="710"/>
      <point x="296" y="710" type="curve" smooth="yes"/>
      <point x="135" y="710"/>
      <point x="31" y="608"/>
      <point x="31" y="466" type="curve" smooth="yes"/>
      <point x="31" y="333"/>
      <point x="121" y="248"/>
      <point x="238" y="248" type="curve" smooth="yes"/>
      <point x="329" y="248"/>
      <point x="371" y="300"/>
      <point x="396" y="353" type="curve"/>
      <point x="405" y="350" type="line"/>
      <point x="376" y="215"/>
      <point x="273" y="121"/>
      <point x="100" y="0" type="curve"/>
      <point x="307" y="0" type="line"/>
      <point x="428" y="81"/>
      <point x="562" y="237"/>
    </contour>
    <contour>
      <point x="297" y="363" type="curve" smooth="yes"/>
      <point x="227" y="363"/>
      <point x="187" y="401"/>
      <point x="187" y="470" type="curve" smooth="yes"/>
      <point x="187" y="484" type="line" smooth="yes"/>
      <point x="187" y="553"/>
      <point x="225" y="593"/>
      <point x="297" y="593" type="curve" smooth="yes"/>
      <point x="368" y="593"/>
      <point x="406" y="553"/>
      <point x="406" y="484" type="curve" smooth="yes"/>
      <point x="406" y="470" type="line" smooth="yes"/>
      <point x="406" y="401"/>
      <point x="365" y="363"/>
    </contour>
  </outline>
</glyph>
<glyph name="less" format="1">
  <advance width="600"/>
  <unicode hex="003C"/>
  <outline>
    <contour>
      <point x="515" y="6" type="line" name="hr00"/>
      <point x="515" y="144" type="line"/>
      <point x="218" y="301" type="line"/>
      <point x="218" y="309" type="line"/>
      <point x="515" y="466" type="line"/>
      <point x="515" y="604" type="line"/>
      <point x="85" y="374" type="line"/>
      <point x="85" y="236" type="line"/>
    </contour>
  </outline>
</glyph>
<glyph name="equal" format="1">
  <advance width="600"/>
  <unicode hex="003D"/>
  <outline>
    <contour>
      <point x="538" y="361" type="line" name="hr00"/>
      <point x="538" y="479" type="line"/>
      <point x="62" y="479" type="line"/>
      <point x="62" y="361" type="line"/>
    </contour>
    <contour>
      <point x="538" y="131" type="line"/>
      <point x="538" y="249" type="line"/>
      <point x="62" y="249" type="line"/>
      <point x="62" y="131" type="line"/>
    </contour>
  </outline>
</glyph>
<glyph name="greater" format="1">
  <advance width="600"/>
  <unicode hex="003E"/>
  <outline>
    <contour>
      <point x="85" y="6" type="line" name="hr00"/>
      <point x="515" y="236" type="line"/>
      <point x="515" y="374" type="line"/>
      <point x="85" y="604" type="line"/>
      <point x="85" y="466" type="line"/>
      <point x="382" y="309" type="line"/>
      <point x="382" y="301" type="line"/>
      <point x="85" y="144" type="line"/>
    </contour>
  </outline>
</glyph>
<glyph name="question" format="1">
  <advance width="600"/>
  <unicode hex="003F"/>
  <outline>
    <contour>
      <point x="348" y="233" type="line"/>
      <point x="348" y="305" type="line"/>
      <point x="444" y="321"/>
      <point x="527" y="392"/>
      <point x="527" y="505" type="curve" smooth="yes"/>
      <point x="527" y="626"/>
      <point x="433" y="710"/>
      <point x="291" y="710" type="curve" smooth="yes"/>
      <point x="153" y="710"/>
      <point x="84" y="630"/>
      <point x="61" y="550" type="curve"/>
      <point x="183" y="499" type="line"/>
      <point x="196" y="549"/>
      <point x="232" y="584"/>
      <point x="286" y="584" type="curve" smooth="yes"/>
      <point x="334" y="584"/>
      <point x="371" y="561"/>
      <point x="371" y="506" type="curve" smooth="yes"/>
      <point x="371" y="492" type="line" smooth="yes"/>
      <point x="371" y="416"/>
      <point x="308" y="390"/>
      <point x="208" y="386" type="curve"/>
      <point x="208" y="233" type="line"/>
    </contour>
    <contour>
      <point x="280" y="-12" type="curve" smooth="yes"/>
      <point x="351" y="-12"/>
      <point x="379" y="23"/>
      <point x="379" y="66" type="curve" smooth="yes" name="hr01"/>
      <point x="379" y="98" type="line" smooth="yes"/>
      <point x="379" y="140"/>
      <point x="351" y="175"/>
      <point x="280" y="175" type="curve" smooth="yes"/>
      <point x="210" y="175"/>
      <point x="182" y="140"/>
      <point x="182" y="98" type="curve" smooth="yes"/>
      <point x="182" y="66" type="line" smooth="yes"/>
      <point x="182" y="23"/>
      <point x="210" y="-12"/>
    </contour>
  </outline>
</glyph>
<glyph name="at" format="1">
  <advance width="600"/>
  <unicode hex="0040"/>
  <outline>
    <contour>
      <point x="446" y="-17" type="line" name="hr00"/>
      <point x="341" y="-17" type="line" smooth="yes"/>
      <point x="203" y="-17"/>
      <point x="150" y="74"/>
      <point x="150" y="229" type="curve" smooth="yes"/>
      <point x="150" y="358" type="line" smooth="yes"/>
      <point x="150" y="559"/>
      <point x="209" y="615"/>
      <point x="307" y="615" type="curve" smooth="yes"/>
      <point x="390" y="615"/>
      <point x="446" y="576"/>
      <point x="446" y="463" type="curve" smooth="yes"/>
      <point x="446" y="436" type="line"/>
      <point x="439" y="436" type="line"/>
      <point x="424" y="485"/>
      <point x="391" y="509"/>
      <point x="345" y="509" type="curve" smooth="yes"/>
      <point x="267" y="509"/>
      <point x="221" y="442"/>
      <point x="221" y="294" type="curve" smooth="yes"/>
      <point x="221" y="146"/>
      <point x="267" y="79"/>
      <point x="345" y="79" type="curve" smooth="yes"/>
      <point x="391" y="79"/>
      <point x="424" y="103"/>
      <point x="439" y="152" type="curve"/>
      <point x="446" y="152" type="line"/>
      <point x="446" y="91" type="line"/>
      <point x="553" y="91" type="line"/>
      <point x="553" y="463" type="line" smooth="yes"/>
      <point x="553" y="602"/>
      <point x="474" y="710"/>
      <point x="301" y="710" type="curve" smooth="yes"/>
      <point x="132" y="710"/>
      <point x="38" y="608"/>
      <point x="38" y="305" type="curve" smooth="yes"/>
      <point x="38" y="24"/>
      <point x="119" y="-113"/>
      <point x="341" y="-113" type="curve" smooth="yes"/>
      <point x="446" y="-113" type="line"/>
    </contour>
    <contour>
      <point x="389" y="165" type="curve" smooth="yes"/>
      <point x="353" y="165"/>
      <point x="333" y="187"/>
      <point x="333" y="261" type="curve"/>
      <point x="333" y="327" type="line" smooth="yes"/>
      <point x="333" y="401"/>
      <point x="353" y="423"/>
      <point x="389" y="423" type="curve" smooth="yes"/>
      <point x="426" y="423"/>
      <point x="446" y="400"/>
      <point x="446" y="364" type="curve" smooth="yes"/>
      <point x="446" y="224" type="line" smooth="yes"/>
      <point x="446" y="188"/>
      <point x="426" y="165"/>
    </contour>
  </outline>
</glyph>
<glyph name="A" format="1">
  <advance width="600"/>
  <unicode hex="0041"/>
  <outline>
    <contour>
      <point x="595" y="0" type="line" name="hr00"/>
      <point x="406" y="698" type="line"/>
      <point x="194" y="698" type="line"/>
      <point x="5" y="0" type="line"/>
      <point x="157" y="0" type="line"/>
      <point x="200" y="168" type="line"/>
      <point x="391" y="168" type="line"/>
      <point x="435" y="0" type="line"/>
    </contour>
    <contour>
      <point x="368" y="289" type="line"/>
      <point x="224" y="289" type="line"/>
      <point x="292" y="553" type="line"/>
      <point x="300" y="553" type="line"/>
    </contour>
    <contour>
      <point x="300" y="0" type="move" name="bottom"/>
    </contour>
    <contour>
      <point x="595" y="0" type="move" name="bottomright"/>
    </contour>
    <contour>
      <point x="300" y="698" type="move" name="top"/>
    </contour>
  </outline>
</glyph>
<glyph name="B" format="1">
  <advance width="600"/>
  <unicode hex="0042"/>
  <outline>
    <contour>
      <point x="77" y="0" type="line"/>
      <point x="345" y="0" type="line" smooth="yes"/>
      <point x="477" y="0"/>
      <point x="556" y="75"/>
      <point x="556" y="192" type="curve" smooth="yes"/>
      <point x="556" y="286"/>
      <point x="506" y="338"/>
      <point x="420" y="359" type="curve"/>
      <point x="420" y="365" type="line"/>
      <point x="493" y="386"/>
      <point x="534" y="433"/>
      <point x="534" y="512" type="curve" smooth="yes" name="hr01"/>
      <point x="534" y="626"/>
      <point x="458" y="698"/>
      <point x="322" y="698" type="curve" smooth="yes"/>
      <point x="77" y="698" type="line"/>
    </contour>
    <contour>
      <point x="223" y="105" type="line"/>
      <point x="223" y="302" type="line"/>
      <point x="299" y="302" type="line" smooth="yes"/>
      <point x="370" y="302"/>
      <point x="403" y="281"/>
      <point x="403" y="218" type="curve" smooth="yes" name="hr02"/>
      <point x="403" y="189" type="line" smooth="yes"/>
      <point x="403" y="125"/>
      <point x="370" y="105"/>
      <point x="299" y="105" type="curve" smooth="yes"/>
    </contour>
    <contour>
      <point x="223" y="402" type="line"/>
      <point x="223" y="593" type="line"/>
      <point x="280" y="593" type="line" smooth="yes"/>
      <point x="350" y="593"/>
      <point x="381" y="574"/>
      <point x="381" y="513" type="curve" smooth="yes" name="hr03"/>
      <point x="381" y="483" type="line" smooth="yes"/>
      <point x="381" y="422"/>
      <point x="350" y="402"/>
      <point x="280" y="402" type="curve" smooth="yes"/>
    </contour>
    <contour>
      <point x="300" y="0" type="move" name="bottom"/>
    </contour>
    <contour>
      <point x="295" y="698" type="move" name="top"/>
    </contour>
  </outline>
</glyph>
<glyph name="C" format="1">
  <advance width="600"/>
  <unicode hex="0043"/>
  <outline>
    <contour>
      <point x="316" y="-12" type="curve" smooth="yes" name="hr00"/>
      <point x="460" y="-12"/>
      <point x="535" y="67"/>
      <point x="563" y="189" type="curve"/>
      <point x="423" y="223" type="line"/>
      <point x="408" y="157"/>
      <point x="383" y="109"/>
      <point x="313" y="109" type="curve" smooth="yes"/>
      <point x="232" y="109"/>
      <point x="201" y="177"/>
      <point x="201" y="288" type="curve" smooth="yes"/>
      <point x="201" y="410" type="line"/>
      <point x="201" y="521"/>
      <point x="232" y="589"/>
      <point x="313" y="589" type="curve" smooth="yes"/>
      <point x="383" y="589"/>
      <point x="408" y="541"/>
      <point x="423" y="475" type="curve"/>
      <point x="563" y="509" type="line"/>
      <point x="535" y="631"/>
      <point x="460" y="710"/>
      <point x="316" y="710" type="curve" smooth="yes"/>
      <point x="129" y="710"/>
      <point x="41" y="578"/>
      <point x="41" y="349" type="curve" smooth="yes"/>
      <point x="41" y="120"/>
      <point x="129" y="-12"/>
    </contour>
    <contour>
      <point x="303" y="0" type="move" name="bottom"/>
    </contour>
    <contour>
      <point x="312" y="698" type="move" name="top"/>
    </contour>
  </outline>
</glyph>
<glyph name="D" format="1">
  <advance width="600"/>
  <unicode hex="0044"/>
  <outline>
    <contour>
      <point x="64" y="0" type="line" name="hr00"/>
      <point x="289" y="0" type="line"/>
      <point x="476" y="0"/>
      <point x="566" y="125"/>
      <point x="566" y="349" type="curve" smooth="yes"/>
      <point x="566" y="573"/>
      <point x="476" y="698"/>
      <point x="289" y="698" type="curve" smooth="yes"/>
      <point x="64" y="698" type="line"/>
    </contour>
    <contour>
      <point x="212" y="118" type="line"/>
      <point x="212" y="580" type="line"/>
      <point x="279" y="580" type="line" smooth="yes"/>
      <point x="368" y="580"/>
      <point x="408" y="521"/>
      <point x="408" y="413" type="curve" smooth="yes"/>
      <point x="408" y="286" type="line"/>
      <point x="408" y="177"/>
      <point x="368" y="118"/>
      <point x="279" y="118" type="curve" smooth="yes"/>
    </contour>
    <contour>
      <point x="278" y="0" type="move" name="bottom"/>
    </contour>
    <contour>
      <point x="278" y="698" type="move" name="top"/>
    </contour>
  </outline>
</glyph>
<glyph name="E" format="1">
  <advance width="600"/>
  <unicode hex="0045"/>
  <outline>
    <contour>
      <point x="526" y="0" type="line" name="hr00"/>
      <point x="526" y="123" type="line"/>
      <point x="230" y="123" type="line"/>
      <point x="230" y="292" type="line"/>
      <point x="516" y="292" type="line"/>
      <point x="516" y="415" type="line"/>
      <point x="230" y="415" type="line"/>
      <point x="230" y="575" type="line"/>
      <point x="526" y="575" type="line"/>
      <point x="526" y="698" type="line"/>
      <point x="80" y="698" type="line"/>
      <point x="80" y="0" type="line"/>
    </contour>
    <contour>
      <point x="303" y="0" type="move" name="bottom"/>
    </contour>
    <contour>
      <point x="526" y="0" type="move" name="bottomright"/>
    </contour>
    <contour>
      <point x="303" y="698" type="move" name="top"/>
    </contour>
  </outline>
</glyph>
<glyph name="F" format="1">
  <advance width="600"/>
  <unicode hex="0046"/>
  <outline>
    <contour>
      <point x="230" y="0" type="line" name="hr00"/>
      <point x="230" y="292" type="line"/>
      <point x="510" y="292" type="line"/>
      <point x="510" y="415" type="line"/>
      <point x="230" y="415" type="line"/>
      <point x="230" y="575" type="line"/>
      <point x="543" y="575" type="line"/>
      <point x="543" y="698" type="line"/>
      <point x="80" y="698" type="line"/>
      <point x="80" y="0" type="line"/>
    </contour>
    <contour>
      <point x="151" y="0" type="move" name="bottom"/>
    </contour>
    <contour>
      <point x="311" y="698" type="move" name="top"/>
    </contour>
  </outline>
</glyph>
<glyph name="G" format="1">
  <advance width="600"/>
  <unicode hex="0047"/>
  <outline>
    <contour>
      <point x="411" y="0" type="line"/>
      <point x="545" y="0" type="line"/>
      <point x="545" y="373" type="line"/>
      <point x="292" y="373" type="line"/>
      <point x="292" y="267" type="line"/>
      <point x="411" y="267" type="line"/>
      <point x="411" y="216" type="line" smooth="yes"/>
      <point x="411" y="154"/>
      <point x="377" y="109"/>
      <point x="310" y="109" type="curve" smooth="yes" name="hr01"/>
      <point x="223" y="109"/>
      <point x="194" y="183"/>
      <point x="194" y="296" type="curve" smooth="yes"/>
      <point x="194" y="410" type="line" smooth="yes"/>
      <point x="194" y="522"/>
      <point x="222" y="589"/>
      <point x="298" y="589" type="curve" smooth="yes"/>
      <point x="367" y="589"/>
      <point x="390" y="534"/>
      <point x="405" y="475" type="curve"/>
      <point x="545" y="509" type="line"/>
      <point x="517" y="629"/>
      <point x="445" y="710"/>
      <point x="301" y="710" type="curve" smooth="yes"/>
      <point x="120" y="710"/>
      <point x="35" y="580"/>
      <point x="35" y="343" type="curve" smooth="yes"/>
      <point x="35" y="121"/>
      <point x="109" y="-12"/>
      <point x="246" y="-12" type="curve" smooth="yes"/>
      <point x="332" y="-12"/>
      <point x="379" y="41"/>
      <point x="402" y="99" type="curve" name="hr02"/>
      <point x="411" y="99" type="line"/>
    </contour>
    <contour>
      <point x="298" y="0" type="move" name="bottom"/>
    </contour>
    <contour>
      <point x="301" y="698" type="move" name="top"/>
    </contour>
  </outline>
</glyph>
<glyph name="H" format="1">
  <advance width="600"/>
  <unicode hex="0048"/>
  <outline>
    <contour>
      <point x="388" y="0" type="line" name="hr00"/>
      <point x="539" y="0" type="line"/>
      <point x="539" y="698" type="line"/>
      <point x="388" y="698" type="line"/>
      <point x="388" y="415" type="line"/>
      <point x="212" y="415" type="line"/>
      <point x="212" y="698" type="line"/>
      <point x="61" y="698" type="line"/>
      <point x="61" y="0" type="line"/>
      <point x="212" y="0" type="line"/>
      <point x="212" y="292" type="line"/>
      <point x="388" y="292" type="line"/>
    </contour>
    <contour>
      <point x="300" y="0" type="move" name="bottom"/>
    </contour>
    <contour>
      <point x="300" y="698" type="move" name="top"/>
    </contour>
  </outline>
</glyph>
<glyph name="I" format="1">
  <advance width="600"/>
  <unicode hex="0049"/>
  <outline>
    <contour>
      <point x="525" y="0" type="line" name="hr00"/>
      <point x="525" y="111" type="line"/>
      <point x="375" y="111" type="line"/>
      <point x="375" y="587" type="line"/>
      <point x="525" y="587" type="line"/>
      <point x="525" y="698" type="line"/>
      <point x="75" y="698" type="line"/>
      <point x="75" y="587" type="line"/>
      <point x="225" y="587" type="line"/>
      <point x="225" y="111" type="line"/>
      <point x="75" y="111" type="line"/>
      <point x="75" y="0" type="line"/>
    </contour>
    <contour>
      <point x="300" y="0" type="move" name="bottom"/>
    </contour>
    <contour>
      <point x="525" y="0" type="move" name="bottomright"/>
    </contour>
    <contour>
      <point x="300" y="698" type="move" name="top"/>
    </contour>
  </outline>
</glyph>
<glyph name="J" format="1">
  <advance width="600"/>
  <unicode hex="004A"/>
  <outline>
    <contour>
      <point x="129" y="698" type="line" name="hr00"/>
      <point x="129" y="575" type="line"/>
      <point x="359" y="575" type="line"/>
      <point x="359" y="210" type="line" smooth="yes"/>
      <point x="359" y="142"/>
      <point x="329" y="110"/>
      <point x="278" y="110" type="curve" smooth="yes"/>
      <point x="218" y="110"/>
      <point x="191" y="152"/>
      <point x="180" y="211" type="curve"/>
      <point x="38" y="182" type="line"/>
      <point x="60" y="66"/>
      <point x="135" y="-12"/>
      <point x="278" y="-12" type="curve" smooth="yes"/>
      <point x="420" y="-12"/>
      <point x="511" y="69"/>
      <point x="511" y="195" type="curve" smooth="yes"/>
      <point x="511" y="698" type="line"/>
    </contour>
    <contour>
      <point x="275" y="0" type="move" name="bottom"/>
    </contour>
    <contour>
      <point x="321" y="698" type="move" name="top"/>
    </contour>
  </outline>
</glyph>
<glyph name="K" format="1">
  <advance width="600"/>
  <unicode hex="004B"/>
  <outline>
    <contour>
      <point x="434" y="0" type="line" name="hr00"/>
      <point x="603" y="0" type="line"/>
      <point x="384" y="403" type="line"/>
      <point x="593" y="698" type="line"/>
      <point x="425" y="698" type="line"/>
      <point x="302" y="522" type="line"/>
      <point x="226" y="406" type="line"/>
      <point x="218" y="406" type="line"/>
      <point x="218" y="698" type="line"/>
      <point x="68" y="698" type="line"/>
      <point x="68" y="0" type="line"/>
      <point x="218" y="0" type="line"/>
      <point x="218" y="204" type="line"/>
      <point x="280" y="291" type="line"/>
    </contour>
    <contour>
      <point x="325" y="0" type="move" name="bottom"/>
    </contour>
    <contour>
      <point x="317" y="698" type="move" name="top"/>
    </contour>
  </outline>
</glyph>
<glyph name="L" format="1">
  <advance width="600"/>
  <unicode hex="004C"/>
  <outline>
    <contour>
      <point x="543" y="0" type="line" name="hr00"/>
      <point x="543" y="123" type="line"/>
      <point x="243" y="123" type="line"/>
      <point x="243" y="698" type="line"/>
      <point x="92" y="698" type="line"/>
      <point x="92" y="0" type="line"/>
    </contour>
    <contour>
      <point x="317" y="0" type="move" name="bottom"/>
    </contour>
    <contour>
      <point x="167" y="698" type="move" name="top"/>
    </contour>
    <contour>
      <point x="320" y="740" type="move" name="topright"/>
    </contour>
  </outline>
</glyph>
<glyph name="M" format="1">
  <advance width="600"/>
  <unicode hex="004D"/>
  <outline>
    <contour>
      <point x="431" y="0" type="line" name="hr00"/>
      <point x="561" y="0" type="line"/>
      <point x="561" y="698" type="line"/>
      <point x="396" y="698" type="line"/>
      <point x="310" y="463" type="line"/>
      <point x="302" y="463" type="line"/>
      <point x="216" y="698" type="line"/>
      <point x="39" y="698" type="line"/>
      <point x="39" y="0" type="line"/>
      <point x="169" y="0" type="line"/>
      <point x="169" y="311" type="line"/>
      <point x="161" y="506" type="line"/>
      <point x="170" y="506" type="line"/>
      <point x="300" y="147" type="line"/>
      <point x="430" y="506" type="line"/>
      <point x="439" y="506" type="line"/>
      <point x="431" y="311" type="line"/>
    </contour>
    <contour>
      <point x="300" y="0" type="move" name="bottom"/>
    </contour>
    <contour>
      <point x="300" y="698" type="move" name="top"/>
    </contour>
  </outline>
</glyph>
<glyph name="N" format="1">
  <advance width="600"/>
  <unicode hex="004E"/>
  <outline>
    <contour>
      <point x="359" y="0" type="line" name="hr00"/>
      <point x="539" y="0" type="line"/>
      <point x="539" y="698" type="line"/>
      <point x="411" y="698" type="line"/>
      <point x="411" y="234" type="line"/>
      <point x="400" y="234" type="line"/>
      <point x="241" y="698" type="line"/>
      <point x="61" y="698" type="line"/>
      <point x="61" y="0" type="line"/>
      <point x="189" y="0" type="line"/>
      <point x="189" y="464" type="line"/>
      <point x="200" y="464" type="line"/>
    </contour>
    <contour>
      <point x="300" y="0" type="move" name="bottom"/>
    </contour>
    <contour>
      <point x="300" y="698" type="move" name="top"/>
    </contour>
  </outline>
</glyph>
<glyph name="O" format="1">
  <advance width="600"/>
  <unicode hex="004F"/>
  <outline>
    <contour>
      <point x="300" y="-12" type="curve" smooth="yes" name="hr00"/>
      <point x="487" y="-12"/>
      <point x="573" y="121"/>
      <point x="573" y="349" type="curve" smooth="yes"/>
      <point x="573" y="577"/>
      <point x="487" y="710"/>
      <point x="300" y="710" type="curve" smooth="yes"/>
      <point x="113" y="710"/>
      <point x="27" y="577"/>
      <point x="27" y="349" type="curve" smooth="yes"/>
      <point x="27" y="121"/>
      <point x="113" y="-12"/>
    </contour>
    <contour>
      <point x="300" y="109" type="curve" smooth="yes"/>
      <point x="215" y="109"/>
      <point x="187" y="176"/>
      <point x="187" y="288" type="curve" smooth="yes"/>
      <point x="187" y="410" type="line" smooth="yes"/>
      <point x="187" y="522"/>
      <point x="215" y="589"/>
      <point x="300" y="589" type="curve" smooth="yes"/>
      <point x="385" y="589"/>
      <point x="413" y="522"/>
      <point x="413" y="410" type="curve" smooth="yes"/>
      <point x="413" y="289" type="line"/>
      <point x="413" y="176"/>
      <point x="385" y="109"/>
    </contour>
    <contour>
      <point x="300" y="0" type="move" name="bottom"/>
    </contour>
    <contour>
      <point x="300" y="698" type="move" name="top"/>
    </contour>
  </outline>
</glyph>
<glyph name="P" format="1">
  <advance width="600"/>
  <unicode hex="0050"/>
  <outline>
    <contour>
      <point x="227" y="0" type="line" name="hr00"/>
      <point x="227" y="254" type="line"/>
      <point x="346" y="254" type="line" smooth="yes"/>
      <point x="483" y="254"/>
      <point x="560" y="341"/>
      <point x="560" y="476" type="curve" smooth="yes"/>
      <point x="560" y="611"/>
      <point x="483" y="698"/>
      <point x="346" y="698" type="curve" smooth="yes"/>
      <point x="76" y="698" type="line"/>
      <point x="76" y="0" type="line"/>
    </contour>
    <contour>
      <point x="227" y="577" type="line"/>
      <point x="308" y="577" type="line" smooth="yes"/>
      <point x="378" y="577"/>
      <point x="402" y="552"/>
      <point x="402" y="491" type="curve" smooth="yes"/>
      <point x="402" y="461" type="line"/>
      <point x="402" y="400"/>
      <point x="378" y="375"/>
      <point x="308" y="375" type="curve" smooth="yes"/>
      <point x="227" y="375" type="line"/>
    </contour>
    <contour>
      <point x="151" y="0" type="move" name="bottom"/>
    </contour>
    <contour>
      <point x="300" y="698" type="move" name="top"/>
    </contour>
  </outline>
</glyph>
<glyph name="Q" format="1">
  <advance width="600"/>
  <unicode hex="0051"/>
  <outline>
    <contour>
      <point x="526" y="-84" type="line" name="hr00"/>
      <point x="365" y="-84" type="line"/>
      <point x="365" y="-6" type="line"/>
      <point x="507" y="22"/>
      <point x="573" y="149"/>
      <point x="573" y="349" type="curve" smooth="yes"/>
      <point x="573" y="577"/>
      <point x="487" y="710"/>
      <point x="300" y="710" type="curve" smooth="yes"/>
      <point x="113" y="710"/>
      <point x="27" y="577"/>
      <point x="27" y="349" type="curve" smooth="yes"/>
      <point x="27" y="149"/>
      <point x="93" y="22"/>
      <point x="235" y="-6" type="curve"/>
      <point x="235" y="-47" type="line" smooth="yes"/>
      <point x="235" y="-134"/>
      <point x="276" y="-191"/>
      <point x="384" y="-191" type="curve" smooth="yes"/>
      <point x="526" y="-191" type="line"/>
    </contour>
    <contour>
      <point x="300" y="109" type="curve" smooth="yes"/>
      <point x="215" y="109"/>
      <point x="187" y="176"/>
      <point x="187" y="288" type="curve" smooth="yes"/>
      <point x="187" y="410" type="line" smooth="yes"/>
      <point x="187" y="522"/>
      <point x="215" y="589"/>
      <point x="300" y="589" type="curve" smooth="yes"/>
      <point x="385" y="589"/>
      <point x="413" y="522"/>
      <point x="413" y="410" type="curve" smooth="yes"/>
      <point x="413" y="289" type="line" smooth="yes"/>
      <point x="413" y="176"/>
      <point x="385" y="109"/>
    </contour>
    <contour>
      <point x="300" y="698" type="move" name="top"/>
    </contour>
  </outline>
</glyph>
<glyph name="R" format="1">
  <advance width="600"/>
  <unicode hex="0052"/>
  <outline>
    <contour>
      <point x="224" y="259" type="line" name="hr00"/>
      <point x="293" y="259" type="line"/>
      <point x="410" y="0" type="line"/>
      <point x="574" y="0" type="line"/>
      <point x="437" y="279" type="line"/>
      <point x="515" y="301"/>
      <point x="560" y="378"/>
      <point x="560" y="476" type="curve" smooth="yes"/>
      <point x="560" y="611"/>
      <point x="483" y="698"/>
      <point x="346" y="698" type="curve" smooth="yes"/>
      <point x="76" y="698" type="line"/>
      <point x="76" y="0" type="line"/>
      <point x="224" y="0" type="line"/>
    </contour>
    <contour>
      <point x="224" y="375" type="line"/>
      <point x="224" y="577" type="line"/>
      <point x="310" y="577" type="line" smooth="yes"/>
      <point x="380" y="577"/>
      <point x="404" y="552"/>
      <point x="404" y="491" type="curve" smooth="yes"/>
      <point x="404" y="461" type="line" smooth="yes"/>
      <point x="404" y="400"/>
      <point x="380" y="375"/>
      <point x="310" y="375" type="curve" smooth="yes"/>
    </contour>
    <contour>
      <point x="315" y="0" type="move" name="bottom"/>
    </contour>
    <contour>
      <point x="304" y="698" type="move" name="top"/>
    </contour>
  </outline>
</glyph>
<glyph name="S" format="1">
  <advance width="600"/>
  <unicode hex="0053"/>
  <outline>
    <contour>
      <point x="289" y="-12" type="curve" smooth="yes" name="hr00"/>
      <point x="464" y="-12"/>
      <point x="556" y="84"/>
      <point x="556" y="215" type="curve" smooth="yes"/>
      <point x="556" y="325"/>
      <point x="491" y="391"/>
      <point x="379" y="411" type="curve" smooth="yes"/>
      <point x="306" y="424" type="line" smooth="yes"/>
      <point x="238" y="436"/>
      <point x="210" y="457"/>
      <point x="210" y="505" type="curve" smooth="yes"/>
      <point x="210" y="560"/>
      <point x="244" y="588"/>
      <point x="311" y="588" type="curve" smooth="yes"/>
      <point x="374" y="588"/>
      <point x="426" y="563"/>
      <point x="463" y="522" type="curve"/>
      <point x="548" y="617" type="line"/>
      <point x="499" y="674"/>
      <point x="417" y="710"/>
      <point x="310" y="710" type="curve" smooth="yes"/>
      <point x="152" y="710"/>
      <point x="59" y="632"/>
      <point x="59" y="498" type="curve" smooth="yes"/>
      <point x="59" y="396"/>
      <point x="112" y="319"/>
      <point x="237" y="298" type="curve" smooth="yes"/>
      <point x="310" y="286" type="line" smooth="yes"/>
      <point x="378" y="275"/>
      <point x="404" y="252"/>
      <point x="404" y="203" type="curve" smooth="yes"/>
      <point x="404" y="143"/>
      <point x="365" y="110"/>
      <point x="294" y="110" type="curve" smooth="yes"/>
      <point x="232" y="110"/>
      <point x="169" y="136"/>
      <point x="118" y="192" type="curve"/>
      <point x="31" y="96" type="line"/>
      <point x="84" y="30"/>
      <point x="173" y="-12"/>
    </contour>
    <contour>
      <point x="292" y="0" type="move" name="bottom"/>
    </contour>
    <contour>
      <point x="305" y="698" type="move" name="top"/>
    </contour>
  </outline>
</glyph>
<glyph name="T" format="1">
  <advance width="600"/>
  <unicode hex="0054"/>
  <outline>
    <contour>
      <point x="576" y="575" type="line" name="hr00"/>
      <point x="576" y="698" type="line"/>
      <point x="24" y="698" type="line"/>
      <point x="24" y="575" type="line"/>
      <point x="225" y="575" type="line"/>
      <point x="225" y="0" type="line"/>
      <point x="375" y="0" type="line"/>
      <point x="375" y="575" type="line"/>
    </contour>
    <contour>
      <point x="300" y="0" type="move" name="bottom"/>
    </contour>
    <contour>
      <point x="300" y="698" type="move" name="top"/>
    </contour>
  </outline>
</glyph>
<glyph name="U" format="1">
  <advance width="600"/>
  <unicode hex="0055"/>
  <outline>
    <contour>
      <point x="55" y="698" type="line" name="hr00"/>
      <point x="55" y="276" type="line" smooth="yes"/>
      <point x="55" y="85"/>
      <point x="97" y="-12"/>
      <point x="300" y="-12" type="curve" smooth="yes"/>
      <point x="503" y="-12"/>
      <point x="545" y="85"/>
      <point x="545" y="276" type="curve" smooth="yes"/>
      <point x="545" y="698" type="line"/>
      <point x="395" y="698" type="line"/>
      <point x="395" y="256" type="line" smooth="yes"/>
      <point x="395" y="167"/>
      <point x="388" y="109"/>
      <point x="300" y="109" type="curve" smooth="yes"/>
      <point x="212" y="109"/>
      <point x="205" y="167"/>
      <point x="205" y="256" type="curve" smooth="yes"/>
      <point x="205" y="698" type="line"/>
    </contour>
    <contour>
      <point x="300" y="0" type="move" name="bottom"/>
    </contour>
    <contour>
      <point x="404" y="0" type="move" name="bottomright"/>
    </contour>
    <contour>
      <point x="300" y="698" type="move" name="top"/>
    </contour>
  </outline>
</glyph>
<glyph name="V" format="1">
  <advance width="600"/>
  <unicode hex="0056"/>
  <outline>
    <contour>
      <point x="406" y="0" type="line" name="hr00"/>
      <point x="591" y="698" type="line"/>
      <point x="432" y="698" type="line"/>
      <point x="349" y="343" type="line"/>
      <point x="307" y="142" type="line"/>
      <point x="299" y="142" type="line"/>
      <point x="258" y="343" type="line"/>
      <point x="176" y="698" type="line"/>
      <point x="9" y="698" type="line"/>
      <point x="194" y="0" type="line"/>
    </contour>
    <contour>
      <point x="300" y="0" type="move" name="bottom"/>
    </contour>
    <contour>
      <point x="300" y="698" type="move" name="top"/>
    </contour>
  </outline>
</glyph>
<glyph name="W" format="1">
  <advance width="600"/>
  <unicode hex="0057"/>
  <outline>
    <contour>
      <point x="244" y="0" type="line" name="hr00"/>
      <point x="295" y="385" type="line"/>
      <point x="305" y="385" type="line"/>
      <point x="356" y="0" type="line"/>
      <point x="546" y="0" type="line"/>
      <point x="589" y="698" type="line"/>
      <point x="465" y="698" type="line"/>
      <point x="445" y="276" type="line"/>
      <point x="439" y="148" type="line"/>
      <point x="430" y="148" type="line"/>
      <point x="370" y="546" type="line"/>
      <point x="235" y="546" type="line"/>
      <point x="175" y="148" type="line"/>
      <point x="166" y="148" type="line"/>
      <point x="160" y="280" type="line"/>
      <point x="140" y="698" type="line"/>
      <point x="11" y="698" type="line"/>
      <point x="54" y="0" type="line"/>
    </contour>
    <contour>
      <point x="300" y="0" type="move" name="bottom"/>
    </contour>
    <contour>
      <point x="300" y="698" type="move" name="top"/>
    </contour>
  </outline>
</glyph>
<glyph name="X" format="1">
  <advance width="600"/>
  <unicode hex="0058"/>
  <outline>
    <contour>
      <point x="395" y="359" type="line" name="hr00"/>
      <point x="578" y="698" type="line"/>
      <point x="421" y="698" type="line"/>
      <point x="361" y="587" type="line"/>
      <point x="309" y="475" type="line"/>
      <point x="301" y="475" type="line"/>
      <point x="250" y="587" type="line"/>
      <point x="193" y="698" type="line"/>
      <point x="22" y="698" type="line"/>
      <point x="205" y="361" type="line"/>
      <point x="9" y="0" type="line"/>
      <point x="166" y="0" type="line"/>
      <point x="240" y="139" type="line"/>
      <point x="290" y="249" type="line"/>
      <point x="299" y="249" type="line"/>
      <point x="348" y="139" type="line"/>
      <point x="420" y="0" type="line"/>
      <point x="591" y="0" type="line"/>
    </contour>
    <contour>
      <point x="300" y="0" type="move" name="bottom"/>
    </contour>
    <contour>
      <point x="300" y="698" type="move" name="top"/>
    </contour>
  </outline>
</glyph>
<glyph name="Y" format="1">
  <advance width="600"/>
  <unicode hex="0059"/>
  <outline>
    <contour>
      <point x="375" y="0" type="line" name="hr00"/>
      <point x="375" y="247" type="line"/>
      <point x="596" y="698" type="line"/>
      <point x="435" y="698" type="line"/>
      <point x="361" y="536" type="line"/>
      <point x="307" y="399" type="line"/>
      <point x="299" y="399" type="line"/>
      <point x="245" y="536" type="line"/>
      <point x="171" y="698" type="line"/>
      <point x="4" y="698" type="line"/>
      <point x="225" y="247" type="line"/>
      <point x="225" y="0" type="line"/>
    </contour>
    <contour>
      <point x="300" y="0" type="move" name="bottom"/>
    </contour>
    <contour>
      <point x="300" y="698" type="move" name="top"/>
    </contour>
  </outline>
</glyph>
<glyph name="Z" format="1">
  <advance width="600"/>
  <unicode hex="005A"/>
  <outline>
    <contour>
      <point x="551" y="123" type="line" name="hr00"/>
      <point x="216" y="123" type="line"/>
      <point x="541" y="567" type="line"/>
      <point x="541" y="698" type="line"/>
      <point x="58" y="698" type="line"/>
      <point x="58" y="575" type="line"/>
      <point x="373" y="575" type="line"/>
      <point x="48" y="131" type="line"/>
      <point x="48" y="0" type="line"/>
      <point x="551" y="0" type="line"/>
    </contour>
    <contour>
      <point x="299" y="0" type="move" name="bottom"/>
    </contour>
    <contour>
      <point x="300" y="698" type="move" name="top"/>
    </contour>
  </outline>
</glyph>
<glyph name="bracketleft" format="1">
  <advance width="600"/>
  <unicode hex="005B"/>
  <outline>
    <contour>
      <point x="507" y="-138" type="line" name="hr00"/>
      <point x="507" y="-39" type="line"/>
      <point x="302" y="-39" type="line"/>
      <point x="302" y="661" type="line"/>
      <point x="507" y="661" type="line"/>
      <point x="507" y="760" type="line"/>
      <point x="183" y="760" type="line"/>
      <point x="183" y="-138" type="line"/>
    </contour>
  </outline>
</glyph>
<glyph name="bracketright" format="1">
  <advance width="600"/>
  <unicode hex="005D"/>
  <outline>
    <contour>
      <point x="93" y="760" type="line" name="hr00"/>
      <point x="93" y="661" type="line"/>
      <point x="298" y="661" type="line"/>
      <point x="298" y="-39" type="line"/>
      <point x="93" y="-39" type="line"/>
      <point x="93" y="-138" type="line"/>
      <point x="417" y="-138" type="line"/>
      <point x="417" y="760" type="line"/>
    </contour>
  </outline>
</glyph>
<glyph name="asciicircum" format="1">
  <advance width="600"/>
  <unicode hex="005E"/>
  <outline>
    <contour>
      <point x="573" y="293" type="line" name="hr00"/>
      <point x="379" y="698" type="line"/>
      <point x="222" y="698" type="line"/>
      <point x="27" y="293" type="line"/>
      <point x="138" y="239" type="line"/>
      <point x="291" y="562" type="line"/>
      <point x="303" y="562" type="line"/>
      <point x="456" y="239" type="line"/>
    </contour>
  </outline>
</glyph>
<glyph name="underscore" format="1">
  <advance width="600"/>
  <unicode hex="005F"/>
  <outline>
    <contour>
      <point x="540" y="-192" type="line" name="hr00"/>
      <point x="540" y="-71" type="line"/>
      <point x="60" y="-71" type="line"/>
      <point x="60" y="-192" type="line"/>
    </contour>
  </outline>
</glyph>
<glyph name="grave" format="1">
  <advance width="600"/>
  <unicode hex="0060"/>
  <outline>
    <contour>
      <point x="284" y="570" type="line" name="hr00"/>
      <point x="372" y="613" type="line"/>
      <point x="273" y="807" type="line"/>
      <point x="150" y="746" type="line"/>
    </contour>
    <contour>
      <point x="300" y="516" type="move" name="_top"/>
    </contour>
  </outline>
</glyph>
<glyph name="a" format="1">
  <advance width="600"/>
  <unicode hex="0061"/>
  <outline>
    <contour>
      <point x="572" y="0" type="line"/>
      <point x="572" y="107" type="line"/>
      <point x="515" y="107" type="line"/>
      <point x="515" y="333" type="line" smooth="yes"/>
      <point x="515" y="463"/>
      <point x="431" y="528"/>
      <point x="290" y="528" type="curve" smooth="yes"/>
      <point x="175" y="528"/>
      <point x="100" y="485"/>
      <point x="66" y="427" type="curve"/>
      <point x="147" y="355" type="line"/>
      <point x="175" y="393"/>
      <point x="211" y="420"/>
      <point x="273" y="420" type="curve" smooth="yes"/>
      <point x="341" y="420"/>
      <point x="367" y="388"/>
      <point x="367" y="327" type="curve" smooth="yes"/>
      <point x="367" y="301" type="line"/>
      <point x="284" y="301" type="line" smooth="yes"/>
      <point x="133" y="301"/>
      <point x="52" y="250"/>
      <point x="52" y="142" type="curve" smooth="yes"/>
      <point x="52" y="45"/>
      <point x="118" y="-12"/>
      <point x="218" y="-12" type="curve" smooth="yes" name="hr01"/>
      <point x="297" y="-12"/>
      <point x="357" y="24"/>
      <point x="375" y="91" type="curve"/>
      <point x="380" y="91" type="line"/>
      <point x="386" y="33"/>
      <point x="426" y="0"/>
      <point x="487" y="0" type="curve" smooth="yes" name="hr02"/>
    </contour>
    <contour>
      <point x="274" y="85" type="curve" smooth="yes" name="hr03"/>
      <point x="227" y="85"/>
      <point x="197" y="104"/>
      <point x="197" y="140" type="curve" smooth="yes"/>
      <point x="197" y="160" type="line" smooth="yes"/>
      <point x="197" y="200"/>
      <point x="229" y="221"/>
      <point x="288" y="221" type="curve" smooth="yes"/>
      <point x="367" y="221" type="line"/>
      <point x="367" y="159" type="line" smooth="yes"/>
      <point x="367" y="111"/>
      <point x="326" y="85"/>
    </contour>
    <contour>
      <point x="292" y="0" type="move" name="bottom"/>
    </contour>
    <contour>
      <point x="572" y="0" type="move" name="bottomright"/>
    </contour>
    <contour>
      <point x="292" y="516" type="move" name="top"/>
    </contour>
  </outline>
</glyph>
<glyph name="c" format="1">
  <advance width="600"/>
  <unicode hex="0063"/>
  <outline>
    <contour>
      <point x="321" y="-12" type="curve" smooth="yes" name="hr00"/>
      <point x="436" y="-12"/>
      <point x="506" y="39"/>
      <point x="543" y="114" type="curve"/>
      <point x="431" y="178" type="line"/>
      <point x="409" y="136"/>
      <point x="379" y="106"/>
      <point x="322" y="106" type="curve" smooth="yes"/>
      <point x="252" y="106"/>
      <point x="214" y="148"/>
      <point x="214" y="216" type="curve" smooth="yes"/>
      <point x="214" y="300" type="line" smooth="yes"/>
      <point x="214" y="368"/>
      <point x="253" y="410"/>
      <point x="320" y="410" type="curve" smooth="yes"/>
      <point x="375" y="410"/>
      <point x="403" y="380"/>
      <point x="421" y="340" type="curve"/>
      <point x="535" y="402" type="line"/>
      <point x="499" y="477"/>
      <point x="433" y="528"/>
      <point x="320" y="528" type="curve" smooth="yes"/>
      <point x="159" y="528"/>
      <point x="60" y="425"/>
      <point x="60" y="258" type="curve" smooth="yes"/>
      <point x="60" y="91"/>
      <point x="158" y="-12"/>
    </contour>
    <contour>
      <point x="301" y="0" type="move" name="bottom"/>
    </contour>
    <contour>
      <point x="314" y="516" type="move" name="top"/>
    </contour>
  </outline>
</glyph>
<glyph name="d" format="1">
  <advance width="600"/>
  <unicode hex="0064"/>
  <outline>
    <contour>
      <point x="393" y="0" type="line"/>
      <point x="541" y="0" type="line"/>
      <point x="541" y="740" type="line"/>
      <point x="393" y="740" type="line"/>
      <point x="393" y="422" type="line"/>
      <point x="386" y="422" type="line"/>
      <point x="360" y="484"/>
      <point x="316" y="528"/>
      <point x="233" y="528" type="curve" smooth="yes"/>
      <point x="119" y="528"/>
      <point x="39" y="445"/>
      <point x="39" y="258" type="curve" smooth="yes"/>
      <point x="39" y="71"/>
      <point x="119" y="-12"/>
      <point x="233" y="-12" type="curve" smooth="yes" name="hr01"/>
      <point x="316" y="-12"/>
      <point x="360" y="32"/>
      <point x="386" y="94" type="curve" name="hr02"/>
      <point x="393" y="94" type="line"/>
    </contour>
    <contour>
      <point x="297" y="103" type="curve" smooth="yes" name="hr03"/>
      <point x="231" y="103"/>
      <point x="193" y="146"/>
      <point x="193" y="218" type="curve" smooth="yes"/>
      <point x="193" y="298" type="line"/>
      <point x="193" y="370"/>
      <point x="231" y="413"/>
      <point x="297" y="413" type="curve" smooth="yes"/>
      <point x="349" y="413"/>
      <point x="393" y="388"/>
      <point x="393" y="334" type="curve"/>
      <point x="393" y="182" type="line"/>
      <point x="393" y="128"/>
      <point x="349" y="103"/>
    </contour>
    <contour>
      <point x="290" y="0" type="move" name="bottom"/>
    </contour>
    <contour>
      <point x="592" y="740" type="move" name="topright"/>
    </contour>
  </outline>
</glyph>
<glyph name="e" format="1">
  <advance width="600"/>
  <unicode hex="0065"/>
  <outline>
    <contour>
      <point x="314" y="-12" type="curve" smooth="yes" name="hr00"/>
      <point x="425" y="-12"/>
      <point x="495" y="30"/>
      <point x="535" y="79" type="curve"/>
      <point x="455" y="166" type="line"/>
      <point x="423" y="128"/>
      <point x="380" y="102"/>
      <point x="319" y="102" type="curve" smooth="yes"/>
      <point x="240" y="102"/>
      <point x="197" y="147"/>
      <point x="197" y="213" type="curve" smooth="yes"/>
      <point x="197" y="222" type="line"/>
      <point x="550" y="222" type="line"/>
      <point x="550" y="266" type="line" smooth="yes"/>
      <point x="550" y="427"/>
      <point x="455" y="528"/>
      <point x="301" y="528" type="curve" smooth="yes"/>
      <point x="146" y="528"/>
      <point x="50" y="425"/>
      <point x="50" y="256" type="curve" smooth="yes"/>
      <point x="50" y="91"/>
      <point x="141" y="-12"/>
    </contour>
    <contour>
      <point x="302" y="422" type="curve" smooth="yes"/>
      <point x="366" y="422"/>
      <point x="405" y="380"/>
      <point x="405" y="313" type="curve" smooth="yes"/>
      <point x="405" y="305" type="line"/>
      <point x="197" y="305" type="line"/>
      <point x="197" y="313" type="line" smooth="yes"/>
      <point x="197" y="379"/>
      <point x="238" y="422"/>
    </contour>
    <contour>
      <point x="306" y="0" type="move" name="bottom"/>
    </contour>
    <contour>
      <point x="409" y="0" type="move" name="bottomright"/>
    </contour>
    <contour>
      <point x="301" y="516" type="move" name="top"/>
    </contour>
  </outline>
</glyph>
<glyph name="f" format="1">
  <advance width="600"/>
  <unicode hex="0066"/>
  <outline>
    <contour>
      <point x="71" y="0" type="line" name="hr00"/>
      <point x="533" y="0" type="line"/>
      <point x="533" y="115" type="line"/>
      <point x="371" y="115" type="line"/>
      <point x="371" y="401" type="line"/>
      <point x="556" y="401" type="line"/>
      <point x="556" y="516" type="line"/>
      <point x="371" y="516" type="line"/>
      <point x="371" y="625" type="line"/>
      <point x="556" y="625" type="line"/>
      <point x="556" y="740" type="line"/>
      <point x="381" y="740" type="line" smooth="yes"/>
      <point x="273" y="740"/>
      <point x="223" y="678"/>
      <point x="223" y="591" type="curve" smooth="yes"/>
      <point x="223" y="516" type="line"/>
      <point x="61" y="516" type="line"/>
      <point x="61" y="401" type="line"/>
      <point x="223" y="401" type="line"/>
      <point x="223" y="115" type="line"/>
      <point x="71" y="115" type="line"/>
    </contour>
    <contour>
      <point x="297" y="0" type="move" name="bottom"/>
    </contour>
  </outline>
</glyph>
<glyph name="h" format="1">
  <advance width="600"/>
  <unicode hex="0068"/>
  <outline>
    <contour>
      <point x="65" y="0" type="line" name="hr00"/>
      <point x="213" y="0" type="line"/>
      <point x="213" y="339" type="line"/>
      <point x="213" y="389"/>
      <point x="258" y="414"/>
      <point x="304" y="414" type="curve" smooth="yes"/>
      <point x="362" y="414"/>
      <point x="391" y="379"/>
      <point x="391" y="314" type="curve" smooth="yes"/>
      <point x="391" y="0" type="line"/>
      <point x="539" y="0" type="line"/>
      <point x="539" y="334" type="line" smooth="yes"/>
      <point x="539" y="459"/>
      <point x="470" y="528"/>
      <point x="371" y="528" type="curve" smooth="yes"/>
      <point x="288" y="528"/>
      <point x="242" y="480"/>
      <point x="219" y="422" type="curve"/>
      <point x="213" y="422" type="line"/>
      <point x="213" y="740" type="line"/>
      <point x="65" y="740" type="line"/>
    </contour>
    <contour>
      <point x="302" y="0" type="move" name="bottom"/>
    </contour>
    <contour>
      <point x="139" y="698" type="move" name="top"/>
    </contour>
  </outline>
</glyph>
<glyph name="i" format="1">
  <advance width="600"/>
  <unicode hex="0069"/>
  <outline>
    <contour>
      <point x="332" y="582" type="curve" smooth="yes"/>
      <point x="398" y="582"/>
      <point x="421" y="613"/>
      <point x="421" y="652" type="curve" smooth="yes"/>
      <point x="421" y="681" type="line" smooth="yes"/>
      <point x="421" y="721"/>
      <point x="398" y="751"/>
      <point x="332" y="751" type="curve" smooth="yes"/>
      <point x="266" y="751"/>
      <point x="243" y="721"/>
      <point x="243" y="681" type="curve" smooth="yes"/>
      <point x="243" y="652" type="line" smooth="yes"/>
      <point x="243" y="613"/>
      <point x="266" y="582"/>
    </contour>
    <contour>
      <point x="94" y="0" type="line"/>
      <point x="558" y="0" type="line"/>
      <point x="558" y="115" type="line"/>
      <point x="406" y="115" type="line" name="hr01"/>
      <point x="406" y="516" type="line"/>
      <point x="94" y="516" type="line"/>
      <point x="94" y="401" type="line"/>
      <point x="258" y="401" type="line"/>
      <point x="258" y="115" type="line"/>
      <point x="94" y="115" type="line"/>
    </contour>
    <contour>
      <point x="332" y="0" type="move" name="bottom"/>
    </contour>
    <contour>
      <point x="558" y="0" type="move" name="bottomright"/>
    </contour>
  </outline>
</glyph>
<glyph name="j" format="1">
  <advance width="600"/>
  <unicode hex="006A"/>
  <outline>
    <contour>
      <point x="92" y="-200" type="line"/>
      <point x="281" y="-200" type="line" smooth="yes"/>
      <point x="387" y="-200"/>
      <point x="438" y="-138"/>
      <point x="438" y="-51" type="curve" smooth="yes"/>
      <point x="438" y="516" type="line"/>
      <point x="90" y="516" type="line"/>
      <point x="90" y="401" type="line"/>
      <point x="290" y="401" type="line"/>
      <point x="290" y="-85" type="line"/>
      <point x="92" y="-85" type="line"/>
    </contour>
    <contour>
      <point x="364" y="582" type="curve" smooth="yes"/>
      <point x="429" y="582"/>
      <point x="453" y="613"/>
      <point x="453" y="652" type="curve" smooth="yes" name="hr01"/>
      <point x="453" y="681" type="line" smooth="yes"/>
      <point x="453" y="721"/>
      <point x="429" y="751"/>
      <point x="364" y="751" type="curve" smooth="yes"/>
      <point x="298" y="751"/>
      <point x="275" y="721"/>
      <point x="275" y="681" type="curve" smooth="yes"/>
      <point x="275" y="652" type="line" smooth="yes"/>
      <point x="275" y="613"/>
      <point x="298" y="582"/>
    </contour>
  </outline>
</glyph>
<glyph name="k" format="1">
  <advance width="600"/>
  <unicode hex="006B"/>
  <outline>
    <contour>
      <point x="65" y="0" type="line" name="hr00"/>
      <point x="213" y="0" type="line"/>
      <point x="213" y="179" type="line"/>
      <point x="262" y="228" type="line"/>
      <point x="412" y="0" type="line"/>
      <point x="588" y="0" type="line"/>
      <point x="367" y="312" type="line"/>
      <point x="567" y="516" type="line"/>
      <point x="397" y="516" type="line"/>
      <point x="289" y="401" type="line"/>
      <point x="220" y="320" type="line"/>
      <point x="213" y="320" type="line"/>
      <point x="213" y="740" type="line"/>
      <point x="65" y="740" type="line"/>
    </contour>
    <contour>
      <point x="308" y="0" type="move" name="bottom"/>
    </contour>
  </outline>
</glyph>
<glyph name="l" format="1">
  <advance width="600"/>
  <unicode hex="006C"/>
  <outline>
    <contour>
      <point x="68" y="0" type="line" name="hr00"/>
      <point x="532" y="0" type="line"/>
      <point x="532" y="115" type="line"/>
      <point x="374" y="115" type="line"/>
      <point x="374" y="740" type="line"/>
      <point x="68" y="740" type="line"/>
      <point x="68" y="625" type="line"/>
      <point x="226" y="625" type="line"/>
      <point x="226" y="115" type="line"/>
      <point x="68" y="115" type="line"/>
    </contour>
    <contour>
      <point x="300" y="0" type="move" name="bottom"/>
    </contour>
    <contour>
      <point x="300" y="698" type="move" name="top"/>
    </contour>
    <contour>
      <point x="437" y="740" type="move" name="topright"/>
    </contour>
  </outline>
</glyph>
<glyph name="m" format="1">
  <advance width="600"/>
  <unicode hex="006D"/>
  <outline>
    <contour>
      <point x="149" y="0" type="line"/>
      <point x="149" y="368" type="line"/>
      <point x="149" y="403"/>
      <point x="170" y="419"/>
      <point x="197" y="419" type="curve" smooth="yes"/>
      <point x="223" y="419"/>
      <point x="240" y="402"/>
      <point x="240" y="354" type="curve" smooth="yes"/>
      <point x="240" y="0" type="line"/>
      <point x="360" y="0" type="line"/>
      <point x="360" y="368" type="line"/>
      <point x="360" y="403"/>
      <point x="381" y="419"/>
      <point x="406" y="419" type="curve" smooth="yes"/>
      <point x="433" y="419"/>
      <point x="451" y="402"/>
      <point x="451" y="354" type="curve" smooth="yes"/>
      <point x="451" y="0" type="line"/>
      <point x="570" y="0" type="line"/>
      <point x="570" y="369" type="line" smooth="yes"/>
      <point x="570" y="475"/>
      <point x="534" y="528"/>
      <point x="462" y="528" type="curve" smooth="yes"/>
      <point x="398" y="528"/>
      <point x="369" y="487"/>
      <point x="352" y="440" type="curve"/>
      <point x="346" y="440" type="line"/>
      <point x="335" y="497"/>
      <point x="303" y="528"/>
      <point x="254" y="528" type="curve" smooth="yes"/>
      <point x="199" y="528"/>
      <point x="172" y="488"/>
      <point x="156" y="440" type="curve"/>
      <point x="149" y="440" type="line"/>
      <point x="149" y="516" type="line" name="hr01"/>
      <point x="30" y="516" type="line"/>
      <point x="30" y="0" type="line"/>
    </contour>
    <contour>
      <point x="300" y="0" type="move" name="bottom"/>
    </contour>
    <contour>
      <point x="300" y="516" type="move" name="top"/>
    </contour>
  </outline>
</glyph>
<glyph name="n" format="1">
  <advance width="600"/>
  <unicode hex="006E"/>
  <outline>
    <contour>
      <point x="213" y="0" type="line"/>
      <point x="213" y="339" type="line"/>
      <point x="213" y="389"/>
      <point x="258" y="414"/>
      <point x="304" y="414" type="curve" smooth="yes"/>
      <point x="362" y="414"/>
      <point x="391" y="379"/>
      <point x="391" y="314" type="curve" smooth="yes"/>
      <point x="391" y="0" type="line"/>
      <point x="539" y="0" type="line"/>
      <point x="539" y="334" type="line" smooth="yes"/>
      <point x="539" y="459"/>
      <point x="470" y="528"/>
      <point x="371" y="528" type="curve" smooth="yes"/>
      <point x="288" y="528"/>
      <point x="242" y="480"/>
      <point x="219" y="422" type="curve"/>
      <point x="213" y="422" type="line"/>
      <point x="213" y="516" type="line" name="hr01"/>
      <point x="65" y="516" type="line"/>
      <point x="65" y="0" type="line"/>
    </contour>
    <contour>
      <point x="302" y="0" type="move" name="bottom"/>
    </contour>
    <contour>
      <point x="302" y="516" type="move" name="top"/>
    </contour>
  </outline>
</glyph>
<glyph name="o" format="1">
  <advance width="600"/>
  <unicode hex="006F"/>
  <outline>
    <contour>
      <point x="300" y="-12" type="curve" smooth="yes" name="hr00"/>
      <point x="461" y="-12"/>
      <point x="559" y="91"/>
      <point x="559" y="258" type="curve" smooth="yes"/>
      <point x="559" y="425"/>
      <point x="461" y="528"/>
      <point x="300" y="528" type="curve" smooth="yes"/>
      <point x="139" y="528"/>
      <point x="41" y="425"/>
      <point x="41" y="258" type="curve" smooth="yes"/>
      <point x="41" y="91"/>
      <point x="139" y="-12"/>
    </contour>
    <contour>
      <point x="300" y="98" type="curve" smooth="yes"/>
      <point x="234" y="98"/>
      <point x="194" y="141"/>
      <point x="194" y="217" type="curve" smooth="yes"/>
      <point x="194" y="299" type="line"/>
      <point x="194" y="375"/>
      <point x="234" y="418"/>
      <point x="300" y="418" type="curve" smooth="yes"/>
      <point x="366" y="418"/>
      <point x="406" y="375"/>
      <point x="406" y="299" type="curve" smooth="yes"/>
      <point x="406" y="217" type="line" smooth="yes"/>
      <point x="406" y="141"/>
      <point x="366" y="98"/>
    </contour>
    <contour>
      <point x="300" y="0" type="move" name="bottom"/>
    </contour>
    <contour>
      <point x="300" y="516" type="move" name="top"/>
    </contour>
  </outline>
</glyph>
<glyph name="p" format="1">
  <advance width="600"/>
  <unicode hex="0070"/>
  <outline>
    <contour>
      <point x="59" y="-200" type="line"/>
      <point x="207" y="-200" type="line"/>
      <point x="207" y="94" type="line"/>
      <point x="214" y="94" type="line"/>
      <point x="240" y="32"/>
      <point x="284" y="-12"/>
      <point x="367" y="-12" type="curve" smooth="yes"/>
      <point x="481" y="-12"/>
      <point x="561" y="71"/>
      <point x="561" y="258" type="curve" smooth="yes"/>
      <point x="561" y="445"/>
      <point x="481" y="528"/>
      <point x="367" y="528" type="curve" smooth="yes"/>
      <point x="284" y="528"/>
      <point x="240" y="484"/>
      <point x="214" y="422" type="curve"/>
      <point x="207" y="422" type="line"/>
      <point x="207" y="516" type="line" name="hr01"/>
      <point x="59" y="516" type="line"/>
    </contour>
    <contour>
      <point x="303" y="103" type="curve" smooth="yes"/>
      <point x="251" y="103"/>
      <point x="207" y="128"/>
      <point x="207" y="182" type="curve"/>
      <point x="207" y="334" type="line"/>
      <point x="207" y="388"/>
      <point x="251" y="413"/>
      <point x="303" y="413" type="curve" smooth="yes" name="hr02"/>
      <point x="369" y="413"/>
      <point x="407" y="370"/>
      <point x="407" y="298" type="curve" smooth="yes"/>
      <point x="407" y="218" type="line"/>
      <point x="407" y="146"/>
      <point x="369" y="103"/>
    </contour>
    <contour>
      <point x="310" y="516" type="move" name="top"/>
    </contour>
  </outline>
</glyph>
<glyph name="r" format="1">
  <advance width="600"/>
  <unicode hex="0072"/>
  <outline>
    <contour>
      <point x="74" y="0" type="line"/>
      <point x="511" y="0" type="line"/>
      <point x="511" y="115" type="line"/>
      <point x="341" y="115" type="line"/>
      <point x="341" y="268" type="line" smooth="yes"/>
      <point x="341" y="330"/>
      <point x="379" y="380"/>
      <point x="452" y="380" type="curve" smooth="yes"/>
      <point x="562" y="380" type="line"/>
      <point x="562" y="516" type="line"/>
      <point x="513" y="516" type="line" smooth="yes"/>
      <point x="411" y="516"/>
      <point x="367" y="446"/>
      <point x="348" y="370" type="curve"/>
      <point x="341" y="370" type="line"/>
      <point x="341" y="516" type="line"/>
      <point x="74" y="516" type="line"/>
      <point x="74" y="401" type="line" name="hr01"/>
      <point x="193" y="401" type="line"/>
      <point x="193" y="115" type="line"/>
      <point x="74" y="115" type="line"/>
    </contour>
    <contour>
      <point x="267" y="0" type="move" name="bottom"/>
    </contour>
    <contour>
      <point x="325" y="516" type="move" name="top"/>
    </contour>
  </outline>
</glyph>
<glyph name="s" format="1">
  <advance width="600"/>
  <unicode hex="0073"/>
  <outline>
    <contour>
      <point x="294" y="-12" type="curve" smooth="yes" name="hr00"/>
      <point x="447" y="-12"/>
      <point x="534" y="56"/>
      <point x="534" y="163" type="curve" smooth="yes"/>
      <point x="534" y="261"/>
      <point x="461" y="300"/>
      <point x="368" y="314" type="curve" smooth="yes"/>
      <point x="286" y="327" type="line" smooth="yes"/>
      <point x="246" y="333"/>
      <point x="222" y="342"/>
      <point x="222" y="372" type="curve" smooth="yes"/>
      <point x="222" y="406"/>
      <point x="252" y="424"/>
      <point x="308" y="424" type="curve" smooth="yes"/>
      <point x="375" y="424"/>
      <point x="424" y="398"/>
      <point x="454" y="365" type="curve"/>
      <point x="528" y="449" type="line"/>
      <point x="485" y="499"/>
      <point x="414" y="528"/>
      <point x="313" y="528" type="curve" smooth="yes"/>
      <point x="164" y="528"/>
      <point x="77" y="463"/>
      <point x="77" y="355" type="curve" smooth="yes"/>
      <point x="77" y="257"/>
      <point x="150" y="218"/>
      <point x="242" y="204" type="curve" smooth="yes"/>
      <point x="325" y="191" type="line" smooth="yes"/>
      <point x="365" y="185"/>
      <point x="389" y="176"/>
      <point x="389" y="147" type="curve" smooth="yes"/>
      <point x="389" y="110"/>
      <point x="353" y="92"/>
      <point x="295" y="92" type="curve" smooth="yes"/>
      <point x="226" y="92"/>
      <point x="172" y="118"/>
      <point x="132" y="162" type="curve"/>
      <point x="49" y="85" type="line"/>
      <point x="91" y="25"/>
      <point x="180" y="-12"/>
    </contour>
    <contour>
      <point x="293" y="0" type="move" name="bottom"/>
    </contour>
    <contour>
      <point x="305" y="516" type="move" name="top"/>
    </contour>
  </outline>
</glyph>
<glyph name="t" format="1">
  <advance width="600"/>
  <unicode hex="0074"/>
  <outline>
    <contour>
      <point x="531" y="0" type="line" name="hr00"/>
      <point x="531" y="115" type="line"/>
      <point x="330" y="115" type="line"/>
      <point x="330" y="401" type="line"/>
      <point x="531" y="401" type="line"/>
      <point x="531" y="516" type="line"/>
      <point x="330" y="516" type="line"/>
      <point x="330" y="698" type="line"/>
      <point x="194" y="698" type="line"/>
      <point x="194" y="577" type="line" smooth="yes"/>
      <point x="194" y="531"/>
      <point x="177" y="516"/>
      <point x="133" y="516" type="curve" smooth="yes"/>
      <point x="42" y="516" type="line"/>
      <point x="42" y="401" type="line"/>
      <point x="182" y="401" type="line"/>
      <point x="182" y="149" type="line" smooth="yes"/>
      <point x="182" y="62"/>
      <point x="233" y="0"/>
      <point x="340" y="0" type="curve" smooth="yes"/>
    </contour>
    <contour>
      <point x="361" y="0" type="move" name="bottom"/>
    </contour>
    <contour>
      <point x="396" y="780" type="move" name="topright"/>
    </contour>
  </outline>
</glyph>
<glyph name="u" format="1">
  <advance width="600"/>
  <unicode hex="0075"/>
  <outline>
    <contour>
      <point x="387" y="0" type="line"/>
      <point x="535" y="0" type="line"/>
      <point x="535" y="516" type="line"/>
      <point x="387" y="516" type="line"/>
      <point x="387" y="177" type="line" smooth="yes"/>
      <point x="387" y="127"/>
      <point x="342" y="102"/>
      <point x="296" y="102" type="curve" smooth="yes" name="hr01"/>
      <point x="238" y="102"/>
      <point x="209" y="137"/>
      <point x="209" y="202" type="curve" smooth="yes"/>
      <point x="209" y="516" type="line"/>
      <point x="61" y="516" type="line"/>
      <point x="61" y="182" type="line" smooth="yes"/>
      <point x="61" y="57"/>
      <point x="130" y="-12"/>
      <point x="229" y="-12" type="curve" smooth="yes"/>
      <point x="312" y="-12"/>
      <point x="358" y="36"/>
      <point x="381" y="94" type="curve" name="hr02"/>
      <point x="387" y="94" type="line"/>
    </contour>
    <contour>
      <point x="298" y="0" type="move" name="bottom"/>
    </contour>
    <contour>
      <point x="535" y="0" type="move" name="bottomright"/>
    </contour>
    <contour>
      <point x="298" y="516" type="move" name="top"/>
    </contour>
  </outline>
</glyph>
<glyph name="v" format="1">
  <advance width="600"/>
  <unicode hex="0076"/>
  <outline>
    <contour>
      <point x="388" y="0" type="line" name="hr00"/>
      <point x="573" y="516" type="line"/>
      <point x="423" y="516" type="line"/>
      <point x="356" y="295" type="line"/>
      <point x="307" y="123" type="line"/>
      <point x="299" y="123" type="line"/>
      <point x="250" y="295" type="line"/>
      <point x="183" y="516" type="line"/>
      <point x="27" y="516" type="line"/>
      <point x="212" y="0" type="line"/>
    </contour>
    <contour>
      <point x="300" y="0" type="move" name="bottom"/>
    </contour>
    <contour>
      <point x="300" y="516" type="move" name="top"/>
    </contour>
  </outline>
</glyph>
<glyph name="w" format="1">
  <advance width="600"/>
  <unicode hex="0077"/>
  <outline>
    <contour>
      <point x="68" y="0" type="line" name="hr00"/>
      <point x="244" y="0" type="line"/>
      <point x="295" y="356" type="line"/>
      <point x="305" y="356" type="line"/>
      <point x="356" y="0" type="line"/>
      <point x="532" y="0" type="line"/>
      <point x="593" y="516" type="line"/>
      <point x="476" y="516" type="line"/>
      <point x="438" y="98" type="line"/>
      <point x="428" y="98" type="line"/>
      <point x="368" y="516" type="line"/>
      <point x="238" y="516" type="line"/>
      <point x="177" y="98" type="line"/>
      <point x="167" y="98" type="line"/>
      <point x="130" y="516" type="line"/>
      <point x="7" y="516" type="line"/>
    </contour>
    <contour>
      <point x="300" y="0" type="move" name="bottom"/>
    </contour>
    <contour>
      <point x="300" y="516" type="move" name="top"/>
    </contour>
  </outline>
</glyph>
<glyph name="x" format="1">
  <advance width="600"/>
  <unicode hex="0078"/>
  <outline>
    <contour>
      <point x="179" y="0" type="line" name="hr00"/>
      <point x="245" y="97" type="line"/>
      <point x="289" y="166" type="line"/>
      <point x="297" y="166" type="line"/>
      <point x="342" y="97" type="line"/>
      <point x="407" y="0" type="line"/>
      <point x="577" y="0" type="line"/>
      <point x="384" y="270" type="line"/>
      <point x="564" y="516" type="line"/>
      <point x="409" y="516" type="line"/>
      <point x="353" y="433" type="line"/>
      <point x="310" y="366" type="line"/>
      <point x="302" y="366" type="line"/>
      <point x="260" y="433" type="line"/>
      <point x="205" y="516" type="line"/>
      <point x="36" y="516" type="line"/>
      <point x="216" y="262" type="line"/>
      <point x="23" y="0" type="line"/>
    </contour>
    <contour>
      <point x="300" y="0" type="move" name="bottom"/>
    </contour>
    <contour>
      <point x="300" y="516" type="move" name="top"/>
    </contour>
  </outline>
</glyph>
<glyph name="y" format="1">
  <advance width="600"/>
  <unicode hex="0079"/>
  <outline>
    <contour>
      <point x="353" y="299" type="line" name="hr00"/>
      <point x="308" y="149" type="line"/>
      <point x="300" y="149" type="line"/>
      <point x="253" y="299" type="line"/>
      <point x="178" y="516" type="line"/>
      <point x="19" y="516" type="line"/>
      <point x="227" y="3" type="line"/>
      <point x="195" y="-85" type="line"/>
      <point x="71" y="-85" type="line"/>
      <point x="71" y="-200" type="line"/>
      <point x="173" y="-200" type="line" smooth="yes"/>
      <point x="261" y="-200"/>
      <point x="308" y="-158"/>
      <point x="338" y="-83" type="curve" smooth="yes"/>
      <point x="581" y="516" type="line"/>
      <point x="430" y="516" type="line"/>
    </contour>
    <contour>
      <point x="482" y="0" type="move" name="bottom"/>
    </contour>
    <contour>
      <point x="303" y="516" type="move" name="top"/>
    </contour>
  </outline>
</glyph>
<glyph name="z" format="1">
  <advance width="600"/>
  <unicode hex="007A"/>
  <outline>
    <contour>
      <point x="534" y="0" type="line" name="hr00"/>
      <point x="534" y="115" type="line"/>
      <point x="237" y="115" type="line"/>
      <point x="524" y="393" type="line"/>
      <point x="524" y="516" type="line"/>
      <point x="76" y="516" type="line"/>
      <point x="76" y="401" type="line"/>
      <point x="353" y="401" type="line"/>
      <point x="66" y="123" type="line"/>
      <point x="66" y="0" type="line"/>
    </contour>
    <contour>
      <point x="300" y="0" type="move" name="bottom"/>
    </contour>
    <contour>
      <point x="300" y="516" type="move" name="top"/>
    </contour>
  </outline>
</glyph>
<glyph name="braceleft" format="1">
  <advance width="600"/>
  <unicode hex="007B"/>
  <outline>
    <contour>
      <point x="508" y="-138" type="line"/>
      <point x="508" y="-39" type="line"/>
      <point x="323" y="-39" type="line"/>
      <point x="323" y="9" type="line" smooth="yes"/>
      <point x="323" y="59"/>
      <point x="343" y="81"/>
      <point x="363" y="107" type="curve" smooth="yes"/>
      <point x="386" y="135"/>
      <point x="410" y="166"/>
      <point x="410" y="208" type="curve" smooth="yes" name="hr01"/>
      <point x="410" y="263"/>
      <point x="372" y="298"/>
      <point x="292" y="307" type="curve"/>
      <point x="292" y="315" type="line"/>
      <point x="372" y="324"/>
      <point x="410" y="359"/>
      <point x="410" y="414" type="curve" smooth="yes"/>
      <point x="410" y="456"/>
      <point x="386" y="487"/>
      <point x="363" y="515" type="curve" smooth="yes"/>
      <point x="343" y="541"/>
      <point x="323" y="563"/>
      <point x="323" y="613" type="curve" smooth="yes" name="hr02"/>
      <point x="323" y="661" type="line"/>
      <point x="508" y="661" type="line"/>
      <point x="508" y="760" type="line"/>
      <point x="330" y="760" type="line" smooth="yes"/>
      <point x="239" y="760"/>
      <point x="204" y="715"/>
      <point x="204" y="652" type="curve" smooth="yes"/>
      <point x="204" y="607" type="line" smooth="yes"/>
      <point x="204" y="540"/>
      <point x="236" y="508"/>
      <point x="260" y="480" type="curve" smooth="yes"/>
      <point x="282" y="453"/>
      <point x="290" y="436"/>
      <point x="290" y="415" type="curve" smooth="yes" name="hr03"/>
      <point x="290" y="381"/>
      <point x="253" y="361"/>
      <point x="182" y="361" type="curve" smooth="yes"/>
      <point x="92" y="361" type="line"/>
      <point x="92" y="261" type="line"/>
      <point x="182" y="261" type="line" smooth="yes"/>
      <point x="253" y="261"/>
      <point x="290" y="241"/>
      <point x="290" y="207" type="curve" smooth="yes"/>
      <point x="290" y="186"/>
      <point x="282" y="169"/>
      <point x="260" y="142" type="curve" smooth="yes"/>
      <point x="236" y="114"/>
      <point x="204" y="82"/>
      <point x="204" y="15" type="curve" smooth="yes" name="hr04"/>
      <point x="204" y="-30" type="line" smooth="yes"/>
      <point x="204" y="-93"/>
      <point x="239" y="-138"/>
      <point x="330" y="-138" type="curve" smooth="yes"/>
    </contour>
  </outline>
</glyph>
<glyph name="bar" format="1">
  <advance width="600"/>
  <unicode hex="007C"/>
  <outline>
    <contour>
      <point x="363" y="-138" type="line" name="hr00"/>
      <point x="363" y="760" type="line"/>
      <point x="237" y="760" type="line"/>
      <point x="237" y="-138" type="line"/>
    </contour>
  </outline>
</glyph>
<glyph name="braceright" format="1">
  <advance width="600"/>
  <unicode hex="007D"/>
  <outline>
    <contour>
      <point x="92" y="760" type="line"/>
      <point x="92" y="661" type="line"/>
      <point x="277" y="661" type="line"/>
      <point x="277" y="613" type="line" smooth="yes"/>
      <point x="277" y="563"/>
      <point x="257" y="541"/>
      <point x="237" y="515" type="curve" smooth="yes"/>
      <point x="214" y="487"/>
      <point x="190" y="456"/>
      <point x="190" y="414" type="curve" smooth="yes" name="hr01"/>
      <point x="190" y="359"/>
      <point x="228" y="324"/>
      <point x="308" y="315" type="curve"/>
      <point x="308" y="307" type="line"/>
      <point x="228" y="298"/>
      <point x="190" y="263"/>
      <point x="190" y="208" type="curve" smooth="yes"/>
      <point x="190" y="166"/>
      <point x="214" y="135"/>
      <point x="237" y="107" type="curve" smooth="yes"/>
      <point x="257" y="81"/>
      <point x="277" y="59"/>
      <point x="277" y="9" type="curve" smooth="yes" name="hr02"/>
      <point x="277" y="-39" type="line"/>
      <point x="92" y="-39" type="line"/>
      <point x="92" y="-138" type="line"/>
      <point x="270" y="-138" type="line" smooth="yes"/>
      <point x="361" y="-138"/>
      <point x="396" y="-93"/>
      <point x="396" y="-30" type="curve" smooth="yes"/>
      <point x="396" y="15" type="line" smooth="yes"/>
      <point x="396" y="82"/>
      <point x="364" y="114"/>
      <point x="340" y="142" type="curve" smooth="yes"/>
      <point x="318" y="169"/>
      <point x="310" y="186"/>
      <point x="310" y="207" type="curve" smooth="yes" name="hr03"/>
      <point x="310" y="241"/>
      <point x="347" y="261"/>
      <point x="418" y="261" type="curve" smooth="yes"/>
      <point x="508" y="261" type="line"/>
      <point x="508" y="361" type="line"/>
      <point x="418" y="361" type="line" smooth="yes"/>
      <point x="347" y="361"/>
      <point x="310" y="381"/>
      <point x="310" y="415" type="curve" smooth="yes"/>
      <point x="310" y="436"/>
      <point x="318" y="453"/>
      <point x="340" y="480" type="curve" smooth="yes"/>
      <point x="364" y="508"/>
      <point x="396" y="540"/>
      <point x="396" y="607" type="curve" smooth="yes" name="hr04"/>
      <point x="396" y="652" type="line" smooth="yes"/>
      <point x="396" y="715"/>
      <point x="361" y="760"/>
      <point x="270" y="760" type="curve" smooth="yes"/>
    </contour>
  </outline>
</glyph>
<glyph name="asciitilde" format="1">
  <advance width="600"/>
  <unicode hex="007E"/>
  <outline>
    <contour>
      <point x="392" y="173" type="curve" smooth="yes" name="hr00"/>
      <point x="502" y="173"/>
      <point x="546" y="268"/>
      <point x="564" y="404" type="curve"/>
      <point x="458" y="424" type="line"/>
      <point x="446" y="344"/>
      <point x="432" y="296"/>
      <point x="399" y="296" type="curve" smooth="yes"/>
      <point x="374" y="296"/>
      <point x="363" y="322"/>
      <point x="336" y="360" type="curve" smooth="yes"/>
      <point x="300" y="410"/>
      <point x="262" y="436"/>
      <point x="208" y="436" type="curve" smooth="yes"/>
      <point x="98" y="436"/>
      <point x="54" y="341"/>
      <point x="36" y="205" type="curve"/>
      <point x="142" y="185" type="line"/>
      <point x="154" y="265"/>
      <point x="168" y="313"/>
      <point x="201" y="313" type="curve" smooth="yes"/>
      <point x="226" y="313"/>
      <point x="237" y="287"/>
      <point x="264" y="249" type="curve" smooth="yes"/>
      <point x="300" y="199"/>
      <point x="338" y="173"/>
    </contour>
  </outline>
</glyph>
<glyph name="exclamdown" format="1">
  <advance width="600"/>
  <unicode hex="00A1"/>
  <outline>
    <contour>
      <point x="381" y="-182" type="line"/>
      <point x="381" y="21" type="line"/>
      <point x="324" y="273" type="line"/>
      <point x="276" y="273" type="line"/>
      <point x="219" y="21" type="line"/>
      <point x="219" y="-182" type="line"/>
    </contour>
    <contour>
      <point x="300" y="341" type="curve" smooth="yes"/>
      <point x="371" y="341"/>
      <point x="398" y="376"/>
      <point x="398" y="418" type="curve" smooth="yes" name="hr01"/>
      <point x="398" y="450" type="line" smooth="yes"/>
      <point x="398" y="493"/>
      <point x="371" y="528"/>
      <point x="300" y="528" type="curve" smooth="yes"/>
      <point x="229" y="528"/>
      <point x="202" y="493"/>
      <point x="202" y="450" type="curve" smooth="yes"/>
      <point x="202" y="418" type="line" smooth="yes"/>
      <point x="202" y="376"/>
      <point x="229" y="341"/>
    </contour>
  </outline>
</glyph>
<glyph name="cent" format="1">
  <advance width="600"/>
  <unicode hex="00A2"/>
  <outline>
    <contour>
      <point x="372" y="-114" type="line" name="hr00"/>
      <point x="372" y="-8" type="line"/>
      <point x="457" y="5"/>
      <point x="512" y="51"/>
      <point x="543" y="114" type="curve"/>
      <point x="438" y="173" type="line"/>
      <point x="422" y="143"/>
      <point x="397" y="116"/>
      <point x="363" y="104" type="curve"/>
      <point x="363" y="411" type="line"/>
      <point x="394" y="398"/>
      <point x="415" y="372"/>
      <point x="428" y="344" type="curve"/>
      <point x="535" y="402" type="line"/>
      <point x="505" y="465"/>
      <point x="454" y="511"/>
      <point x="372" y="524" type="curve"/>
      <point x="372" y="630" type="line"/>
      <point x="258" y="630" type="line"/>
      <point x="258" y="522" type="line"/>
      <point x="134" y="499"/>
      <point x="60" y="402"/>
      <point x="60" y="258" type="curve" smooth="yes"/>
      <point x="60" y="114"/>
      <point x="133" y="17"/>
      <point x="258" y="-6" type="curve"/>
      <point x="258" y="-114" type="line"/>
    </contour>
    <contour>
      <point x="202" y="216" type="curve" smooth="yes"/>
      <point x="202" y="300" type="line" smooth="yes"/>
      <point x="202" y="353"/>
      <point x="225" y="393"/>
      <point x="268" y="410" type="curve"/>
      <point x="268" y="106" type="line"/>
      <point x="224" y="124"/>
      <point x="202" y="164"/>
    </contour>
  </outline>
</glyph>
<glyph name="sterling" format="1">
  <advance width="600"/>
  <unicode hex="00A3"/>
  <outline>
    <contour>
      <point x="553" y="0" type="line"/>
      <point x="553" y="128" type="line"/>
      <point x="224" y="128" type="line"/>
      <point x="224" y="137" type="line"/>
      <point x="260" y="156"/>
      <point x="302" y="194"/>
      <point x="302" y="262" type="curve" smooth="yes"/>
      <point x="302" y="269" type="line"/>
      <point x="442" y="269" type="line"/>
      <point x="442" y="379" type="line"/>
      <point x="267" y="379" type="line"/>
      <point x="253" y="411"/>
      <point x="239" y="443"/>
      <point x="239" y="480" type="curve" smooth="yes" name="hr01"/>
      <point x="239" y="544"/>
      <point x="278" y="581"/>
      <point x="340" y="581" type="curve" smooth="yes"/>
      <point x="395" y="581"/>
      <point x="429" y="552"/>
      <point x="460" y="512" type="curve"/>
      <point x="559" y="605" type="line"/>
      <point x="508" y="672"/>
      <point x="436" y="710"/>
      <point x="335" y="710" type="curve" smooth="yes"/>
      <point x="186" y="710"/>
      <point x="86" y="627"/>
      <point x="86" y="504" type="curve" smooth="yes"/>
      <point x="86" y="456"/>
      <point x="101" y="416"/>
      <point x="117" y="379" type="curve"/>
      <point x="46" y="379" type="line"/>
      <point x="46" y="269" type="line"/>
      <point x="153" y="269" type="line"/>
      <point x="154" y="265"/>
      <point x="154" y="261"/>
      <point x="154" y="257" type="curve" smooth="yes" name="hr02"/>
      <point x="154" y="201"/>
      <point x="122" y="159"/>
      <point x="69" y="136" type="curve"/>
      <point x="69" y="0" type="line"/>
    </contour>
  </outline>
</glyph>
<glyph name="currency" format="1">
  <advance width="600"/>
  <unicode hex="00A4"/>
  <outline>
    <contour>
      <point x="300" y="107" type="curve" smooth="yes" name="hr00"/>
      <point x="334" y="107"/>
      <point x="364" y="112"/>
      <point x="391" y="121" type="curve"/>
      <point x="453" y="16" type="line"/>
      <point x="554" y="75" type="line"/>
      <point x="488" y="187" type="line"/>
      <point x="520" y="228"/>
      <point x="539" y="283"/>
      <point x="539" y="349" type="curve" smooth="yes"/>
      <point x="539" y="415"/>
      <point x="520" y="470"/>
      <point x="488" y="511" type="curve"/>
      <point x="554" y="623" type="line"/>
      <point x="453" y="682" type="line"/>
      <point x="391" y="577" type="line"/>
      <point x="364" y="586"/>
      <point x="334" y="591"/>
      <point x="300" y="591" type="curve" smooth="yes"/>
      <point x="266" y="591"/>
      <point x="236" y="586"/>
      <point x="209" y="577" type="curve"/>
      <point x="147" y="682" type="line"/>
      <point x="46" y="623" type="line"/>
      <point x="112" y="511" type="line"/>
      <point x="80" y="470"/>
      <point x="61" y="415"/>
      <point x="61" y="349" type="curve" smooth="yes"/>
      <point x="61" y="283"/>
      <point x="80" y="228"/>
      <point x="112" y="187" type="curve"/>
      <point x="46" y="75" type="line"/>
      <point x="147" y="16" type="line"/>
      <point x="209" y="121" type="line"/>
      <point x="236" y="112"/>
      <point x="266" y="107"/>
    </contour>
    <contour>
      <point x="300" y="214" type="curve" smooth="yes"/>
      <point x="243" y="214"/>
      <point x="209" y="253"/>
      <point x="209" y="321" type="curve" smooth="yes"/>
      <point x="209" y="377" type="line" smooth="yes"/>
      <point x="209" y="445"/>
      <point x="243" y="484"/>
      <point x="300" y="484" type="curve" smooth="yes"/>
      <point x="357" y="484"/>
      <point x="391" y="445"/>
      <point x="391" y="377" type="curve" smooth="yes"/>
      <point x="391" y="321" type="line" smooth="yes"/>
      <point x="391" y="253"/>
      <point x="357" y="214"/>
    </contour>
  </outline>
</glyph>
<glyph name="yen" format="1">
  <advance width="600"/>
  <unicode hex="00A5"/>
  <outline>
    <contour>
      <point x="56" y="0" type="line" name="hr00"/>
      <point x="544" y="0" type="line"/>
      <point x="544" y="113" type="line"/>
      <point x="371" y="113" type="line"/>
      <point x="371" y="221" type="line"/>
      <point x="544" y="221" type="line"/>
      <point x="544" y="334" type="line"/>
      <point x="441" y="334" type="line"/>
      <point x="600" y="698" type="line"/>
      <point x="449" y="698" type="line"/>
      <point x="307" y="334" type="line"/>
      <point x="297" y="334" type="line"/>
      <point x="156" y="698" type="line"/>
      <point x="0" y="698" type="line"/>
      <point x="160" y="334" type="line"/>
      <point x="56" y="334" type="line"/>
      <point x="56" y="221" type="line"/>
      <point x="229" y="221" type="line"/>
      <point x="229" y="113" type="line"/>
      <point x="56" y="113" type="line"/>
    </contour>
  </outline>
</glyph>
<glyph name="brokenbar" format="1">
  <advance width="600"/>
  <unicode hex="00A6"/>
  <outline>
    <contour>
      <point x="363" y="401" type="line" name="hr00"/>
      <point x="363" y="760" type="line"/>
      <point x="237" y="760" type="line"/>
      <point x="237" y="401" type="line"/>
    </contour>
    <contour>
      <point x="363" y="-138" type="line"/>
      <point x="363" y="221" type="line"/>
      <point x="237" y="221" type="line"/>
      <point x="237" y="-138" type="line"/>
    </contour>
  </outline>
</glyph>
<glyph name="section" format="1">
  <advance width="600"/>
  <unicode hex="00A7"/>
  <outline>
    <contour>
      <point x="511" y="3" type="curve" smooth="yes"/>
      <point x="511" y="59"/>
      <point x="487" y="108"/>
      <point x="432" y="143" type="curve"/>
      <point x="432" y="159" type="line"/>
      <point x="507" y="190"/>
      <point x="542" y="239"/>
      <point x="542" y="296" type="curve" smooth="yes" name="hr01"/>
      <point x="542" y="355"/>
      <point x="503" y="415"/>
      <point x="388" y="446" type="curve" smooth="yes"/>
      <point x="310" y="467" type="line" smooth="yes"/>
      <point x="249" y="483"/>
      <point x="221" y="501"/>
      <point x="221" y="537" type="curve" smooth="yes"/>
      <point x="221" y="578"/>
      <point x="259" y="605"/>
      <point x="317" y="605" type="curve" smooth="yes"/>
      <point x="367" y="605"/>
      <point x="411" y="585"/>
      <point x="446" y="550" type="curve"/>
      <point x="519" y="638" type="line"/>
      <point x="461" y="691"/>
      <point x="387" y="710"/>
      <point x="318" y="710" type="curve" smooth="yes"/>
      <point x="187" y="710"/>
      <point x="96" y="640"/>
      <point x="96" y="531" type="curve" smooth="yes"/>
      <point x="96" y="475"/>
      <point x="120" y="426"/>
      <point x="175" y="391" type="curve"/>
      <point x="175" y="375" type="line"/>
      <point x="100" y="344"/>
      <point x="65" y="295"/>
      <point x="65" y="238" type="curve" smooth="yes" name="hr02"/>
      <point x="65" y="179"/>
      <point x="104" y="119"/>
      <point x="219" y="88" type="curve" smooth="yes"/>
      <point x="297" y="67" type="line" smooth="yes"/>
      <point x="358" y="51"/>
      <point x="386" y="33"/>
      <point x="386" y="-3" type="curve" smooth="yes"/>
      <point x="386" y="-44"/>
      <point x="348" y="-71"/>
      <point x="290" y="-71" type="curve" smooth="yes"/>
      <point x="240" y="-71"/>
      <point x="196" y="-51"/>
      <point x="161" y="-16" type="curve"/>
      <point x="88" y="-104" type="line"/>
      <point x="146" y="-157"/>
      <point x="220" y="-176"/>
      <point x="289" y="-176" type="curve" smooth="yes"/>
      <point x="420" y="-176"/>
      <point x="511" y="-106"/>
    </contour>
    <contour>
      <point x="419" y="252" type="curve" smooth="yes" name="hr03"/>
      <point x="419" y="221"/>
      <point x="405" y="194"/>
      <point x="381" y="168" type="curve"/>
      <point x="371" y="172"/>
      <point x="360" y="176"/>
      <point x="348" y="179" type="curve" smooth="yes"/>
      <point x="271" y="200" type="line" smooth="yes"/>
      <point x="205" y="218"/>
      <point x="188" y="248"/>
      <point x="188" y="282" type="curve" smooth="yes"/>
      <point x="188" y="313"/>
      <point x="202" y="340"/>
      <point x="226" y="366" type="curve"/>
      <point x="236" y="362"/>
      <point x="247" y="358"/>
      <point x="259" y="355" type="curve" smooth="yes"/>
      <point x="336" y="334" type="line" smooth="yes"/>
      <point x="402" y="316"/>
      <point x="419" y="286"/>
    </contour>
  </outline>
</glyph>
<glyph name="dieresis" format="1">
  <advance width="600"/>
  <unicode hex="00A8"/>
  <outline>
    <contour>
      <point x="190" y="591" type="curve" smooth="yes" name="hr00"/>
      <point x="250" y="591"/>
      <point x="271" y="619"/>
      <point x="271" y="654" type="curve" smooth="yes"/>
      <point x="271" y="680" type="line" smooth="yes"/>
      <point x="271" y="715"/>
      <point x="250" y="742"/>
      <point x="190" y="742" type="curve" smooth="yes"/>
      <point x="131" y="742"/>
      <point x="110" y="715"/>
      <point x="110" y="680" type="curve" smooth="yes"/>
      <point x="110" y="654" type="line" smooth="yes"/>
      <point x="110" y="619"/>
      <point x="131" y="591"/>
    </contour>
    <contour>
      <point x="410" y="591" type="curve" smooth="yes"/>
      <point x="469" y="591"/>
      <point x="490" y="619"/>
      <point x="490" y="654" type="curve" smooth="yes"/>
      <point x="490" y="680" type="line" smooth="yes"/>
      <point x="490" y="715"/>
      <point x="469" y="742"/>
      <point x="410" y="742" type="curve" smooth="yes"/>
      <point x="350" y="742"/>
      <point x="329" y="715"/>
      <point x="329" y="680" type="curve" smooth="yes"/>
      <point x="329" y="654" type="line" smooth="yes"/>
      <point x="329" y="619"/>
      <point x="350" y="591"/>
    </contour>
    <contour>
      <point x="300" y="516" type="move" name="_top"/>
    </contour>
  </outline>
</glyph>
<glyph name="copyright" format="1">
  <advance width="600"/>
  <unicode hex="00A9"/>
  <outline>
    <contour>
      <point x="300" y="18" type="curve" smooth="yes" name="hr00"/>
      <point x="467" y="18"/>
      <point x="600" y="145"/>
      <point x="600" y="349" type="curve" smooth="yes"/>
      <point x="600" y="553"/>
      <point x="467" y="680"/>
      <point x="300" y="680" type="curve" smooth="yes"/>
      <point x="133" y="680"/>
      <point x="0" y="553"/>
      <point x="0" y="349" type="curve" smooth="yes"/>
      <point x="0" y="145"/>
      <point x="133" y="18"/>
    </contour>
    <contour>
      <point x="300" y="73" type="curve" smooth="yes"/>
      <point x="163" y="73"/>
      <point x="63" y="182"/>
      <point x="63" y="319" type="curve" smooth="yes"/>
      <point x="63" y="379" type="line" smooth="yes"/>
      <point x="63" y="516"/>
      <point x="163" y="625"/>
      <point x="300" y="625" type="curve" smooth="yes"/>
      <point x="437" y="625"/>
      <point x="537" y="516"/>
      <point x="537" y="379" type="curve" smooth="yes"/>
      <point x="537" y="319" type="line" smooth="yes"/>
      <point x="537" y="182"/>
      <point x="437" y="73"/>
    </contour>
    <contour>
      <point x="309" y="153" type="curve" smooth="yes"/>
      <point x="399" y="153"/>
      <point x="446" y="201"/>
      <point x="469" y="255" type="curve"/>
      <point x="384" y="298" type="line"/>
      <point x="370" y="269"/>
      <point x="349" y="246"/>
      <point x="312" y="246" type="curve" smooth="yes"/>
      <point x="271" y="246"/>
      <point x="247" y="274"/>
      <point x="247" y="313" type="curve" smooth="yes"/>
      <point x="247" y="386" type="line" smooth="yes"/>
      <point x="247" y="424"/>
      <point x="271" y="452"/>
      <point x="311" y="452" type="curve" smooth="yes"/>
      <point x="345" y="452"/>
      <point x="365" y="431"/>
      <point x="378" y="400" type="curve"/>
      <point x="463" y="443" type="line"/>
      <point x="439" y="503"/>
      <point x="391" y="545"/>
      <point x="309" y="545" type="curve" smooth="yes"/>
      <point x="201" y="545"/>
      <point x="125" y="468"/>
      <point x="125" y="348" type="curve" smooth="yes"/>
      <point x="125" y="231"/>
      <point x="198" y="153"/>
    </contour>
  </outline>
</glyph>
<glyph name="ordfeminine" format="1">
  <advance width="600"/>
  <unicode hex="00AA"/>
  <outline>
    <contour>
      <point x="489" y="340" type="line"/>
      <point x="489" y="415" type="line"/>
      <point x="449" y="415" type="line"/>
      <point x="449" y="573" type="line" smooth="yes"/>
      <point x="449" y="664"/>
      <point x="390" y="710"/>
      <point x="292" y="710" type="curve" smooth="yes"/>
      <point x="211" y="710"/>
      <point x="159" y="680"/>
      <point x="135" y="639" type="curve"/>
      <point x="191" y="589" type="line"/>
      <point x="211" y="615"/>
      <point x="236" y="634"/>
      <point x="280" y="634" type="curve" smooth="yes"/>
      <point x="327" y="634"/>
      <point x="345" y="612"/>
      <point x="345" y="569" type="curve" smooth="yes"/>
      <point x="345" y="551" type="line"/>
      <point x="287" y="551" type="line" smooth="yes"/>
      <point x="182" y="551"/>
      <point x="125" y="515"/>
      <point x="125" y="440" type="curve" smooth="yes"/>
      <point x="125" y="372"/>
      <point x="171" y="332"/>
      <point x="241" y="332" type="curve" smooth="yes" name="hr01"/>
      <point x="296" y="332"/>
      <point x="338" y="357"/>
      <point x="351" y="404" type="curve"/>
      <point x="355" y="404" type="line"/>
      <point x="359" y="363"/>
      <point x="387" y="340"/>
      <point x="429" y="340" type="curve" smooth="yes" name="hr02"/>
    </contour>
    <contour>
      <point x="345" y="495" type="line"/>
      <point x="345" y="452" type="line" smooth="yes"/>
      <point x="345" y="418"/>
      <point x="317" y="400"/>
      <point x="280" y="400" type="curve" smooth="yes" name="hr03"/>
      <point x="247" y="400"/>
      <point x="226" y="413"/>
      <point x="226" y="438" type="curve" smooth="yes"/>
      <point x="226" y="452" type="line" smooth="yes"/>
      <point x="226" y="480"/>
      <point x="249" y="495"/>
      <point x="290" y="495" type="curve" smooth="yes"/>
    </contour>
  </outline>
</glyph>
<glyph name="logicalnot" format="1">
  <advance width="600"/>
  <unicode hex="00AC"/>
  <outline>
    <contour>
      <point x="522" y="54" type="line" name="hr00"/>
      <point x="522" y="364" type="line"/>
      <point x="62" y="364" type="line"/>
      <point x="62" y="246" type="line"/>
      <point x="401" y="246" type="line"/>
      <point x="401" y="54" type="line"/>
    </contour>
  </outline>
</glyph>
<glyph name="registered" format="1">
  <advance width="600"/>
  <unicode hex="00AE"/>
  <outline>
    <contour>
      <point x="300" y="346" type="curve" smooth="yes" name="hr00"/>
      <point x="402" y="346"/>
      <point x="483" y="424"/>
      <point x="483" y="528" type="curve" smooth="yes"/>
      <point x="483" y="632"/>
      <point x="402" y="710"/>
      <point x="300" y="710" type="curve" smooth="yes"/>
      <point x="198" y="710"/>
      <point x="117" y="632"/>
      <point x="117" y="528" type="curve" smooth="yes"/>
      <point x="117" y="424"/>
      <point x="198" y="346"/>
    </contour>
    <contour>
      <point x="300" y="387" type="curve" smooth="yes"/>
      <point x="223" y="387"/>
      <point x="165" y="439"/>
      <point x="165" y="518" type="curve" smooth="yes"/>
      <point x="165" y="538" type="line" smooth="yes"/>
      <point x="165" y="617"/>
      <point x="223" y="669"/>
      <point x="300" y="669" type="curve" smooth="yes"/>
      <point x="377" y="669"/>
      <point x="435" y="617"/>
      <point x="435" y="538" type="curve" smooth="yes"/>
      <point x="435" y="518" type="line" smooth="yes"/>
      <point x="435" y="439"/>
      <point x="377" y="387"/>
    </contour>
    <contour>
      <point x="278" y="490" type="line"/>
      <point x="300" y="490" type="line"/>
      <point x="330" y="436" type="line"/>
      <point x="391" y="436" type="line"/>
      <point x="352" y="501" type="line"/>
      <point x="373" y="511"/>
      <point x="386" y="530"/>
      <point x="386" y="558" type="curve" smooth="yes"/>
      <point x="386" y="594"/>
      <point x="364" y="621"/>
      <point x="314" y="621" type="curve" smooth="yes"/>
      <point x="222" y="621" type="line"/>
      <point x="222" y="436" type="line"/>
      <point x="278" y="436" type="line"/>
    </contour>
    <contour>
      <point x="278" y="531" type="line"/>
      <point x="278" y="578" type="line"/>
      <point x="302" y="578" type="line" smooth="yes"/>
      <point x="318" y="578"/>
      <point x="328" y="570"/>
      <point x="328" y="558" type="curve" smooth="yes"/>
      <point x="328" y="551" type="line" smooth="yes"/>
      <point x="328" y="538"/>
      <point x="318" y="531"/>
      <point x="302" y="531" type="curve" smooth="yes"/>
    </contour>
  </outline>
</glyph>
<glyph name="degree" format="1">
  <advance width="600"/>
  <unicode hex="00B0"/>
  <outline>
    <contour>
      <point x="300" y="334" type="curve" smooth="yes" name="hr00"/>
      <point x="406" y="334"/>
      <point x="488" y="415"/>
      <point x="488" y="522" type="curve" smooth="yes"/>
      <point x="488" y="629"/>
      <point x="406" y="710"/>
      <point x="300" y="710" type="curve" smooth="yes"/>
      <point x="194" y="710"/>
      <point x="112" y="629"/>
      <point x="112" y="522" type="curve" smooth="yes"/>
      <point x="112" y="415"/>
      <point x="194" y="334"/>
    </contour>
    <contour>
      <point x="300" y="429" type="curve" smooth="yes"/>
      <point x="248" y="429"/>
      <point x="214" y="470"/>
      <point x="214" y="522" type="curve" smooth="yes"/>
      <point x="214" y="574"/>
      <point x="248" y="615"/>
      <point x="300" y="615" type="curve" smooth="yes"/>
      <point x="352" y="615"/>
      <point x="386" y="574"/>
      <point x="386" y="522" type="curve" smooth="yes"/>
      <point x="386" y="470"/>
      <point x="352" y="429"/>
    </contour>
  </outline>
</glyph>
<glyph name="plusminus" format="1">
  <advance width="600"/>
  <unicode hex="00B1"/>
  <outline>
    <contour>
      <point x="364" y="184" type="line" name="hr00"/>
      <point x="364" y="350" type="line"/>
      <point x="538" y="350" type="line"/>
      <point x="538" y="468" type="line"/>
      <point x="364" y="468" type="line"/>
      <point x="364" y="634" type="line"/>
      <point x="236" y="634" type="line"/>
      <point x="236" y="468" type="line"/>
      <point x="62" y="468" type="line"/>
      <point x="62" y="350" type="line"/>
      <point x="236" y="350" type="line"/>
      <point x="236" y="184" type="line"/>
    </contour>
    <contour>
      <point x="538" y="0" type="line"/>
      <point x="538" y="119" type="line"/>
      <point x="62" y="119" type="line"/>
      <point x="62" y="0" type="line"/>
    </contour>
  </outline>
</glyph>
<glyph name="twosuperior" format="1">
  <advance width="600"/>
  <unicode hex="00B2"/>
  <outline>
    <contour>
      <point x="450" y="412" type="line" name="hr00"/>
      <point x="273" y="412" type="line"/>
      <point x="332" y="445" type="line" smooth="yes"/>
      <point x="391" y="478"/>
      <point x="446" y="522"/>
      <point x="446" y="590" type="curve" smooth="yes"/>
      <point x="446" y="656"/>
      <point x="394" y="704"/>
      <point x="304" y="704" type="curve" smooth="yes"/>
      <point x="220" y="704"/>
      <point x="169" y="662"/>
      <point x="150" y="606" type="curve"/>
      <point x="239" y="573" type="line"/>
      <point x="246" y="597"/>
      <point x="261" y="618"/>
      <point x="294" y="618" type="curve" smooth="yes"/>
      <point x="313" y="618"/>
      <point x="337" y="611"/>
      <point x="337" y="584" type="curve" smooth="yes"/>
      <point x="337" y="583" type="line" smooth="yes"/>
      <point x="337" y="553"/>
      <point x="320" y="538"/>
      <point x="270" y="500" type="curve" smooth="yes"/>
      <point x="161" y="417" type="line"/>
      <point x="161" y="329" type="line"/>
      <point x="450" y="329" type="line"/>
    </contour>
  </outline>
</glyph>
<glyph name="threesuperior" format="1">
  <advance width="600"/>
  <unicode hex="00B3"/>
  <outline>
    <contour>
      <point x="251" y="558" type="line"/>
      <point x="251" y="476" type="line"/>
      <point x="282" y="476" type="line" smooth="yes"/>
      <point x="318" y="476"/>
      <point x="343" y="466"/>
      <point x="343" y="440" type="curve" smooth="yes"/>
      <point x="343" y="438" type="line" smooth="yes"/>
      <point x="343" y="416"/>
      <point x="324" y="402"/>
      <point x="293" y="402" type="curve" smooth="yes"/>
      <point x="253" y="402"/>
      <point x="229" y="425"/>
      <point x="214" y="456" type="curve"/>
      <point x="138" y="398" type="line"/>
      <point x="164" y="357"/>
      <point x="207" y="323"/>
      <point x="293" y="323" type="curve" smooth="yes"/>
      <point x="386" y="323"/>
      <point x="450" y="365"/>
      <point x="450" y="433" type="curve" smooth="yes"/>
      <point x="450" y="480"/>
      <point x="418" y="510"/>
      <point x="368" y="518" type="curve"/>
      <point x="368" y="522" type="line"/>
      <point x="409" y="527"/>
      <point x="444" y="557"/>
      <point x="444" y="603" type="curve" smooth="yes" name="hr01"/>
      <point x="444" y="663"/>
      <point x="388" y="704"/>
      <point x="294" y="704" type="curve" smooth="yes"/>
      <point x="224" y="704"/>
      <point x="184" y="682"/>
      <point x="149" y="641" type="curve"/>
      <point x="211" y="582" type="line"/>
      <point x="232" y="610"/>
      <point x="263" y="625"/>
      <point x="291" y="625" type="curve" smooth="yes"/>
      <point x="320" y="625"/>
      <point x="336" y="610"/>
      <point x="336" y="593" type="curve" smooth="yes"/>
      <point x="336" y="589" type="line" smooth="yes"/>
      <point x="336" y="572"/>
      <point x="321" y="558"/>
      <point x="285" y="558" type="curve" smooth="yes"/>
    </contour>
  </outline>
</glyph>
<glyph name="acute" format="1">
  <advance width="600"/>
  <unicode hex="00B4"/>
  <outline>
    <contour>
      <point x="450" y="746" type="line" name="hr00"/>
      <point x="327" y="807" type="line"/>
      <point x="228" y="613" type="line"/>
      <point x="316" y="570" type="line"/>
    </contour>
    <contour>
      <point x="300" y="516" type="move" name="_top"/>
    </contour>
  </outline>
</glyph>
<glyph name="mu" format="1">
  <advance width="600"/>
  <unicode hex="00B5"/>
  <outline>
    <contour>
      <point x="213" y="-200" type="line"/>
      <point x="213" y="-103" type="line"/>
      <point x="184" y="30" type="line"/>
      <point x="190" y="30" type="line"/>
      <point x="212" y="-3"/>
      <point x="237" y="-12"/>
      <point x="263" y="-12" type="curve" smooth="yes"/>
      <point x="327" y="-12"/>
      <point x="365" y="40"/>
      <point x="381" y="94" type="curve"/>
      <point x="387" y="94" type="line"/>
      <point x="387" y="0" type="line" name="hr01"/>
      <point x="535" y="0" type="line"/>
      <point x="535" y="516" type="line"/>
      <point x="387" y="516" type="line"/>
      <point x="387" y="177" type="line" smooth="yes"/>
      <point x="387" y="127"/>
      <point x="343" y="102"/>
      <point x="298" y="102" type="curve" smooth="yes" name="hr02"/>
      <point x="241" y="102"/>
      <point x="213" y="140"/>
      <point x="213" y="212" type="curve" smooth="yes"/>
      <point x="213" y="516" type="line"/>
      <point x="65" y="516" type="line"/>
      <point x="65" y="-200" type="line"/>
    </contour>
  </outline>
</glyph>
<glyph name="paragraph" format="1">
  <advance width="600"/>
  <unicode hex="00B6"/>
  <outline>
    <contour>
      <point x="245" y="-149" type="line" name="hr00"/>
      <point x="364" y="-149" type="line"/>
      <point x="364" y="582" type="line"/>
      <point x="433" y="582" type="line"/>
      <point x="433" y="-149" type="line"/>
      <point x="552" y="-149" type="line"/>
      <point x="552" y="698" type="line"/>
      <point x="245" y="698" type="line" smooth="yes"/>
      <point x="121" y="698"/>
      <point x="20" y="603"/>
      <point x="20" y="472" type="curve" smooth="yes"/>
      <point x="20" y="341"/>
      <point x="121" y="246"/>
      <point x="245" y="246" type="curve"/>
    </contour>
  </outline>
</glyph>
<glyph name="periodcentered" format="1">
  <advance width="600"/>
  <unicode hex="00B7"/>
  <outline>
    <contour>
      <point x="300" y="204" type="curve" smooth="yes" name="hr00"/>
      <point x="375" y="204"/>
      <point x="405" y="242"/>
      <point x="405" y="287" type="curve" smooth="yes"/>
      <point x="405" y="322" type="line" smooth="yes"/>
      <point x="405" y="367"/>
      <point x="375" y="405"/>
      <point x="300" y="405" type="curve" smooth="yes"/>
      <point x="225" y="405"/>
      <point x="195" y="367"/>
      <point x="195" y="322" type="curve" smooth="yes"/>
      <point x="195" y="287" type="line" smooth="yes"/>
      <point x="195" y="242"/>
      <point x="225" y="204"/>
    </contour>
  </outline>
</glyph>
<glyph name="onesuperior" format="1">
  <advance width="600"/>
  <unicode hex="00B9"/>
  <outline>
    <contour>
      <point x="463" y="329" type="line" name="hr00"/>
      <point x="463" y="408" type="line"/>
      <point x="382" y="408" type="line"/>
      <point x="382" y="698" type="line"/>
      <point x="232" y="698" type="line"/>
      <point x="147" y="583" type="line"/>
      <point x="214" y="535" type="line"/>
      <point x="275" y="618" type="line"/>
      <point x="281" y="618" type="line"/>
      <point x="281" y="408" type="line"/>
      <point x="188" y="408" type="line"/>
      <point x="188" y="329" type="line"/>
    </contour>
  </outline>
</glyph>
<glyph name="ordmasculine" format="1">
  <advance width="600"/>
  <unicode hex="00BA"/>
  <outline>
    <contour>
      <point x="300" y="332" type="curve" smooth="yes" name="hr00"/>
      <point x="413" y="332"/>
      <point x="481" y="404"/>
      <point x="481" y="521" type="curve" smooth="yes"/>
      <point x="481" y="638"/>
      <point x="413" y="710"/>
      <point x="300" y="710" type="curve" smooth="yes"/>
      <point x="187" y="710"/>
      <point x="119" y="638"/>
      <point x="119" y="521" type="curve" smooth="yes"/>
      <point x="119" y="404"/>
      <point x="187" y="332"/>
    </contour>
    <contour>
      <point x="300" y="409" type="curve" smooth="yes"/>
      <point x="254" y="409"/>
      <point x="226" y="439"/>
      <point x="226" y="492" type="curve" smooth="yes"/>
      <point x="226" y="550" type="line" smooth="yes"/>
      <point x="226" y="603"/>
      <point x="254" y="633"/>
      <point x="300" y="633" type="curve" smooth="yes"/>
      <point x="346" y="633"/>
      <point x="374" y="603"/>
      <point x="374" y="550" type="curve" smooth="yes"/>
      <point x="374" y="492" type="line" smooth="yes"/>
      <point x="374" y="439"/>
      <point x="346" y="409"/>
    </contour>
  </outline>
</glyph>
<glyph name="questiondown" format="1">
  <advance width="600"/>
  <unicode hex="00BF"/>
  <outline>
    <contour>
      <point x="309" y="-194" type="curve" smooth="yes"/>
      <point x="447" y="-194"/>
      <point x="516" y="-114"/>
      <point x="539" y="-34" type="curve"/>
      <point x="417" y="17" type="line"/>
      <point x="404" y="-33"/>
      <point x="368" y="-68"/>
      <point x="314" y="-68" type="curve" smooth="yes"/>
      <point x="266" y="-68"/>
      <point x="229" y="-45"/>
      <point x="229" y="10" type="curve" smooth="yes"/>
      <point x="229" y="24" type="line" smooth="yes"/>
      <point x="229" y="100"/>
      <point x="292" y="126"/>
      <point x="392" y="130" type="curve"/>
      <point x="392" y="283" type="line"/>
      <point x="252" y="283" type="line"/>
      <point x="252" y="211" type="line"/>
      <point x="156" y="195"/>
      <point x="73" y="124"/>
      <point x="73" y="11" type="curve" smooth="yes"/>
      <point x="73" y="-110"/>
      <point x="167" y="-194"/>
    </contour>
    <contour>
      <point x="320" y="341" type="curve" smooth="yes"/>
      <point x="390" y="341"/>
      <point x="418" y="376"/>
      <point x="418" y="418" type="curve" smooth="yes" name="hr01"/>
      <point x="418" y="450" type="line" smooth="yes"/>
      <point x="418" y="493"/>
      <point x="390" y="528"/>
      <point x="320" y="528" type="curve" smooth="yes"/>
      <point x="249" y="528"/>
      <point x="221" y="493"/>
      <point x="221" y="450" type="curve" smooth="yes"/>
      <point x="221" y="418" type="line" smooth="yes"/>
      <point x="221" y="376"/>
      <point x="249" y="341"/>
    </contour>
  </outline>
</glyph>
<glyph name="AE" format="1">
  <advance width="600"/>
  <unicode hex="00C6"/>
  <outline>
    <contour>
      <point x="279" y="0" type="line" name="hr00"/>
      <point x="572" y="0" type="line"/>
      <point x="572" y="111" type="line"/>
      <point x="417" y="111" type="line"/>
      <point x="417" y="298" type="line"/>
      <point x="562" y="298" type="line"/>
      <point x="562" y="409" type="line"/>
      <point x="417" y="409" type="line"/>
      <point x="417" y="587" type="line"/>
      <point x="572" y="587" type="line"/>
      <point x="572" y="698" type="line"/>
      <point x="155" y="698" type="line"/>
      <point x="-4" y="0" type="line"/>
      <point x="142" y="0" type="line"/>
      <point x="175" y="168" type="line"/>
      <point x="279" y="168" type="line"/>
    </contour>
    <contour>
      <point x="279" y="594" type="line"/>
      <point x="279" y="279" type="line"/>
      <point x="197" y="279" type="line"/>
      <point x="257" y="594" type="line"/>
    </contour>
    <contour>
      <point x="364" y="698" type="move" name="top"/>
    </contour>
  </outline>
</glyph>
<glyph name="Ccedilla" format="1">
  <advance width="600"/>
  <unicode hex="00C7"/>
  <outline>
    <contour>
      <point x="313" y="589" type="curve" smooth="yes" name="hr00"/>
      <point x="383" y="589"/>
      <point x="408" y="541"/>
      <point x="423" y="475" type="curve"/>
      <point x="563" y="509" type="line"/>
      <point x="535" y="631"/>
      <point x="460" y="710"/>
      <point x="316" y="710" type="curve" smooth="yes"/>
      <point x="129" y="710"/>
      <point x="41" y="578"/>
      <point x="41" y="349" type="curve" smooth="yes"/>
      <point x="41" y="141"/>
      <point x="113" y="13"/>
      <point x="267" y="-8" type="curve"/>
      <point x="253" y="-74" type="line"/>
      <point x="274" y="-76" type="line" smooth="yes"/>
      <point x="336" y="-82"/>
      <point x="349" y="-101"/>
      <point x="349" y="-116" type="curve" smooth="yes"/>
      <point x="349" y="-133"/>
      <point x="330" y="-141"/>
      <point x="305" y="-141" type="curve" smooth="yes"/>
      <point x="274" y="-141"/>
      <point x="252" y="-128"/>
      <point x="239" y="-112" type="curve"/>
      <point x="193" y="-168" type="line"/>
      <point x="210" y="-188"/>
      <point x="248" y="-212"/>
      <point x="317" y="-212" type="curve" smooth="yes"/>
      <point x="385" y="-212"/>
      <point x="449" y="-189"/>
      <point x="449" y="-121" type="curve" smooth="yes"/>
      <point x="449" y="-72"/>
      <point x="416" y="-52"/>
      <point x="376" y="-52" type="curve" smooth="yes"/>
      <point x="360" y="-52"/>
      <point x="344" y="-55"/>
      <point x="328" y="-59" type="curve"/>
      <point x="324" y="-55" type="line"/>
      <point x="333" y="-11" type="line"/>
      <point x="466" y="-5"/>
      <point x="536" y="72"/>
      <point x="563" y="189" type="curve"/>
      <point x="423" y="223" type="line"/>
      <point x="408" y="157"/>
      <point x="383" y="109"/>
      <point x="313" y="109" type="curve" smooth="yes"/>
      <point x="232" y="109"/>
      <point x="201" y="177"/>
      <point x="201" y="288" type="curve" smooth="yes"/>
      <point x="201" y="410" type="line" smooth="yes"/>
      <point x="201" y="521"/>
      <point x="232" y="589"/>
    </contour>
  </outline>
</glyph>
<glyph name="multiply" format="1">
  <advance width="600"/>
  <unicode hex="00D7"/>
  <outline>
    <contour>
      <point x="445" y="75" type="line" name="hr00"/>
      <point x="530" y="160" type="line"/>
      <point x="385" y="305" type="line"/>
      <point x="530" y="450" type="line"/>
      <point x="445" y="535" type="line"/>
      <point x="300" y="390" type="line"/>
      <point x="155" y="535" type="line"/>
      <point x="70" y="450" type="line"/>
      <point x="215" y="305" type="line"/>
      <point x="70" y="160" type="line"/>
      <point x="155" y="75" type="line"/>
      <point x="300" y="220" type="line"/>
    </contour>
  </outline>
</glyph>
<glyph name="Oslash" format="1">
  <advance width="600"/>
  <unicode hex="00D8"/>
  <outline>
    <contour>
      <point x="300" y="-12" type="curve" smooth="yes" name="hr00"/>
      <point x="487" y="-12"/>
      <point x="573" y="121"/>
      <point x="573" y="349" type="curve" smooth="yes"/>
      <point x="573" y="456"/>
      <point x="554" y="542"/>
      <point x="515" y="603" type="curve"/>
      <point x="581" y="710" type="line"/>
      <point x="487" y="764" type="line"/>
      <point x="434" y="679" type="line"/>
      <point x="397" y="700"/>
      <point x="353" y="710"/>
      <point x="300" y="710" type="curve" smooth="yes"/>
      <point x="113" y="710"/>
      <point x="27" y="577"/>
      <point x="27" y="349" type="curve" smooth="yes"/>
      <point x="27" y="242"/>
      <point x="46" y="156"/>
      <point x="85" y="95" type="curve"/>
      <point x="19" y="-12" type="line"/>
      <point x="113" y="-66" type="line"/>
      <point x="166" y="19" type="line"/>
      <point x="203" y="-2"/>
      <point x="247" y="-12"/>
    </contour>
    <contour>
      <point x="187" y="288" type="curve" smooth="yes"/>
      <point x="187" y="410" type="line" smooth="yes"/>
      <point x="187" y="522"/>
      <point x="215" y="589"/>
      <point x="300" y="589" type="curve" smooth="yes"/>
      <point x="330" y="589"/>
      <point x="354" y="581"/>
      <point x="371" y="565" type="curve"/>
      <point x="189" y="249" type="line"/>
      <point x="187" y="262"/>
      <point x="187" y="274"/>
    </contour>
    <contour>
      <point x="300" y="109" type="curve" smooth="yes"/>
      <point x="270" y="109"/>
      <point x="246" y="117"/>
      <point x="229" y="133" type="curve"/>
      <point x="411" y="449" type="line"/>
      <point x="413" y="435"/>
      <point x="413" y="424"/>
      <point x="413" y="410" type="curve" smooth="yes"/>
      <point x="413" y="288" type="line" smooth="yes"/>
      <point x="413" y="176"/>
      <point x="385" y="109"/>
    </contour>
    <contour>
      <point x="300" y="698" type="move" name="top"/>
    </contour>
  </outline>
</glyph>
<glyph name="Thorn" format="1">
  <advance width="600"/>
  <unicode hex="00DE"/>
  <outline>
    <contour>
      <point x="227" y="0" type="line" name="hr00"/>
      <point x="227" y="133" type="line"/>
      <point x="341" y="133" type="line" smooth="yes"/>
      <point x="479" y="133"/>
      <point x="555" y="221"/>
      <point x="555" y="355" type="curve" smooth="yes"/>
      <point x="555" y="489"/>
      <point x="479" y="577"/>
      <point x="341" y="577" type="curve" smooth="yes"/>
      <point x="227" y="577" type="line"/>
      <point x="227" y="698" type="line"/>
      <point x="76" y="698" type="line"/>
      <point x="76" y="0" type="line"/>
    </contour>
    <contour>
      <point x="227" y="456" type="line"/>
      <point x="304" y="456" type="line" smooth="yes"/>
      <point x="374" y="456"/>
      <point x="398" y="431"/>
      <point x="398" y="370" type="curve" smooth="yes"/>
      <point x="398" y="340" type="line"/>
      <point x="398" y="279"/>
      <point x="374" y="254"/>
      <point x="304" y="254" type="curve" smooth="yes"/>
      <point x="227" y="254" type="line"/>
    </contour>
  </outline>
</glyph>
<glyph name="germandbls" format="1">
  <advance width="600"/>
  <unicode hex="00DF"/>
  <outline>
    <contour>
      <point x="204" y="0" type="line" name="hr00"/>
      <point x="204" y="405" type="line"/>
      <point x="396" y="405" type="line"/>
      <point x="273" y="230" type="line"/>
      <point x="273" y="119" type="line"/>
      <point x="297" y="119" type="line" smooth="yes"/>
      <point x="385" y="119"/>
      <point x="425" y="91"/>
      <point x="425" y="26" type="curve" smooth="yes"/>
      <point x="425" y="3" type="line" smooth="yes"/>
      <point x="425" y="-60"/>
      <point x="387" y="-89"/>
      <point x="303" y="-89" type="curve" smooth="yes"/>
      <point x="246" y="-89" type="line"/>
      <point x="246" y="-200" type="line"/>
      <point x="312" y="-200" type="line" smooth="yes"/>
      <point x="472" y="-200"/>
      <point x="574" y="-126"/>
      <point x="574" y="16" type="curve" smooth="yes"/>
      <point x="574" y="129"/>
      <point x="509" y="193"/>
      <point x="401" y="213" type="curve"/>
      <point x="540" y="410" type="line"/>
      <point x="540" y="516" type="line"/>
      <point x="204" y="516" type="line"/>
      <point x="204" y="629" type="line"/>
      <point x="376" y="629" type="line"/>
      <point x="376" y="740" type="line"/>
      <point x="218" y="740" type="line" smooth="yes"/>
      <point x="110" y="740"/>
      <point x="60" y="678"/>
      <point x="60" y="591" type="curve" smooth="yes"/>
      <point x="60" y="0" type="line"/>
    </contour>
  </outline>
</glyph>
<glyph name="ae" format="1">
  <advance width="600"/>
  <unicode hex="00E6"/>
  <outline>
    <contour>
      <point x="137" y="-12" type="curve" smooth="yes" name="hr00"/>
      <point x="200" y="-12"/>
      <point x="246" y="24"/>
      <point x="258" y="105" type="curve"/>
      <point x="262" y="105" type="line"/>
      <point x="286" y="23"/>
      <point x="349" y="-12"/>
      <point x="418" y="-12" type="curve" smooth="yes"/>
      <point x="511" y="-12"/>
      <point x="558" y="51"/>
      <point x="578" y="129" type="curve"/>
      <point x="481" y="156" type="line"/>
      <point x="471" y="117"/>
      <point x="454" y="84"/>
      <point x="417" y="84" type="curve" smooth="yes"/>
      <point x="370" y="84"/>
      <point x="345" y="136"/>
      <point x="345" y="213" type="curve" smooth="yes"/>
      <point x="345" y="228" type="line"/>
      <point x="584" y="228" type="line"/>
      <point x="584" y="297" type="line" smooth="yes"/>
      <point x="584" y="438"/>
      <point x="518" y="528"/>
      <point x="417" y="528" type="curve" smooth="yes"/>
      <point x="365" y="528"/>
      <point x="325" y="504"/>
      <point x="297" y="455" type="curve"/>
      <point x="293" y="455" type="line"/>
      <point x="270" y="502"/>
      <point x="229" y="528"/>
      <point x="168" y="528" type="curve" smooth="yes"/>
      <point x="91" y="528"/>
      <point x="35" y="487"/>
      <point x="13" y="401" type="curve"/>
      <point x="105" y="368" type="line"/>
      <point x="117" y="410"/>
      <point x="132" y="436"/>
      <point x="168" y="436" type="curve" smooth="yes"/>
      <point x="206" y="436"/>
      <point x="226" y="407"/>
      <point x="226" y="362" type="curve" smooth="yes"/>
      <point x="226" y="305" type="line"/>
      <point x="186" y="305" type="line" smooth="yes"/>
      <point x="69" y="305"/>
      <point x="4" y="248"/>
      <point x="4" y="141" type="curve" smooth="yes"/>
      <point x="4" y="39"/>
      <point x="62" y="-12"/>
    </contour>
    <contour>
      <point x="169" y="78" type="curve" smooth="yes"/>
      <point x="136" y="78"/>
      <point x="120" y="101"/>
      <point x="120" y="138" type="curve" smooth="yes"/>
      <point x="120" y="157" type="line" smooth="yes"/>
      <point x="120" y="204"/>
      <point x="148" y="228"/>
      <point x="197" y="228" type="curve" smooth="yes"/>
      <point x="226" y="228" type="line"/>
      <point x="226" y="179" type="line" smooth="yes"/>
      <point x="226" y="114"/>
      <point x="211" y="78"/>
    </contour>
    <contour>
      <point x="410" y="438" type="curve" smooth="yes"/>
      <point x="454" y="438"/>
      <point x="475" y="399"/>
      <point x="475" y="349" type="curve" smooth="yes"/>
      <point x="475" y="305" type="line"/>
      <point x="345" y="305" type="line"/>
      <point x="345" y="349" type="line" smooth="yes"/>
      <point x="345" y="399"/>
      <point x="366" y="438"/>
    </contour>
    <contour>
      <point x="298" y="516" type="move" name="top"/>
    </contour>
  </outline>
</glyph>
<glyph name="ccedilla" format="1">
  <advance width="600"/>
  <unicode hex="00E7"/>
  <outline>
    <contour>
      <point x="320" y="528" type="curve" smooth="yes" name="hr00"/>
      <point x="159" y="528"/>
      <point x="60" y="425"/>
      <point x="60" y="258" type="curve" smooth="yes"/>
      <point x="60" y="111"/>
      <point x="136" y="14"/>
      <point x="265" y="-7" type="curve"/>
      <point x="251" y="-74" type="line"/>
      <point x="272" y="-76" type="line" smooth="yes"/>
      <point x="334" y="-82"/>
      <point x="347" y="-101"/>
      <point x="347" y="-116" type="curve" smooth="yes"/>
      <point x="347" y="-133"/>
      <point x="328" y="-141"/>
      <point x="303" y="-141" type="curve" smooth="yes"/>
      <point x="272" y="-141"/>
      <point x="250" y="-128"/>
      <point x="237" y="-112" type="curve"/>
      <point x="191" y="-168" type="line"/>
      <point x="208" y="-188"/>
      <point x="246" y="-212"/>
      <point x="315" y="-212" type="curve" smooth="yes"/>
      <point x="383" y="-212"/>
      <point x="447" y="-189"/>
      <point x="447" y="-121" type="curve" smooth="yes"/>
      <point x="447" y="-72"/>
      <point x="414" y="-52"/>
      <point x="374" y="-52" type="curve" smooth="yes"/>
      <point x="358" y="-52"/>
      <point x="342" y="-55"/>
      <point x="326" y="-59" type="curve"/>
      <point x="322" y="-55" type="line"/>
      <point x="331" y="-12" type="line"/>
      <point x="440" y="-9"/>
      <point x="507" y="41"/>
      <point x="543" y="114" type="curve"/>
      <point x="431" y="178" type="line"/>
      <point x="409" y="136"/>
      <point x="379" y="106"/>
      <point x="322" y="106" type="curve" smooth="yes"/>
      <point x="252" y="106"/>
      <point x="214" y="148"/>
      <point x="214" y="216" type="curve" smooth="yes"/>
      <point x="214" y="300" type="line" smooth="yes"/>
      <point x="214" y="368"/>
      <point x="253" y="410"/>
      <point x="320" y="410" type="curve" smooth="yes"/>
      <point x="375" y="410"/>
      <point x="403" y="380"/>
      <point x="421" y="340" type="curve"/>
      <point x="535" y="402" type="line"/>
      <point x="499" y="477"/>
      <point x="433" y="528"/>
    </contour>
  </outline>
</glyph>
<glyph name="eth" format="1">
  <advance width="600"/>
  <unicode hex="00F0"/>
  <outline>
    <contour>
      <point x="433" y="753" type="line" name="hr00"/>
      <point x="348" y="703" type="line"/>
      <point x="331" y="716"/>
      <point x="314" y="729"/>
      <point x="297" y="740" type="curve"/>
      <point x="71" y="740" type="line"/>
      <point x="130" y="709"/>
      <point x="185" y="674"/>
      <point x="233" y="636" type="curve"/>
      <point x="151" y="588" type="line"/>
      <point x="202" y="528" type="line"/>
      <point x="294" y="582" type="line"/>
      <point x="350" y="528"/>
      <point x="390" y="469"/>
      <point x="408" y="408" type="curve"/>
      <point x="399" y="404" type="line"/>
      <point x="367" y="463"/>
      <point x="317" y="500"/>
      <point x="242" y="500" type="curve" smooth="yes"/>
      <point x="120" y="500"/>
      <point x="40" y="402"/>
      <point x="40" y="253" type="curve" smooth="yes"/>
      <point x="40" y="89"/>
      <point x="138" y="-12"/>
      <point x="303" y="-12" type="curve" smooth="yes"/>
      <point x="457" y="-12"/>
      <point x="561" y="75"/>
      <point x="561" y="278" type="curve" smooth="yes"/>
      <point x="561" y="440"/>
      <point x="495" y="560"/>
      <point x="408" y="649" type="curve"/>
      <point x="483" y="693" type="line"/>
    </contour>
    <contour>
      <point x="302" y="98" type="curve" smooth="yes"/>
      <point x="236" y="98"/>
      <point x="193" y="141"/>
      <point x="193" y="217" type="curve" smooth="yes"/>
      <point x="193" y="271" type="line" smooth="yes"/>
      <point x="193" y="346"/>
      <point x="233" y="388"/>
      <point x="301" y="388" type="curve" smooth="yes"/>
      <point x="366" y="388"/>
      <point x="408" y="349"/>
      <point x="408" y="273" type="curve" smooth="yes"/>
      <point x="408" y="217" type="line" smooth="yes"/>
      <point x="408" y="141"/>
      <point x="368" y="98"/>
    </contour>
  </outline>
</glyph>
<glyph name="divide" format="1">
  <advance width="600"/>
  <unicode hex="00F7"/>
  <outline>
    <contour>
      <point x="538" y="246" type="line" name="hr00"/>
      <point x="538" y="364" type="line"/>
      <point x="62" y="364" type="line"/>
      <point x="62" y="246" type="line"/>
    </contour>
    <contour>
      <point x="300" y="29" type="curve" smooth="yes"/>
      <point x="363" y="29"/>
      <point x="388" y="59"/>
      <point x="388" y="98" type="curve" smooth="yes"/>
      <point x="388" y="122" type="line" smooth="yes"/>
      <point x="388" y="160"/>
      <point x="363" y="191"/>
      <point x="300" y="191" type="curve" smooth="yes"/>
      <point x="237" y="191"/>
      <point x="212" y="160"/>
      <point x="212" y="122" type="curve" smooth="yes"/>
      <point x="212" y="98" type="line" smooth="yes"/>
      <point x="212" y="59"/>
      <point x="237" y="29"/>
    </contour>
    <contour>
      <point x="300" y="419" type="curve" smooth="yes"/>
      <point x="363" y="419"/>
      <point x="388" y="450"/>
      <point x="388" y="488" type="curve" smooth="yes"/>
      <point x="388" y="512" type="line" smooth="yes"/>
      <point x="388" y="551"/>
      <point x="363" y="581"/>
      <point x="300" y="581" type="curve" smooth="yes"/>
      <point x="237" y="581"/>
      <point x="212" y="551"/>
      <point x="212" y="512" type="curve" smooth="yes"/>
      <point x="212" y="488" type="line" smooth="yes"/>
      <point x="212" y="450"/>
      <point x="237" y="419"/>
    </contour>
  </outline>
</glyph>
<glyph name="oslash" format="1">
  <advance width="600"/>
  <unicode hex="00F8"/>
  <outline>
    <contour>
      <point x="105" y="-59" type="line" name="hr00"/>
      <point x="169" y="18" type="line"/>
      <point x="205" y="-1"/>
      <point x="250" y="-12"/>
      <point x="300" y="-12" type="curve" smooth="yes"/>
      <point x="461" y="-12"/>
      <point x="559" y="91"/>
      <point x="559" y="258" type="curve" smooth="yes"/>
      <point x="559" y="328"/>
      <point x="542" y="387"/>
      <point x="508" y="432" type="curve"/>
      <point x="577" y="515" type="line"/>
      <point x="495" y="575" type="line"/>
      <point x="431" y="498" type="line"/>
      <point x="395" y="517"/>
      <point x="350" y="528"/>
      <point x="300" y="528" type="curve" smooth="yes"/>
      <point x="139" y="528"/>
      <point x="41" y="425"/>
      <point x="41" y="258" type="curve" smooth="yes"/>
      <point x="41" y="188"/>
      <point x="58" y="129"/>
      <point x="92" y="84" type="curve"/>
      <point x="23" y="1" type="line"/>
    </contour>
    <contour>
      <point x="300" y="418" type="curve" smooth="yes"/>
      <point x="324" y="418"/>
      <point x="345" y="412"/>
      <point x="361" y="401" type="curve"/>
      <point x="196" y="200" type="line"/>
      <point x="194" y="207"/>
      <point x="194" y="217"/>
      <point x="194" y="225" type="curve" smooth="yes"/>
      <point x="194" y="299" type="line" smooth="yes"/>
      <point x="194" y="375"/>
      <point x="234" y="418"/>
    </contour>
    <contour>
      <point x="300" y="98" type="curve" smooth="yes"/>
      <point x="276" y="98"/>
      <point x="255" y="104"/>
      <point x="239" y="115" type="curve"/>
      <point x="404" y="316" type="line"/>
      <point x="406" y="309"/>
      <point x="406" y="299"/>
      <point x="406" y="291" type="curve" smooth="yes"/>
      <point x="406" y="217" type="line" smooth="yes"/>
      <point x="406" y="141"/>
      <point x="366" y="98"/>
    </contour>
    <contour>
      <point x="300" y="516" type="move" name="top"/>
    </contour>
  </outline>
</glyph>
<glyph name="Aogonek" format="1">
  <advance width="600"/>
  <unicode hex="0104"/>
  <outline>
    <contour>
      <point x="5" y="0" type="line"/>
      <point x="157" y="0" type="line"/>
      <point x="200" y="168" type="line"/>
      <point x="391" y="168" type="line"/>
      <point x="435" y="0" type="line"/>
      <point x="498" y="0" type="line"/>
      <point x="500" y="-4" type="line"/>
      <point x="426" y="-38"/>
      <point x="381" y="-71"/>
      <point x="381" y="-127" type="curve" smooth="yes" name="hr01"/>
      <point x="381" y="-191"/>
      <point x="439" y="-212"/>
      <point x="505" y="-212" type="curve" smooth="yes"/>
      <point x="568" y="-212"/>
      <point x="610" y="-193"/>
      <point x="627" y="-161" type="curve"/>
      <point x="574" y="-110" type="line"/>
      <point x="560" y="-126"/>
      <point x="543" y="-138"/>
      <point x="519" y="-138" type="curve" smooth="yes"/>
      <point x="499" y="-138"/>
      <point x="481" y="-130"/>
      <point x="481" y="-105" type="curve" smooth="yes"/>
      <point x="481" y="-81"/>
      <point x="497" y="-60"/>
      <point x="595" y="0" type="curve" name="hr02"/>
      <point x="406" y="698" type="line"/>
      <point x="194" y="698" type="line"/>
    </contour>
    <contour>
      <point x="368" y="289" type="line"/>
      <point x="224" y="289" type="line"/>
      <point x="292" y="553" type="line"/>
      <point x="300" y="553" type="line"/>
    </contour>
  </outline>
</glyph>
<glyph name="aogonek" format="1">
  <advance width="600"/>
  <unicode hex="0105"/>
  <outline>
    <contour>
      <point x="572" y="107" type="line"/>
      <point x="515" y="107" type="line"/>
      <point x="515" y="333" type="line" smooth="yes"/>
      <point x="515" y="463"/>
      <point x="431" y="528"/>
      <point x="290" y="528" type="curve" smooth="yes"/>
      <point x="175" y="528"/>
      <point x="100" y="485"/>
      <point x="66" y="427" type="curve"/>
      <point x="147" y="355" type="line"/>
      <point x="175" y="393"/>
      <point x="211" y="420"/>
      <point x="273" y="420" type="curve" smooth="yes"/>
      <point x="341" y="420"/>
      <point x="367" y="388"/>
      <point x="367" y="327" type="curve" smooth="yes"/>
      <point x="367" y="301" type="line"/>
      <point x="284" y="301" type="line" smooth="yes"/>
      <point x="133" y="301"/>
      <point x="52" y="250"/>
      <point x="52" y="142" type="curve" smooth="yes"/>
      <point x="52" y="45"/>
      <point x="118" y="-12"/>
      <point x="218" y="-12" type="curve" smooth="yes" name="hr01"/>
      <point x="297" y="-12"/>
      <point x="357" y="24"/>
      <point x="375" y="91" type="curve"/>
      <point x="380" y="91" type="line"/>
      <point x="385" y="36"/>
      <point x="420" y="4"/>
      <point x="475" y="0" type="curve" name="hr02"/>
      <point x="477" y="-4" type="line"/>
      <point x="403" y="-38"/>
      <point x="358" y="-71"/>
      <point x="358" y="-127" type="curve" smooth="yes"/>
      <point x="358" y="-191"/>
      <point x="416" y="-212"/>
      <point x="482" y="-212" type="curve" smooth="yes"/>
      <point x="545" y="-212"/>
      <point x="587" y="-193"/>
      <point x="604" y="-161" type="curve"/>
      <point x="551" y="-110" type="line"/>
      <point x="537" y="-126"/>
      <point x="520" y="-138"/>
      <point x="496" y="-138" type="curve" smooth="yes"/>
      <point x="476" y="-138"/>
      <point x="458" y="-130"/>
      <point x="458" y="-105" type="curve" smooth="yes"/>
      <point x="458" y="-81"/>
      <point x="474" y="-60"/>
      <point x="572" y="0" type="curve"/>
    </contour>
    <contour>
      <point x="367" y="221" type="line" name="hr03"/>
      <point x="367" y="159" type="line" smooth="yes"/>
      <point x="367" y="111"/>
      <point x="326" y="85"/>
      <point x="273" y="85" type="curve" smooth="yes"/>
      <point x="227" y="85"/>
      <point x="197" y="104"/>
      <point x="197" y="140" type="curve" smooth="yes"/>
      <point x="197" y="160" type="line" smooth="yes"/>
      <point x="197" y="200"/>
      <point x="229" y="221"/>
      <point x="288" y="221" type="curve" smooth="yes"/>
    </contour>
  </outline>
</glyph>
<glyph name="dcaron" format="1">
  <advance width="600"/>
  <unicode hex="010F"/>
  <outline>
    <contour>
      <point x="185" y="-12" type="curve" smooth="yes"/>
      <point x="254" y="-12"/>
      <point x="286" y="31"/>
      <point x="306" y="93" type="curve"/>
      <point x="314" y="93" type="line"/>
      <point x="314" y="0" type="line" name="hr01"/>
      <point x="455" y="0" type="line"/>
      <point x="455" y="740" type="line"/>
      <point x="314" y="740" type="line"/>
      <point x="314" y="423" type="line"/>
      <point x="306" y="423" type="line"/>
      <point x="286" y="485"/>
      <point x="254" y="528"/>
      <point x="185" y="528" type="curve" smooth="yes"/>
      <point x="86" y="528"/>
      <point x="27" y="443"/>
      <point x="27" y="258" type="curve" smooth="yes"/>
      <point x="27" y="73"/>
      <point x="86" y="-12"/>
    </contour>
    <contour>
      <point x="244" y="97" type="curve" smooth="yes"/>
      <point x="200" y="97"/>
      <point x="174" y="127"/>
      <point x="174" y="200" type="curve" smooth="yes"/>
      <point x="174" y="316" type="line" smooth="yes"/>
      <point x="174" y="389"/>
      <point x="200" y="419"/>
      <point x="244" y="419" type="curve" smooth="yes"/>
      <point x="285" y="419"/>
      <point x="314" y="392"/>
      <point x="314" y="336" type="curve" smooth="yes"/>
      <point x="314" y="180" type="line" smooth="yes"/>
      <point x="314" y="124"/>
      <point x="285" y="97"/>
    </contour>
    <contour>
      <point x="506" y="529" type="line"/>
      <point x="583" y="529" type="line"/>
      <point x="637" y="740" type="line"/>
      <point x="508" y="740" type="line"/>
    </contour>
  </outline>
</glyph>
<glyph name="Dcroat" format="1">
  <advance width="600"/>
  <unicode hex="0110"/>
  <outline>
    <contour>
      <point x="69" y="0" type="line" name="hr00"/>
      <point x="289" y="0" type="line" smooth="yes"/>
      <point x="476" y="0"/>
      <point x="566" y="125"/>
      <point x="566" y="349" type="curve" smooth="yes"/>
      <point x="566" y="573"/>
      <point x="476" y="698"/>
      <point x="289" y="698" type="curve" smooth="yes"/>
      <point x="69" y="698" type="line"/>
      <point x="69" y="425" type="line"/>
      <point x="10" y="425" type="line"/>
      <point x="10" y="311" type="line"/>
      <point x="69" y="311" type="line"/>
    </contour>
    <contour>
      <point x="217" y="118" type="line"/>
      <point x="217" y="316" type="line"/>
      <point x="327" y="316" type="line"/>
      <point x="327" y="420" type="line"/>
      <point x="217" y="420" type="line"/>
      <point x="217" y="580" type="line"/>
      <point x="279" y="580" type="line" smooth="yes"/>
      <point x="368" y="580"/>
      <point x="408" y="521"/>
      <point x="408" y="413" type="curve" smooth="yes"/>
      <point x="408" y="286" type="line" smooth="yes"/>
      <point x="408" y="177"/>
      <point x="368" y="118"/>
      <point x="279" y="118" type="curve" smooth="yes"/>
    </contour>
  </outline>
</glyph>
<glyph name="dcroat" format="1">
  <advance width="600"/>
  <unicode hex="0111"/>
  <outline>
    <contour>
      <point x="393" y="0" type="line"/>
      <point x="541" y="0" type="line"/>
      <point x="541" y="580" type="line"/>
      <point x="596" y="580" type="line"/>
      <point x="596" y="690" type="line"/>
      <point x="541" y="690" type="line"/>
      <point x="541" y="740" type="line"/>
      <point x="393" y="740" type="line"/>
      <point x="393" y="690" type="line"/>
      <point x="253" y="690" type="line"/>
      <point x="253" y="580" type="line"/>
      <point x="393" y="580" type="line"/>
      <point x="393" y="422" type="line"/>
      <point x="386" y="422" type="line"/>
      <point x="360" y="484"/>
      <point x="316" y="528"/>
      <point x="233" y="528" type="curve" smooth="yes"/>
      <point x="119" y="528"/>
      <point x="39" y="445"/>
      <point x="39" y="258" type="curve" smooth="yes"/>
      <point x="39" y="71"/>
      <point x="119" y="-12"/>
      <point x="233" y="-12" type="curve" smooth="yes" name="hr01"/>
      <point x="316" y="-12"/>
      <point x="360" y="32"/>
      <point x="386" y="94" type="curve" name="hr02"/>
      <point x="393" y="94" type="line"/>
    </contour>
    <contour>
      <point x="297" y="103" type="curve" smooth="yes" name="hr03"/>
      <point x="231" y="103"/>
      <point x="193" y="146"/>
      <point x="193" y="218" type="curve" smooth="yes"/>
      <point x="193" y="298" type="line"/>
      <point x="193" y="370"/>
      <point x="231" y="413"/>
      <point x="297" y="413" type="curve" smooth="yes"/>
      <point x="349" y="413"/>
      <point x="393" y="388"/>
      <point x="393" y="334" type="curve" smooth="yes"/>
      <point x="393" y="182" type="line" smooth="yes"/>
      <point x="393" y="128"/>
      <point x="349" y="103"/>
    </contour>
  </outline>
</glyph>
<glyph name="Eogonek" format="1">
  <advance width="600"/>
  <unicode hex="0118"/>
  <outline>
    <contour>
      <point x="80" y="0" type="line" name="hr00"/>
      <point x="430" y="0" type="line"/>
      <point x="431" y="-4" type="line"/>
      <point x="357" y="-38"/>
      <point x="312" y="-71"/>
      <point x="312" y="-127" type="curve" smooth="yes"/>
      <point x="312" y="-191"/>
      <point x="370" y="-212"/>
      <point x="436" y="-212" type="curve" smooth="yes"/>
      <point x="499" y="-212"/>
      <point x="541" y="-193"/>
      <point x="558" y="-161" type="curve"/>
      <point x="505" y="-110" type="line"/>
      <point x="491" y="-126"/>
      <point x="474" y="-138"/>
      <point x="450" y="-138" type="curve" smooth="yes"/>
      <point x="430" y="-138"/>
      <point x="412" y="-130"/>
      <point x="412" y="-105" type="curve" smooth="yes"/>
      <point x="412" y="-81"/>
      <point x="428" y="-60"/>
      <point x="526" y="0" type="curve"/>
      <point x="526" y="123" type="line"/>
      <point x="230" y="123" type="line"/>
      <point x="230" y="292" type="line"/>
      <point x="516" y="292" type="line"/>
      <point x="516" y="415" type="line"/>
      <point x="230" y="415" type="line"/>
      <point x="230" y="575" type="line"/>
      <point x="526" y="575" type="line"/>
      <point x="526" y="698" type="line"/>
      <point x="80" y="698" type="line"/>
    </contour>
  </outline>
</glyph>
<glyph name="eogonek" format="1">
  <advance width="600"/>
  <unicode hex="0119"/>
  <outline>
    <contour>
      <point x="363" y="-212" type="curve" smooth="yes" name="hr00"/>
      <point x="426" y="-212"/>
      <point x="468" y="-193"/>
      <point x="485" y="-161" type="curve"/>
      <point x="432" y="-110" type="line"/>
      <point x="418" y="-126"/>
      <point x="401" y="-138"/>
      <point x="377" y="-138" type="curve" smooth="yes"/>
      <point x="357" y="-138"/>
      <point x="339" y="-130"/>
      <point x="339" y="-105" type="curve" smooth="yes"/>
      <point x="339" y="-77"/>
      <point x="361" y="-62"/>
      <point x="432" y="-7" type="curve" smooth="yes"/>
      <point x="488" y="36"/>
      <point x="511" y="53"/>
      <point x="535" y="79" type="curve"/>
      <point x="455" y="166" type="line"/>
      <point x="423" y="128"/>
      <point x="380" y="102"/>
      <point x="319" y="102" type="curve" smooth="yes"/>
      <point x="240" y="102"/>
      <point x="197" y="147"/>
      <point x="197" y="213" type="curve" smooth="yes"/>
      <point x="197" y="222" type="line"/>
      <point x="550" y="222" type="line"/>
      <point x="550" y="266" type="line" smooth="yes"/>
      <point x="550" y="427"/>
      <point x="455" y="528"/>
      <point x="301" y="528" type="curve" smooth="yes"/>
      <point x="146" y="528"/>
      <point x="50" y="425"/>
      <point x="50" y="257" type="curve" smooth="yes"/>
      <point x="50" y="84"/>
      <point x="151" y="-12"/>
      <point x="305" y="-12" type="curve" smooth="yes"/>
      <point x="327" y="-12"/>
      <point x="345" y="-10"/>
      <point x="355" y="-7" type="curve"/>
      <point x="357" y="-12" type="line"/>
      <point x="284" y="-43"/>
      <point x="239" y="-74"/>
      <point x="239" y="-128" type="curve" smooth="yes"/>
      <point x="239" y="-191"/>
      <point x="298" y="-212"/>
    </contour>
    <contour>
      <point x="197" y="305" type="line"/>
      <point x="197" y="313" type="line" smooth="yes"/>
      <point x="197" y="379"/>
      <point x="238" y="422"/>
      <point x="302" y="422" type="curve" smooth="yes"/>
      <point x="366" y="422"/>
      <point x="405" y="380"/>
      <point x="405" y="313" type="curve" smooth="yes"/>
      <point x="405" y="305" type="line"/>
    </contour>
  </outline>
</glyph>
<glyph name="Hbar" format="1">
  <advance width="600"/>
  <unicode hex="0126"/>
  <outline>
    <contour>
      <point x="388" y="0" type="line" name="hr00"/>
      <point x="539" y="0" type="line"/>
      <point x="539" y="507" type="line"/>
      <point x="594" y="507" type="line"/>
      <point x="594" y="620" type="line"/>
      <point x="539" y="620" type="line"/>
      <point x="539" y="698" type="line"/>
      <point x="388" y="698" type="line"/>
      <point x="388" y="613" type="line"/>
      <point x="212" y="613" type="line"/>
      <point x="212" y="698" type="line"/>
      <point x="61" y="698" type="line"/>
      <point x="61" y="620" type="line"/>
      <point x="6" y="620" type="line"/>
      <point x="6" y="507" type="line"/>
      <point x="61" y="507" type="line"/>
      <point x="61" y="0" type="line"/>
      <point x="212" y="0" type="line"/>
      <point x="212" y="292" type="line"/>
      <point x="388" y="292" type="line"/>
    </contour>
    <contour>
      <point x="212" y="415" type="line"/>
      <point x="212" y="514" type="line"/>
      <point x="388" y="514" type="line"/>
      <point x="388" y="415" type="line"/>
    </contour>
  </outline>
</glyph>
<glyph name="Iogonek" format="1">
  <advance width="600"/>
  <unicode hex="012E"/>
  <outline>
    <contour>
      <point x="75" y="0" type="line"/>
      <point x="428" y="0" type="line"/>
      <point x="430" y="-4" type="line"/>
      <point x="356" y="-38"/>
      <point x="311" y="-71"/>
      <point x="311" y="-127" type="curve" smooth="yes"/>
      <point x="311" y="-191"/>
      <point x="369" y="-212"/>
      <point x="435" y="-212" type="curve" smooth="yes"/>
      <point x="498" y="-212"/>
      <point x="540" y="-193"/>
      <point x="557" y="-161" type="curve"/>
      <point x="504" y="-110" type="line"/>
      <point x="490" y="-126"/>
      <point x="473" y="-138"/>
      <point x="449" y="-138" type="curve" smooth="yes"/>
      <point x="429" y="-138"/>
      <point x="411" y="-130"/>
      <point x="411" y="-105" type="curve" smooth="yes"/>
      <point x="411" y="-81"/>
      <point x="427" y="-60"/>
      <point x="525" y="0" type="curve"/>
      <point x="525" y="111" type="line"/>
      <point x="375" y="111" type="line" name="hr01"/>
      <point x="375" y="587" type="line"/>
      <point x="525" y="587" type="line"/>
      <point x="525" y="698" type="line"/>
      <point x="75" y="698" type="line"/>
      <point x="75" y="587" type="line"/>
      <point x="225" y="587" type="line"/>
      <point x="225" y="111" type="line"/>
      <point x="75" y="111" type="line"/>
    </contour>
  </outline>
</glyph>
<glyph name="iogonek" format="1">
  <advance width="600"/>
  <unicode hex="012F"/>
  <outline>
    <contour>
      <point x="468" y="-212" type="curve" smooth="yes"/>
      <point x="531" y="-212"/>
      <point x="573" y="-193"/>
      <point x="590" y="-161" type="curve"/>
      <point x="537" y="-110" type="line"/>
      <point x="523" y="-126"/>
      <point x="506" y="-138"/>
      <point x="482" y="-138" type="curve" smooth="yes"/>
      <point x="462" y="-138"/>
      <point x="444" y="-130"/>
      <point x="444" y="-105" type="curve" smooth="yes"/>
      <point x="444" y="-81"/>
      <point x="460" y="-60"/>
      <point x="558" y="0" type="curve"/>
      <point x="558" y="115" type="line"/>
      <point x="406" y="115" type="line" name="hr01"/>
      <point x="406" y="516" type="line"/>
      <point x="94" y="516" type="line"/>
      <point x="94" y="401" type="line"/>
      <point x="258" y="401" type="line"/>
      <point x="258" y="115" type="line"/>
      <point x="94" y="115" type="line"/>
      <point x="94" y="0" type="line"/>
      <point x="462" y="0" type="line"/>
      <point x="463" y="-4" type="line"/>
      <point x="389" y="-38"/>
      <point x="344" y="-71"/>
      <point x="344" y="-127" type="curve" smooth="yes" name="hr02"/>
      <point x="344" y="-191"/>
      <point x="402" y="-212"/>
    </contour>
    <contour>
      <point x="332" y="582" type="curve" smooth="yes"/>
      <point x="398" y="582"/>
      <point x="421" y="613"/>
      <point x="421" y="652" type="curve" smooth="yes" name="hr03"/>
      <point x="421" y="681" type="line" smooth="yes"/>
      <point x="421" y="721"/>
      <point x="398" y="751"/>
      <point x="332" y="751" type="curve" smooth="yes"/>
      <point x="266" y="751"/>
      <point x="243" y="721"/>
      <point x="243" y="681" type="curve" smooth="yes"/>
      <point x="243" y="652" type="line" smooth="yes"/>
      <point x="243" y="613"/>
      <point x="266" y="582"/>
    </contour>
  </outline>
</glyph>
<glyph name="dotlessi" format="1">
  <advance width="600"/>
  <unicode hex="0131"/>
  <outline>
    <contour>
      <point x="94" y="0" type="line" name="hr00"/>
      <point x="558" y="0" type="line"/>
      <point x="558" y="115" type="line"/>
      <point x="406" y="115" type="line"/>
      <point x="406" y="516" type="line"/>
      <point x="94" y="516" type="line"/>
      <point x="94" y="401" type="line"/>
      <point x="258" y="401" type="line"/>
      <point x="258" y="115" type="line"/>
      <point x="94" y="115" type="line"/>
    </contour>
    <contour>
      <point x="332" y="0" type="move" name="bottom"/>
    </contour>
    <contour>
      <point x="558" y="0" type="move" name="bottomright"/>
    </contour>
    <contour>
      <point x="332" y="516" type="move" name="top"/>
    </contour>
  </outline>
</glyph>
<glyph name="IJ" format="1">
  <advance width="600"/>
  <unicode hex="0132"/>
  <outline>
    <contour>
      <point x="375" y="698" type="line" name="hr00"/>
      <point x="375" y="210" type="line" smooth="yes"/>
      <point x="375" y="142"/>
      <point x="345" y="110"/>
      <point x="294" y="110" type="curve" smooth="yes"/>
      <point x="234" y="110"/>
      <point x="209" y="154"/>
      <point x="198" y="213" type="curve"/>
      <point x="52" y="181" type="line"/>
      <point x="73" y="69"/>
      <point x="148" y="-12"/>
      <point x="293" y="-12" type="curve" smooth="yes"/>
      <point x="437" y="-12"/>
      <point x="525" y="69"/>
      <point x="525" y="195" type="curve" smooth="yes"/>
      <point x="525" y="698" type="line"/>
    </contour>
    <contour>
      <point x="63" y="309" type="line"/>
      <point x="213" y="309" type="line"/>
      <point x="213" y="698" type="line"/>
      <point x="63" y="698" type="line"/>
    </contour>
  </outline>
</glyph>
<glyph name="ij" format="1">
  <advance width="600"/>
  <unicode hex="0133"/>
  <outline>
    <contour>
      <point x="74" y="0" type="line"/>
      <point x="222" y="0" type="line"/>
      <point x="222" y="516" type="line"/>
      <point x="74" y="516" type="line"/>
    </contour>
    <contour>
      <point x="222" y="-200" type="line"/>
      <point x="368" y="-200" type="line" smooth="yes"/>
      <point x="475" y="-200"/>
      <point x="526" y="-138"/>
      <point x="526" y="-51" type="curve" smooth="yes"/>
      <point x="526" y="516" type="line"/>
      <point x="378" y="516" type="line"/>
      <point x="378" y="-85" type="line"/>
      <point x="222" y="-85" type="line"/>
    </contour>
    <contour>
      <point x="148" y="582" type="curve" smooth="yes"/>
      <point x="215" y="582"/>
      <point x="238" y="613"/>
      <point x="238" y="652" type="curve" smooth="yes" name="hr01"/>
      <point x="238" y="681" type="line" smooth="yes"/>
      <point x="238" y="721"/>
      <point x="215" y="751"/>
      <point x="148" y="751" type="curve" smooth="yes"/>
      <point x="82" y="751"/>
      <point x="59" y="721"/>
      <point x="59" y="681" type="curve" smooth="yes"/>
      <point x="59" y="652" type="line" smooth="yes"/>
      <point x="59" y="613"/>
      <point x="82" y="582"/>
    </contour>
    <contour>
      <point x="452" y="582" type="curve" smooth="yes"/>
      <point x="518" y="582"/>
      <point x="541" y="613"/>
      <point x="541" y="652" type="curve" smooth="yes"/>
      <point x="541" y="681" type="line" smooth="yes"/>
      <point x="541" y="721"/>
      <point x="518" y="751"/>
      <point x="452" y="751" type="curve" smooth="yes"/>
      <point x="385" y="751"/>
      <point x="362" y="721"/>
      <point x="362" y="681" type="curve" smooth="yes"/>
      <point x="362" y="652" type="line" smooth="yes"/>
      <point x="362" y="613"/>
      <point x="385" y="582"/>
    </contour>
  </outline>
</glyph>
<glyph name="kgreenlandic" format="1">
  <advance width="600"/>
  <unicode hex="0138"/>
  <outline>
    <contour>
      <point x="412" y="0" type="line" name="hr00"/>
      <point x="588" y="0" type="line"/>
      <point x="367" y="312" type="line"/>
      <point x="567" y="516" type="line"/>
      <point x="397" y="516" type="line"/>
      <point x="289" y="401" type="line"/>
      <point x="220" y="308" type="line"/>
      <point x="213" y="308" type="line"/>
      <point x="213" y="516" type="line"/>
      <point x="65" y="516" type="line"/>
      <point x="65" y="0" type="line"/>
      <point x="213" y="0" type="line"/>
      <point x="213" y="179" type="line"/>
      <point x="262" y="228" type="line"/>
    </contour>
  </outline>
</glyph>
<glyph name="Lslash" format="1">
  <advance width="600"/>
  <unicode hex="0141"/>
  <outline>
    <contour>
      <point x="543" y="123" type="line" name="hr00"/>
      <point x="255" y="123" type="line"/>
      <point x="255" y="289" type="line"/>
      <point x="439" y="350" type="line"/>
      <point x="439" y="463" type="line"/>
      <point x="255" y="402" type="line"/>
      <point x="255" y="698" type="line"/>
      <point x="104" y="698" type="line"/>
      <point x="104" y="357" type="line"/>
      <point x="33" y="334" type="line"/>
      <point x="33" y="221" type="line"/>
      <point x="104" y="244" type="line"/>
      <point x="104" y="0" type="line"/>
      <point x="543" y="0" type="line"/>
    </contour>
  </outline>
</glyph>
<glyph name="lslash" format="1">
  <advance width="600"/>
  <unicode hex="0142"/>
  <outline>
    <contour>
      <point x="68" y="0" type="line" name="hr00"/>
      <point x="532" y="0" type="line"/>
      <point x="532" y="115" type="line"/>
      <point x="374" y="115" type="line"/>
      <point x="374" y="301" type="line"/>
      <point x="503" y="343" type="line"/>
      <point x="503" y="452" type="line"/>
      <point x="374" y="410" type="line"/>
      <point x="374" y="740" type="line"/>
      <point x="68" y="740" type="line"/>
      <point x="68" y="625" type="line"/>
      <point x="226" y="625" type="line"/>
      <point x="226" y="365" type="line"/>
      <point x="97" y="323" type="line"/>
      <point x="97" y="214" type="line"/>
      <point x="226" y="256" type="line"/>
      <point x="226" y="115" type="line"/>
      <point x="68" y="115" type="line"/>
    </contour>
  </outline>
</glyph>
<glyph name="napostrophe" format="1">
  <advance width="600"/>
  <unicode hex="0149"/>
  <outline>
    <contour>
      <point x="111" y="0" type="line"/>
      <point x="251" y="0" type="line"/>
      <point x="251" y="339" type="line"/>
      <point x="251" y="393"/>
      <point x="291" y="420"/>
      <point x="333" y="420" type="curve" smooth="yes"/>
      <point x="383" y="420"/>
      <point x="409" y="382"/>
      <point x="409" y="314" type="curve" smooth="yes"/>
      <point x="409" y="0" type="line"/>
      <point x="549" y="0" type="line"/>
      <point x="549" y="342" type="line" smooth="yes"/>
      <point x="549" y="467"/>
      <point x="489" y="528"/>
      <point x="400" y="528" type="curve" smooth="yes"/>
      <point x="321" y="528"/>
      <point x="278" y="480"/>
      <point x="257" y="422" type="curve"/>
      <point x="251" y="422" type="line"/>
      <point x="251" y="516" type="line" name="hr01"/>
      <point x="111" y="516" type="line"/>
    </contour>
    <contour>
      <point x="0" y="529" type="line" name="hr02"/>
      <point x="69" y="529" type="line"/>
      <point x="135" y="740" type="line"/>
      <point x="6" y="740" type="line"/>
    </contour>
  </outline>
</glyph>
<glyph name="Eng" format="1">
  <advance width="600"/>
  <unicode hex="014A"/>
  <outline>
    <contour>
      <point x="189" y="0" type="line" name="hr00"/>
      <point x="189" y="464" type="line"/>
      <point x="200" y="464" type="line"/>
      <point x="359" y="0" type="line"/>
      <point x="402" y="0" type="line"/>
      <point x="402" y="-90" type="line"/>
      <point x="189" y="-90" type="line"/>
      <point x="189" y="-200" type="line"/>
      <point x="382" y="-200" type="line" smooth="yes"/>
      <point x="488" y="-200"/>
      <point x="539" y="-138"/>
      <point x="539" y="-51" type="curve" smooth="yes"/>
      <point x="539" y="698" type="line"/>
      <point x="411" y="698" type="line"/>
      <point x="411" y="234" type="line"/>
      <point x="400" y="234" type="line"/>
      <point x="241" y="698" type="line"/>
      <point x="61" y="698" type="line"/>
      <point x="61" y="0" type="line"/>
    </contour>
  </outline>
</glyph>
<glyph name="eng" format="1">
  <advance width="600"/>
  <unicode hex="014B"/>
  <outline>
    <contour>
      <point x="213" y="-200" type="line"/>
      <point x="382" y="-200" type="line" smooth="yes"/>
      <point x="489" y="-200"/>
      <point x="539" y="-138"/>
      <point x="539" y="-51" type="curve" smooth="yes"/>
      <point x="539" y="334" type="line" smooth="yes"/>
      <point x="539" y="459"/>
      <point x="470" y="528"/>
      <point x="371" y="528" type="curve" smooth="yes"/>
      <point x="288" y="528"/>
      <point x="242" y="480"/>
      <point x="219" y="422" type="curve"/>
      <point x="213" y="422" type="line"/>
      <point x="213" y="516" type="line" name="hr01"/>
      <point x="65" y="516" type="line"/>
      <point x="65" y="0" type="line"/>
      <point x="213" y="0" type="line"/>
      <point x="213" y="339" type="line"/>
      <point x="213" y="389"/>
      <point x="258" y="414"/>
      <point x="304" y="414" type="curve" smooth="yes" name="hr02"/>
      <point x="362" y="414"/>
      <point x="391" y="379"/>
      <point x="391" y="314" type="curve" smooth="yes"/>
      <point x="391" y="-85" type="line"/>
      <point x="213" y="-85" type="line"/>
    </contour>
  </outline>
</glyph>
<glyph name="OE" format="1">
  <advance width="600"/>
  <unicode hex="0152"/>
  <outline>
    <contour>
      <point x="586" y="0" type="line" name="hr00"/>
      <point x="586" y="111" type="line"/>
      <point x="431" y="111" type="line"/>
      <point x="431" y="298" type="line"/>
      <point x="576" y="298" type="line"/>
      <point x="576" y="409" type="line"/>
      <point x="431" y="409" type="line"/>
      <point x="431" y="587" type="line"/>
      <point x="586" y="587" type="line"/>
      <point x="586" y="698" type="line"/>
      <point x="277" y="698" type="line" smooth="yes"/>
      <point x="97" y="698"/>
      <point x="10" y="573"/>
      <point x="10" y="349" type="curve" smooth="yes"/>
      <point x="10" y="125"/>
      <point x="97" y="0"/>
      <point x="277" y="0" type="curve" smooth="yes"/>
    </contour>
    <contour>
      <point x="287" y="111" type="line" smooth="yes"/>
      <point x="197" y="111"/>
      <point x="156" y="172"/>
      <point x="156" y="290" type="curve" smooth="yes"/>
      <point x="156" y="408" type="line" smooth="yes"/>
      <point x="156" y="526"/>
      <point x="197" y="587"/>
      <point x="287" y="587" type="curve" smooth="yes"/>
      <point x="293" y="587" type="line"/>
      <point x="293" y="111" type="line"/>
    </contour>
  </outline>
</glyph>
<glyph name="oe" format="1">
  <advance width="600"/>
  <unicode hex="0153"/>
  <outline>
    <contour>
      <point x="183" y="84" type="curve" smooth="yes" name="hr00"/>
      <point x="147" y="84"/>
      <point x="125" y="117"/>
      <point x="125" y="175" type="curve" smooth="yes"/>
      <point x="125" y="341" type="line" smooth="yes"/>
      <point x="125" y="399"/>
      <point x="147" y="432"/>
      <point x="183" y="432" type="curve" smooth="yes"/>
      <point x="219" y="432"/>
      <point x="241" y="399"/>
      <point x="241" y="341" type="curve" smooth="yes"/>
      <point x="241" y="175" type="line" smooth="yes"/>
      <point x="241" y="117"/>
      <point x="219" y="84"/>
    </contour>
    <contour>
      <point x="353" y="305" type="line"/>
      <point x="353" y="349" type="line" smooth="yes"/>
      <point x="353" y="399"/>
      <point x="372" y="438"/>
      <point x="414" y="438" type="curve" smooth="yes"/>
      <point x="456" y="438"/>
      <point x="475" y="399"/>
      <point x="475" y="349" type="curve" smooth="yes"/>
      <point x="475" y="305" type="line"/>
    </contour>
    <contour>
      <point x="423" y="-12" type="curve" smooth="yes"/>
      <point x="513" y="-12"/>
      <point x="559" y="51"/>
      <point x="578" y="129" type="curve"/>
      <point x="481" y="156" type="line"/>
      <point x="472" y="117"/>
      <point x="456" y="84"/>
      <point x="421" y="84" type="curve" smooth="yes"/>
      <point x="377" y="84"/>
      <point x="353" y="136"/>
      <point x="353" y="213" type="curve" smooth="yes"/>
      <point x="353" y="228" type="line"/>
      <point x="584" y="228" type="line"/>
      <point x="584" y="297" type="line" smooth="yes"/>
      <point x="584" y="439"/>
      <point x="520" y="528"/>
      <point x="420" y="528" type="curve" smooth="yes"/>
      <point x="369" y="528"/>
      <point x="330" y="504"/>
      <point x="301" y="454" type="curve"/>
      <point x="297" y="454" type="line"/>
      <point x="272" y="502"/>
      <point x="234" y="528"/>
      <point x="176" y="528" type="curve" smooth="yes"/>
      <point x="76" y="528"/>
      <point x="12" y="452"/>
      <point x="12" y="258" type="curve" smooth="yes"/>
      <point x="12" y="63"/>
      <point x="77" y="-12"/>
      <point x="174" y="-12" type="curve" smooth="yes"/>
      <point x="228" y="-12"/>
      <point x="265" y="12"/>
      <point x="291" y="54" type="curve"/>
      <point x="295" y="54" type="line"/>
      <point x="325" y="8"/>
      <point x="371" y="-12"/>
    </contour>
  </outline>
</glyph>
<glyph name="Scedilla" format="1">
  <advance width="600"/>
  <unicode hex="015E"/>
  <outline>
    <contour>
      <point x="306" y="-212" type="curve" smooth="yes"/>
      <point x="374" y="-212"/>
      <point x="438" y="-189"/>
      <point x="438" y="-121" type="curve" smooth="yes"/>
      <point x="438" y="-72"/>
      <point x="405" y="-52"/>
      <point x="365" y="-52" type="curve" smooth="yes"/>
      <point x="349" y="-52"/>
      <point x="333" y="-55"/>
      <point x="317" y="-59" type="curve"/>
      <point x="313" y="-55" type="line"/>
      <point x="322" y="-11" type="line"/>
      <point x="475" y="0"/>
      <point x="556" y="92"/>
      <point x="556" y="215" type="curve" smooth="yes" name="hr01"/>
      <point x="556" y="325"/>
      <point x="491" y="391"/>
      <point x="379" y="411" type="curve" smooth="yes"/>
      <point x="306" y="424" type="line" smooth="yes"/>
      <point x="238" y="436"/>
      <point x="210" y="457"/>
      <point x="210" y="505" type="curve" smooth="yes"/>
      <point x="210" y="560"/>
      <point x="244" y="588"/>
      <point x="311" y="588" type="curve" smooth="yes"/>
      <point x="374" y="588"/>
      <point x="426" y="563"/>
      <point x="463" y="522" type="curve"/>
      <point x="548" y="617" type="line"/>
      <point x="499" y="674"/>
      <point x="417" y="710"/>
      <point x="310" y="710" type="curve" smooth="yes"/>
      <point x="152" y="710"/>
      <point x="59" y="632"/>
      <point x="59" y="498" type="curve" smooth="yes"/>
      <point x="59" y="396"/>
      <point x="112" y="319"/>
      <point x="237" y="298" type="curve" smooth="yes"/>
      <point x="310" y="286" type="line" smooth="yes"/>
      <point x="378" y="275"/>
      <point x="404" y="252"/>
      <point x="404" y="203" type="curve" smooth="yes"/>
      <point x="404" y="143"/>
      <point x="365" y="110"/>
      <point x="294" y="110" type="curve" smooth="yes"/>
      <point x="232" y="110"/>
      <point x="169" y="136"/>
      <point x="118" y="192" type="curve"/>
      <point x="31" y="96" type="line"/>
      <point x="79" y="36"/>
      <point x="156" y="-3"/>
      <point x="255" y="-11" type="curve"/>
      <point x="242" y="-74" type="line"/>
      <point x="263" y="-76" type="line" smooth="yes"/>
      <point x="325" y="-82"/>
      <point x="338" y="-101"/>
      <point x="338" y="-116" type="curve" smooth="yes" name="hr02"/>
      <point x="338" y="-133"/>
      <point x="319" y="-141"/>
      <point x="294" y="-141" type="curve" smooth="yes"/>
      <point x="263" y="-141"/>
      <point x="241" y="-128"/>
      <point x="228" y="-112" type="curve"/>
      <point x="182" y="-168" type="line"/>
      <point x="199" y="-188"/>
      <point x="237" y="-212"/>
    </contour>
    <contour>
      <point x="305.0" y="698.0" type="move" name="top"/>
    </contour>
  </outline>
</glyph>
<glyph name="scedilla" format="1">
  <advance width="600"/>
  <unicode hex="015F"/>
  <outline>
    <contour>
      <point x="307" y="-212" type="curve" smooth="yes"/>
      <point x="375" y="-212"/>
      <point x="439" y="-189"/>
      <point x="439" y="-121" type="curve" smooth="yes"/>
      <point x="439" y="-72"/>
      <point x="406" y="-52"/>
      <point x="366" y="-52" type="curve" smooth="yes"/>
      <point x="350" y="-52"/>
      <point x="334" y="-55"/>
      <point x="318" y="-59" type="curve"/>
      <point x="314" y="-55" type="line"/>
      <point x="323" y="-11" type="line"/>
      <point x="458" y="-2"/>
      <point x="534" y="63"/>
      <point x="534" y="163" type="curve" smooth="yes" name="hr01"/>
      <point x="534" y="261"/>
      <point x="461" y="300"/>
      <point x="368" y="314" type="curve" smooth="yes"/>
      <point x="286" y="327" type="line" smooth="yes"/>
      <point x="246" y="333"/>
      <point x="222" y="342"/>
      <point x="222" y="372" type="curve" smooth="yes"/>
      <point x="222" y="406"/>
      <point x="252" y="424"/>
      <point x="308" y="424" type="curve" smooth="yes"/>
      <point x="375" y="424"/>
      <point x="424" y="398"/>
      <point x="454" y="365" type="curve"/>
      <point x="528" y="449" type="line"/>
      <point x="485" y="499"/>
      <point x="414" y="528"/>
      <point x="313" y="528" type="curve" smooth="yes"/>
      <point x="164" y="528"/>
      <point x="77" y="463"/>
      <point x="77" y="355" type="curve" smooth="yes"/>
      <point x="77" y="257"/>
      <point x="150" y="218"/>
      <point x="242" y="204" type="curve" smooth="yes"/>
      <point x="325" y="191" type="line" smooth="yes"/>
      <point x="365" y="185"/>
      <point x="389" y="176"/>
      <point x="389" y="147" type="curve" smooth="yes"/>
      <point x="389" y="110"/>
      <point x="353" y="92"/>
      <point x="295" y="92" type="curve" smooth="yes"/>
      <point x="226" y="92"/>
      <point x="172" y="118"/>
      <point x="132" y="162" type="curve"/>
      <point x="49" y="85" type="line"/>
      <point x="86" y="32"/>
      <point x="160" y="-3"/>
      <point x="256" y="-10" type="curve"/>
      <point x="243" y="-74" type="line"/>
      <point x="264" y="-76" type="line" smooth="yes"/>
      <point x="326" y="-82"/>
      <point x="339" y="-101"/>
      <point x="339" y="-116" type="curve" smooth="yes" name="hr02"/>
      <point x="339" y="-133"/>
      <point x="320" y="-141"/>
      <point x="295" y="-141" type="curve" smooth="yes"/>
      <point x="264" y="-141"/>
      <point x="242" y="-128"/>
      <point x="229" y="-112" type="curve"/>
      <point x="183" y="-168" type="line"/>
      <point x="200" y="-188"/>
      <point x="238" y="-212"/>
    </contour>
  </outline>
</glyph>
<glyph name="Tcedilla" format="1">
  <advance width="600"/>
  <unicode hex="0162"/>
  <outline>
    <contour>
      <point x="314" y="-212" type="curve" smooth="yes"/>
      <point x="382" y="-212"/>
      <point x="446" y="-189"/>
      <point x="446" y="-121" type="curve" smooth="yes"/>
      <point x="446" y="-72"/>
      <point x="413" y="-52"/>
      <point x="373" y="-52" type="curve" smooth="yes"/>
      <point x="357" y="-52"/>
      <point x="341" y="-55"/>
      <point x="325" y="-59" type="curve"/>
      <point x="321" y="-55" type="line"/>
      <point x="332" y="0" type="line"/>
      <point x="375" y="0" type="line" name="hr01"/>
      <point x="375" y="575" type="line"/>
      <point x="576" y="575" type="line"/>
      <point x="576" y="698" type="line"/>
      <point x="24" y="698" type="line"/>
      <point x="24" y="575" type="line"/>
      <point x="225" y="575" type="line"/>
      <point x="225" y="0" type="line"/>
      <point x="265" y="0" type="line"/>
      <point x="250" y="-74" type="line"/>
      <point x="271" y="-76" type="line" smooth="yes"/>
      <point x="333" y="-82"/>
      <point x="346" y="-101"/>
      <point x="346" y="-116" type="curve" smooth="yes" name="hr02"/>
      <point x="346" y="-133"/>
      <point x="327" y="-141"/>
      <point x="302" y="-141" type="curve" smooth="yes"/>
      <point x="271" y="-141"/>
      <point x="249" y="-128"/>
      <point x="236" y="-112" type="curve"/>
      <point x="190" y="-168" type="line"/>
      <point x="207" y="-188"/>
      <point x="245" y="-212"/>
    </contour>
  </outline>
</glyph>
<glyph name="tcedilla" format="1">
  <advance width="600"/>
  <unicode hex="0163"/>
  <outline>
    <contour>
      <point x="375" y="-212" type="curve" smooth="yes" name="hr00"/>
      <point x="443" y="-212"/>
      <point x="507" y="-189"/>
      <point x="507" y="-121" type="curve" smooth="yes"/>
      <point x="507" y="-72"/>
      <point x="474" y="-52"/>
      <point x="434" y="-52" type="curve" smooth="yes"/>
      <point x="418" y="-52"/>
      <point x="402" y="-55"/>
      <point x="386" y="-59" type="curve"/>
      <point x="382" y="-55" type="line"/>
      <point x="393" y="0" type="line"/>
      <point x="531" y="0" type="line"/>
      <point x="531" y="115" type="line"/>
      <point x="330" y="115" type="line"/>
      <point x="330" y="401" type="line"/>
      <point x="531" y="401" type="line"/>
      <point x="531" y="516" type="line"/>
      <point x="330" y="516" type="line"/>
      <point x="330" y="698" type="line"/>
      <point x="194" y="698" type="line"/>
      <point x="194" y="577" type="line" smooth="yes"/>
      <point x="194" y="531"/>
      <point x="177" y="516"/>
      <point x="133" y="516" type="curve" smooth="yes"/>
      <point x="42" y="516" type="line"/>
      <point x="42" y="401" type="line"/>
      <point x="182" y="401" type="line"/>
      <point x="182" y="149" type="line" smooth="yes"/>
      <point x="182" y="66"/>
      <point x="229" y="5"/>
      <point x="326" y="0" type="curve"/>
      <point x="311" y="-74" type="line"/>
      <point x="332" y="-76" type="line" smooth="yes"/>
      <point x="394" y="-82"/>
      <point x="407" y="-101"/>
      <point x="407" y="-116" type="curve" smooth="yes"/>
      <point x="407" y="-133"/>
      <point x="388" y="-141"/>
      <point x="363" y="-141" type="curve" smooth="yes"/>
      <point x="332" y="-141"/>
      <point x="310" y="-128"/>
      <point x="297" y="-112" type="curve"/>
      <point x="251" y="-168" type="line"/>
      <point x="268" y="-188"/>
      <point x="306" y="-212"/>
    </contour>
  </outline>
</glyph>
<glyph name="Tbar" format="1">
  <advance width="600"/>
  <unicode hex="0166"/>
  <outline>
    <contour>
      <point x="518" y="282" type="line" name="hr00"/>
      <point x="518" y="396" type="line"/>
      <point x="375" y="396" type="line"/>
      <point x="375" y="575" type="line"/>
      <point x="576" y="575" type="line"/>
      <point x="576" y="698" type="line"/>
      <point x="24" y="698" type="line"/>
      <point x="24" y="575" type="line"/>
      <point x="225" y="575" type="line"/>
      <point x="225" y="396" type="line"/>
      <point x="82" y="396" type="line"/>
      <point x="82" y="282" type="line"/>
      <point x="225" y="282" type="line"/>
      <point x="225" y="0" type="line"/>
      <point x="375" y="0" type="line"/>
      <point x="375" y="282" type="line"/>
    </contour>
  </outline>
</glyph>
<glyph name="tbar" format="1">
  <advance width="600"/>
  <unicode hex="0167"/>
  <outline>
    <contour>
      <point x="531" y="115" type="line" name="hr00"/>
      <point x="330" y="115" type="line"/>
      <point x="330" y="212" type="line"/>
      <point x="481" y="212" type="line"/>
      <point x="481" y="317" type="line"/>
      <point x="330" y="317" type="line"/>
      <point x="330" y="401" type="line"/>
      <point x="531" y="401" type="line"/>
      <point x="531" y="516" type="line"/>
      <point x="330" y="516" type="line"/>
      <point x="330" y="698" type="line"/>
      <point x="194" y="698" type="line"/>
      <point x="194" y="577" type="line" smooth="yes"/>
      <point x="194" y="531"/>
      <point x="177" y="516"/>
      <point x="133" y="516" type="curve" smooth="yes"/>
      <point x="42" y="516" type="line"/>
      <point x="42" y="401" type="line"/>
      <point x="182" y="401" type="line"/>
      <point x="182" y="317" type="line"/>
      <point x="94" y="317" type="line"/>
      <point x="94" y="212" type="line"/>
      <point x="182" y="212" type="line"/>
      <point x="182" y="149" type="line" smooth="yes"/>
      <point x="182" y="62"/>
      <point x="233" y="0"/>
      <point x="340" y="0" type="curve" smooth="yes"/>
      <point x="531" y="0" type="line"/>
    </contour>
  </outline>
</glyph>
<glyph name="Uogonek" format="1">
  <advance width="600"/>
  <unicode hex="0172"/>
  <outline>
    <contour>
      <point x="55" y="698" type="line" name="hr00"/>
      <point x="55" y="276" type="line" smooth="yes"/>
      <point x="55" y="88"/>
      <point x="97" y="-12"/>
      <point x="294" y="-12" type="curve" smooth="yes"/>
      <point x="314" y="-12"/>
      <point x="324" y="-11"/>
      <point x="335" y="-9" type="curve"/>
      <point x="337" y="-14" type="line"/>
      <point x="261" y="-47"/>
      <point x="218" y="-75"/>
      <point x="218" y="-128" type="curve" smooth="yes"/>
      <point x="218" y="-190"/>
      <point x="275" y="-212"/>
      <point x="342" y="-212" type="curve" smooth="yes"/>
      <point x="405" y="-212"/>
      <point x="447" y="-193"/>
      <point x="464" y="-161" type="curve"/>
      <point x="411" y="-110" type="line"/>
      <point x="397" y="-126"/>
      <point x="380" y="-138"/>
      <point x="356" y="-138" type="curve" smooth="yes"/>
      <point x="337" y="-138"/>
      <point x="318" y="-130"/>
      <point x="318" y="-105" type="curve" smooth="yes"/>
      <point x="318" y="-82"/>
      <point x="333" y="-70"/>
      <point x="430" y="-1" type="curve" smooth="yes"/>
      <point x="540" y="77"/>
      <point x="545" y="149"/>
      <point x="545" y="276" type="curve" smooth="yes"/>
      <point x="545" y="698" type="line"/>
      <point x="395" y="698" type="line"/>
      <point x="395" y="256" type="line" smooth="yes"/>
      <point x="395" y="167"/>
      <point x="388" y="109"/>
      <point x="300" y="109" type="curve" smooth="yes"/>
      <point x="212" y="109"/>
      <point x="205" y="167"/>
      <point x="205" y="256" type="curve" smooth="yes"/>
      <point x="205" y="698" type="line"/>
    </contour>
  </outline>
</glyph>
<glyph name="Schwa" format="1">
  <advance width="600"/>
  <unicode hex="018F"/>
  <outline>
    <contour>
      <point x="300" y="-12" type="curve" smooth="yes" name="hr00"/>
      <point x="487" y="-12"/>
      <point x="573" y="121"/>
      <point x="573" y="349" type="curve" smooth="yes"/>
      <point x="573" y="577"/>
      <point x="488" y="710"/>
      <point x="298" y="710" type="curve" smooth="yes"/>
      <point x="160" y="710"/>
      <point x="75" y="639"/>
      <point x="43" y="514" type="curve"/>
      <point x="173" y="465" type="line"/>
      <point x="190" y="538"/>
      <point x="222" y="590"/>
      <point x="298" y="590" type="curve" smooth="yes"/>
      <point x="389" y="590"/>
      <point x="420" y="517"/>
      <point x="420" y="410" type="curve" smooth="yes"/>
      <point x="420" y="399" type="line"/>
      <point x="27" y="399" type="line"/>
      <point x="27" y="349" type="line" smooth="yes"/>
      <point x="27" y="121"/>
      <point x="113" y="-12"/>
    </contour>
    <contour>
      <point x="300" y="106" type="curve" smooth="yes"/>
      <point x="209" y="106"/>
      <point x="180" y="175"/>
      <point x="180" y="288" type="curve" smooth="yes"/>
      <point x="180" y="291" type="line"/>
      <point x="420" y="291" type="line"/>
      <point x="420" y="288" type="line" smooth="yes"/>
      <point x="420" y="175"/>
      <point x="391" y="106"/>
    </contour>
  </outline>
</glyph>
<glyph name="florin" format="1">
  <advance width="600"/>
  <unicode hex="0192"/>
  <outline>
    <contour>
      <point x="-50" y="-200" type="line" name="hr00"/>
      <point x="134" y="-200" type="line" smooth="yes"/>
      <point x="241" y="-200"/>
      <point x="291" y="-148"/>
      <point x="305" y="-61" type="curve" smooth="yes"/>
      <point x="369" y="323" type="line"/>
      <point x="543" y="323" type="line"/>
      <point x="561" y="438" type="line"/>
      <point x="389" y="438" type="line"/>
      <point x="413" y="583" type="line"/>
      <point x="598" y="583" type="line"/>
      <point x="617" y="698" type="line"/>
      <point x="432" y="698" type="line" smooth="yes"/>
      <point x="324" y="698"/>
      <point x="275" y="646"/>
      <point x="261" y="559" type="curve" smooth="yes"/>
      <point x="241" y="438" type="line"/>
      <point x="77" y="438" type="line"/>
      <point x="58" y="323" type="line"/>
      <point x="221" y="323" type="line"/>
      <point x="153" y="-85" type="line"/>
      <point x="-31" y="-85" type="line"/>
    </contour>
  </outline>
</glyph>
